{
.appVersion = "1131";
DisplayStrings = (
"His sdis",
AVA
);
classes = (
{
automatic = 1;

glyphs = (
{
glyphname = A;
lastChange = "2018-05-07 15:26:38 +0000";
layers = (
{
anchors = (
{
name = bottom;
position = "{356, 0}";
},
{
name = ogonek;
position = "{613, 10}";
},
{
name = top;
position = "{356, 700}";
}
);
layerId = "3D0525B3-6B2A-4787-8D58-1F6DD6CCA7DC";
paths = (
{
closed = 1;
nodes = (
"341 612 LINE",
"363 548 OFFCURVE",
"383 478 OFFCURVE",
"404 422 CURVE SMOOTH",
"564 0 LINE",
"684 0 LINE",
"415 700 LINE",
"295 700 LINE",
"24 0 LINE",
"139 0 LINE",
"298 418 LINE SMOOTH",
"319 474 OFFCURVE",
"340 548 OFFCURVE",
"364 613 CURVE"
);
},
{
closed = 1;
nodes = (
"524 174 LINE",
"507 278 LINE",
"222 278 LINE",
"179 174 LINE"
);
}
);
width = 708;
},
{
layerId = "950578AD-3C55-42C9-B412-F732192F54B4";
paths = (
{
closed = 1;
nodes = (
"478 617 LINE",
"500 553 OFFCURVE",
"521 514 OFFCURVE",
"546 462 CURVE SMOOTH",
"771 0 LINE",
"880 0 LINE",
"547 700 LINE",
"427 700 LINE",
"92 0 LINE",
"196 0 LINE",
"419 458 LINE SMOOTH",
"444 510 OFFCURVE",
"466 553 OFFCURVE",
"490 618 CURVE"
);
},
{
closed = 1;
nodes = (
"696 174 LINE",
"679 278 LINE",
"284 278 LINE",
"241 174 LINE"
);
}
);
width = 972;
}
);
leftKerningGroup = A;
note = A;
rightKerningGroup = A;
unicode = 0041;
},
{
glyphname = Aogonek;
lastChange = "2018-05-07 13:31:44 +0000";
layers = (
{
anchors = (
{
name = _ogonek;
position = "{621, 10}";
},
{
name = bottom;
position = "{340, 0}";
},
{
name = ogonek;
position = "{597, 10}";
},
{
name = top;
position = "{340, 700}";
}
);
layerId = "3D0525B3-6B2A-4787-8D58-1F6DD6CCA7DC";
paths = (
{
closed = 1;
nodes = (
"600 21 LINE",
"601 52 LINE",
"520 30 OFFCURVE",
"426 -43 OFFCURVE",
"426 -114 CURVE SMOOTH",
"426 -178 OFFCURVE",
"479 -221 OFFCURVE",
"546 -221 CURVE SMOOTH",
"594 -221 OFFCURVE",
"636 -200 OFFCURVE",
"670 -177 CURVE",
"631 -118 LINE",
"610 -133 OFFCURVE",
"586 -144 OFFCURVE",
"566 -144 CURVE SMOOTH",
"539 -144 OFFCURVE",
"519 -123 OFFCURVE",
"519 -100 CURVE SMOOTH",
"519 -63 OFFCURVE",
"589 -26 OFFCURVE",
"654 0 CURVE",
"660 32 LINE",
"409 700 LINE",
"289 700 LINE",
"24 0 LINE",
"133 0 LINE",
"286 418 LINE SMOOTH",
"307 474 OFFCURVE",
"328 548 OFFCURVE",
"352 613 CURVE",
"340 612 LINE",
"362 548 OFFCURVE",
"383 478 OFFCURVE",
"403 422 CURVE SMOOTH",
"558 0 LINE"
);
},
{
closed = 1;
nodes = (
"518 174 LINE",
"501 278 LINE",
"216 278 LINE",
"173 174 LINE"
);
}
);
width = 694;
},
{
layerId = "950578AD-3C55-42C9-B412-F732192F54B4";
width = 640;
}
);
leftMetricsKey = A;
rightMetricsKey = A;
unicode = 0104;
},
{
glyphname = Aring;
lastChange = "2018-05-07 13:31:44 +0000";
layers = (
{
anchors = (
{
name = _top;
position = "{323, 669}";
},
{
name = top;
position = "{354, 853}";
}
);
components = (
{
name = A;
}
);
layerId = "3D0525B3-6B2A-4787-8D58-1F6DD6CCA7DC";
paths = (
{
closed = 1;
nodes = (
"422 631 OFFCURVE",
"478 684 OFFCURVE",
"478 746 CURVE",
"478 811 OFFCURVE",
"422 862 OFFCURVE",
"359 862 CURVE",
"296 862 OFFCURVE",
"239 811 OFFCURVE",
"239 746 CURVE",
"239 684 OFFCURVE",
"296 631 OFFCURVE",
"359 631 CURVE"
);
},
{
closed = 1;
nodes = (
"331 700 OFFCURVE",
"310 720 OFFCURVE",
"310 746 CURVE",
"310 774 OFFCURVE",
"331 793 OFFCURVE",
"359 793 CURVE",
"384 793 OFFCURVE",
"408 776 OFFCURVE",
"408 746 CURVE",
"408 720 OFFCURVE",
"386 700 OFFCURVE",
"359 700 CURVE"
);
}
);
width = 708;
},
{
layerId = "950578AD-3C55-42C9-B412-F732192F54B4";
width = 640;
}
);
leftMetricsKey = A;
rightMetricsKey = A;
unicode = 00C5;
},
{
glyphname = AE;
lastChange = "2018-05-07 13:31:44 +0000";
layers = (
{
anchors = (
{
name = bottom;
position = "{497, 0}";
},
{
name = top;
position = "{646, 700}";
}
);
layerId = "3D0525B3-6B2A-4787-8D58-1F6DD6CCA7DC";
paths = (
{
closed = 1;
nodes = (
"174 153 LINE",
"488 153 LINE",
"465 166 LINE",
"465 0 LINE",
"894 0 LINE SMOOTH",
"894 -3 OFFCURVE",
"894 18 OFFCURVE",
"894 93 CURVE",
"557 93 LINE",
"566 72 LINE",
"566 322 LINE",
"556 308 LINE",
"849 308 LINE SMOOTH",
"849 304 OFFCURVE",
"849 325 OFFCURVE",
"849 402 CURVE",
"558 402 LINE",
"566 385 LINE",
"566 616 LINE",
"557 607 LINE",
"894 607 LINE",
"894 700 LINE",
"493 700 LINE",
"5 0 LINE",
"114 0 LINE",
"484 541 LINE",
"465 552 LINE",
"465 213 LINE",
"483 245 LINE",
"228 245 LINE"
);
}
);
width = 944;
},
{
layerId = "950578AD-3C55-42C9-B412-F732192F54B4";
width = 640;
}
);
note = AE;
rightMetricsKey = E;
unicode = 00C6;
},
{
glyphname = B;
lastChange = "2018-05-07 13:31:44 +0000";
layers = (
{
anchors = (
{
name = bottom;
position = "{349, 0}";
},
{
name = top;
position = "{349, 700}";
}
);
layerId = "3D0525B3-6B2A-4787-8D58-1F6DD6CCA7DC";
paths = (
{
closed = 1;
nodes = (
"98 700 LINE",
"98 0 LINE",
"400 0 LINE",
"508 0 OFFCURVE",
"633 43 OFFCURVE",
"633 206 CURVE",
"633 354 OFFCURVE",
"500 399 OFFCURVE",
"412 399 CURVE",
"411 363 LINE",
"532 365 OFFCURVE",
"596 433 OFFCURVE",
"596 524 CURVE",
"596 638 OFFCURVE",
"526 700 OFFCURVE",
"390 700 CURVE"
);
},
{
closed = 1;
nodes = (
"437 596 OFFCURVE",
"488 570 OFFCURVE",
"488 503 CURVE",
"488 444 OFFCURVE",
"439 411 OFFCURVE",
"384 410 CURVE",
"197 410 LINE",
"206 399 LINE",
"206 621 LINE",
"196 596 LINE",
"372 596 LINE"
);
},
{
closed = 1;
nodes = (
"450 306 OFFCURVE",
"523 283 OFFCURVE",
"523 208 CURVE",
"523 137 OFFCURVE",
"470 104 OFFCURVE",
"394 104 CURVE",
"200 104 LINE",
"206 84 LINE",
"206 324 LINE",
"201 306 LINE",
"389 306 LINE"
);
}
);
width = 681;
},
{
layerId = "950578AD-3C55-42C9-B412-F732192F54B4";
width = 640;
}
);
leftMetricsKey = H;
note = B;
rightKerningGroup = B;
rightMetricsKey = O;
unicode = 0042;
},
{
glyphname = C;
lastChange = "2018-05-07 13:31:44 +0000";
layers = (
{
anchors = (
{
name = bottom;
position = "{377, 0}";
},
{
name = top;
position = "{372, 700}";
}
);
layerId = "3D0525B3-6B2A-4787-8D58-1F6DD6CCA7DC";
paths = (
{
closed = 1;
nodes = (
"576 174 LINE",
"540 137 OFFCURVE",
"478 99 OFFCURVE",
"400 99 CURVE SMOOTH",
"271 99 OFFCURVE",
"158 182 OFFCURVE",
"158 350 CURVE SMOOTH",
"158 504 OFFCURVE",
"270 598 OFFCURVE",
"391 598 CURVE SMOOTH",
"461 598 OFFCURVE",
"521 561 OFFCURVE",
"571 510 CURVE",
"643 585 LINE",
"600 646 OFFCURVE",
"505 706 OFFCURVE",
"391 706 CURVE SMOOTH",
"206 706 OFFCURVE",
"48 556 OFFCURVE",
"48 350 CURVE SMOOTH",
"48 131 OFFCURVE",
"194 -10 OFFCURVE",
"382 -10 CURVE SMOOTH",
"491 -10 OFFCURVE",
"588 37 OFFCURVE",
"630 86 CURVE SMOOTH",
"630 86 OFFCURVE",
"631 87 OFFCURVE",
"631 87 CURVE"
);
}
);
width = 679;
},
{
anchors = (
{
name = bottom;
position = "{392, 0}";
},
{
name = top;
position = "{374, 700}";
}
);
associatedMasterId = "3D0525B3-6B2A-4787-8D58-1F6DD6CCA7DC";
layerId = "A8318955-2332-4256-90D0-5C0B55045161";
name = "Apr 2 18, 12:45";
paths = (
{
closed = 1;
nodes = (
"592 648 OFFCURVE",
"507 706 OFFCURVE",
"386 706 CURVE SMOOTH",
"201 706 OFFCURVE",
"43 556 OFFCURVE",
"43 350 CURVE",
"43 121 OFFCURVE",
"209 -10 OFFCURVE",
"400 -10 CURVE",
"464 -10 OFFCURVE",
"530 9 OFFCURVE",
"581 37 CURVE",
"597 45 OFFCURVE",
"606 61 OFFCURVE",
"606 77 CURVE SMOOTH",
"606 88 OFFCURVE",
"602 99 OFFCURVE",
"594 110 CURVE",
"584 122 OFFCURVE",
"571 127 OFFCURVE",
"558 127 CURVE SMOOTH",
"549 127 OFFCURVE",
"540 125 OFFCURVE",
"532 121 CURVE",
"492 98 OFFCURVE",
"447 86 OFFCURVE",
"400 86 CURVE",
"258 86 OFFCURVE",
"148 180 OFFCURVE",
"148 350 CURVE",
"148 503 OFFCURVE",
"253 610 OFFCURVE",
"386 610 CURVE SMOOTH",
"476 610 OFFCURVE",
"535 561 OFFCURVE",
"555 537 CURVE SMOOTH",
"567 522 OFFCURVE",
"580 512 OFFCURVE",
"596 512 CURVE SMOOTH",
"620 512 OFFCURVE",
"644 531 OFFCURVE",
"644 561 CURVE SMOOTH",
"644 569 OFFCURVE",
"641 580 OFFCURVE",
"633 591 CURVE SMOOTH"
);
}
);
width = 637;
},
{
anchors = (
{
name = bottom;
position = "{392, 0}";
},
{
name = top;
position = "{374, 700}";
}
);
associatedMasterId = "3D0525B3-6B2A-4787-8D58-1F6DD6CCA7DC";
layerId = "77367C94-86C1-49F8-9713-672AA0BC257D";
name = "Apr 2 18, 12:45";
paths = (
{
closed = 1;
nodes = (
"528 689 OFFCURVE",
"465 706 OFFCURVE",
"400 706 CURVE",
"196 706 OFFCURVE",
"43 556 OFFCURVE",
"43 350 CURVE",
"43 121 OFFCURVE",
"209 -10 OFFCURVE",
"400 -10 CURVE",
"464 -10 OFFCURVE",
"530 9 OFFCURVE",
"581 37 CURVE",
"607 51 OFFCURVE",
"614 83 OFFCURVE",
"594 110 CURVE",
"578 129 OFFCURVE",
"554 132 OFFCURVE",
"532 121 CURVE",
"492 98 OFFCURVE",
"447 86 OFFCURVE",
"400 86 CURVE",
"258 86 OFFCURVE",
"148 180 OFFCURVE",
"148 350 CURVE",
"148 503 OFFCURVE",
"249 610 OFFCURVE",
"400 610 CURVE",
"448 610 OFFCURVE",
"493 597 OFFCURVE",
"532 576 CURVE",
"554 564 OFFCURVE",
"578 566 OFFCURVE",
"593 585 CURVE",
"613 610 OFFCURVE",
"608 644 OFFCURVE",
"580 659 CURVE"
);
}
);
visible = 1;
width = 637;
},
{
layerId = "950578AD-3C55-42C9-B412-F732192F54B4";
width = 640;
}
);
leftKerningGroup = C;
leftMetricsKey = O;
note = C;
unicode = 0043;
},
{
glyphname = D;
lastChange = "2018-05-07 13:31:44 +0000";
layers = (
{
anchors = (
{
name = bottom;
position = "{335, 0}";
},
{
name = center;
position = "{147, 350}";
},
{
name = top;
position = "{325, 700}";
}
);
layerId = "3D0525B3-6B2A-4787-8D58-1F6DD6CCA7DC";
paths = (
{
closed = 1;
nodes = (
"98 700 LINE",
"98 0 LINE",
"372 0 LINE SMOOTH",
"588 0 OFFCURVE",
"700 157 OFFCURVE",
"700 350 CURVE SMOOTH",
"700 540 OFFCURVE",
"588 700 OFFCURVE",
"372 700 CURVE SMOOTH"
);
},
{
closed = 1;
nodes = (
"203 104 LINE",
"206 93 LINE",
"206 605 LINE",
"200 596 LINE",
"367 596 LINE SMOOTH",
"524 596 OFFCURVE",
"590 482 OFFCURVE",
"590 350 CURVE SMOOTH",
"590 215 OFFCURVE",
"524 104 OFFCURVE",
"367 104 CURVE SMOOTH"
);
}
);
width = 748;
},
{
layerId = "950578AD-3C55-42C9-B412-F732192F54B4";
paths = (
{
closed = 1;
nodes = (
"182 700 LINE",
"182 0 LINE",
"526 0 LINE SMOOTH",
"788 0 OFFCURVE",
"924 157 OFFCURVE",
"924 350 CURVE SMOOTH",
"924 540 OFFCURVE",
"788 700 OFFCURVE",
"526 700 CURVE SMOOTH"
);
},
{
closed = 1;
nodes = (
"287 104 LINE",
"290 93 LINE",
"290 605 LINE",
"284 596 LINE",
"521 596 LINE SMOOTH",
"727 596 OFFCURVE",
"814 482 OFFCURVE",
"814 350 CURVE SMOOTH",
"814 215 OFFCURVE",
"727 104 OFFCURVE",
"521 104 CURVE SMOOTH"
);
}
);
width = 1052;
}
);
leftMetricsKey = H;
note = D;
rightKerningGroup = D;
rightMetricsKey = O;
unicode = 0044;
},
{
glyphname = E;
lastChange = "2018-05-07 13:31:44 +0000";
layers = (
{
anchors = (
{
name = bottom;
position = "{322, 0}";
},
{
name = ogonek;
position = "{475, 10}";
},
{
name = top;
position = "{317, 700}";
},
{
name = topleft;
position = "{46, 700}";
}
);
layerId = "3D0525B3-6B2A-4787-8D58-1F6DD6CCA7DC";
paths = (
{
closed = 1;
nodes = (
"98 0 LINE",
"539 0 LINE",
"539 0 OFFCURVE",
"539 104 OFFCURVE",
"539 104 CURVE",
"199 104 LINE",
"206 97 LINE",
"206 316 LINE",
"200 307 LINE",
"484 307 LINE",
"484 411 LINE",
"197 411 LINE",
"206 402 LINE",
"206 614 LINE",
"197 596 LINE",
"539 596 LINE",
"539 700 LINE",
"98 700 LINE"
);
}
);
width = 589;
},
{
layerId = "950578AD-3C55-42C9-B412-F732192F54B4";
paths = (
{
closed = 1;
nodes = (
"182 0 LINE",
"763 0 LINE",
"763 0 OFFCURVE",
"763 104 OFFCURVE",
"763 104 CURVE",
"283 104 LINE",
"290 97 LINE",
"290 316 LINE",
"284 307 LINE",
"708 307 LINE",
"708 411 LINE",
"281 411 LINE",
"290 402 LINE",
"290 614 LINE",
"281 596 LINE",
"763 596 LINE",
"763 700 LINE",
"182 700 LINE"
);
}
);
width = 923;
}
);
leftMetricsKey = H;
note = E;
rightKerningGroup = E;
unicode = 0045;
},
{
glyphname = Eogonek;
lastChange = "2018-05-07 13:31:44 +0000";
layers = (
{
anchors = (
{
name = _ogonek;
position = "{461, 10}";
},
{
name = bottom;
position = "{296, 0}";
},
{
name = ogonek;
position = "{449, 10}";
},
{
name = top;
position = "{293, 700}";
},
{
name = topleft;
position = "{20, 700}";
}
);
components = (
{
name = E;
}
);
layerId = "3D0525B3-6B2A-4787-8D58-1F6DD6CCA7DC";
paths = (
{
closed = 1;
nodes = (
"470 52 LINE",
"389 30 OFFCURVE",
"295 -43 OFFCURVE",
"295 -114 CURVE SMOOTH",
"295 -178 OFFCURVE",
"348 -221 OFFCURVE",
"415 -221 CURVE SMOOTH",
"463 -221 OFFCURVE",
"505 -200 OFFCURVE",
"539 -177 CURVE",
"500 -118 LINE",
"479 -133 OFFCURVE",
"455 -144 OFFCURVE",
"435 -144 CURVE SMOOTH",
"408 -144 OFFCURVE",
"388 -123 OFFCURVE",
"388 -100 CURVE SMOOTH",
"388 -62 OFFCURVE",
"458 -24 OFFCURVE",
"523 0 CURVE"
);
}
);
width = 589;
},
{
layerId = "950578AD-3C55-42C9-B412-F732192F54B4";
width = 640;
}
);
leftMetricsKey = E;
note = Eogonek;
rightMetricsKey = E;
unicode = 0118;
},
{
glyphname = F;
lastChange = "2018-05-07 13:31:44 +0000";
layers = (
{
anchors = (
{
name = bottom;
position = "{308, 0}";
},
{
name = center;
position = "{157, 194}";
},
{
name = top;
position = "{308, 700}";
}
);
layerId = "3D0525B3-6B2A-4787-8D58-1F6DD6CCA7DC";
paths = (
{
closed = 1;
nodes = (
"203 0 OFFCURVE",
"206 0 CURVE",
"206 307 LINE",
"198 298 LINE",
"477 298 LINE",
"477 402 LINE",
"200 402 LINE",
"206 390 LINE",
"206 606 LINE",
"198 596 LINE",
"522 596 LINE",
"522 700 LINE",
"98 700 LINE",
"98 0 LINE",
"94 0 OFFCURVE"
);
}
);
width = 572;
},
{
layerId = "950578AD-3C55-42C9-B412-F732192F54B4";
width = 640;
}
);
leftMetricsKey = H;
note = F;
rightKerningGroup = F;
unicode = 0046;
},
{
glyphname = G;
lastChange = "2018-05-07 13:31:44 +0000";
layers = (
{
anchors = (
{
name = bottom;
position = "{413, 0}";
},
{
name = top;
position = "{400, 700}";
}
);
layerId = "3D0525B3-6B2A-4787-8D58-1F6DD6CCA7DC";
paths = (
{
closed = 1;
nodes = (
"206 706 OFFCURVE",
"48 552 OFFCURVE",
"48 350 CURVE",
"48 148 OFFCURVE",
"207 -10 OFFCURVE",
"411 -10 CURVE",
"514 -10 OFFCURVE",
"602 32 OFFCURVE",
"655 99 CURVE SMOOTH",
"714 165 OFFCURVE",
"732 266 OFFCURVE",
"718 359 CURVE",
"408 359 LINE",
"408 252 LINE",
"622 252 LINE",
"606 266 LINE",
"621 167 OFFCURVE",
"521 95 OFFCURVE",
"414 95 CURVE SMOOTH",
"275 95 OFFCURVE",
"158 208 OFFCURVE",
"158 350 CURVE",
"158 493 OFFCURVE",
"267 601 OFFCURVE",
"410 601 CURVE SMOOTH",
"484 601 OFFCURVE",
"549 565 OFFCURVE",
"602 514 CURVE",
"672 587 LINE",
"627 648 OFFCURVE",
"529 706 OFFCURVE",
"410 706 CURVE SMOOTH"
);
}
);
width = 766;
},
{
layerId = "950578AD-3C55-42C9-B412-F732192F54B4";
paths = (
{
closed = 1;
nodes = (
"317 706 OFFCURVE",
"128 552 OFFCURVE",
"128 350 CURVE",
"128 112 OFFCURVE",
"318 -10 OFFCURVE",
"534 -10 CURVE",
"694 -10 OFFCURVE",
"816 38 OFFCURVE",
"881 121 CURVE SMOOTH",
"923 175 OFFCURVE",
"952 266 OFFCURVE",
"938 359 CURVE",
"558 359 LINE",
"558 252 LINE",
"842 252 LINE",
"826 266 LINE",
"838 167 OFFCURVE",
"710 95 OFFCURVE",
"543 95 CURVE SMOOTH",
"387 95 OFFCURVE",
"238 172 OFFCURVE",
"238 350 CURVE",
"238 493 OFFCURVE",
"377 601 OFFCURVE",
"560 601 CURVE SMOOTH",
"661 601 OFFCURVE",
"750 565 OFFCURVE",
"822 514 CURVE",
"892 587 LINE",
"835 648 OFFCURVE",
"711 706 OFFCURVE",
"560 706 CURVE SMOOTH"
);
}
);
width = 1062;
}
);
leftKerningGroup = C;
leftMetricsKey = O;
note = G;
rightKerningGroup = G;
unicode = 0047;
},
{
glyphname = H;
lastChange = "2018-05-07 13:31:44 +0000";
layers = (
{
anchors = (
{
name = bottom;
position = "{376, 0}";
},
{
name = center;
position = "{376, 350}";
},
{
name = top;
position = "{376, 700}";
},
{
name = topleft;
position = "{36, 700}";
}
);
layerId = "3D0525B3-6B2A-4787-8D58-1F6DD6CCA7DC";
paths = (
{
closed = 1;
nodes = (
"98 700 LINE",
"98 0 LINE",
"206 0 LINE",
"206 700 LINE"
);
},
{
closed = 1;
nodes = (
"555 700 LINE",
"555 0 LINE",
"663 0 LINE",
"663 700 LINE"
);
},
{
closed = 1;
nodes = (
"145 297 LINE",
"603 297 LINE",
"603 401 LINE",
"146 401 LINE"
);
}
);
width = 761;
},
{
layerId = "950578AD-3C55-42C9-B412-F732192F54B4";
paths = (
{
closed = 1;
nodes = (
"182 700 LINE",
"182 0 LINE",
"290 0 LINE",
"290 700 LINE"
);
},
{
closed = 1;
nodes = (
"779 700 LINE",
"779 0 LINE",
"887 0 LINE",
"887 700 LINE"
);
},
{
closed = 1;
nodes = (
"229 297 LINE",
"827 297 LINE",
"827 401 LINE",
"230 401 LINE"
);
}
);
width = 1069;
}
);
note = H;
unicode = 0048;
},
{
glyphname = Hbar;
lastChange = "2018-05-07 13:31:44 +0000";
layers = (
{
components = (
{
name = H;
transform = "{1, 0, 0, 1, 48, 0}";
}
);
layerId = "3D0525B3-6B2A-4787-8D58-1F6DD6CCA7DC";
paths = (
{
closed = 1;
nodes = (
"163 468 LINE",
"209 478 LINE",
"625 478 LINE",
"656 468 LINE",
"758 468 LINE",
"758 572 LINE",
"649 572 LINE",
"613 562 LINE",
"219 562 LINE",
"173 572 LINE",
"57 572 LINE",
"57 468 LINE"
);
}
);
width = 815;
},
{
layerId = "950578AD-3C55-42C9-B412-F732192F54B4";
width = 640;
}
);
note = Hbar;
unicode = 0126;
},
{
glyphname = I;
lastChange = "2018-05-07 13:31:44 +0000";
layers = (
{
anchors = (
{
name = bottom;
position = "{238, 0}";
},
{
name = ogonek;
position = "{428, 10}";
},
{
name = top;
position = "{238, 700}";
},
{
name = topleft;
position = "{123, 700}";
}
);
layerId = "3D0525B3-6B2A-4787-8D58-1F6DD6CCA7DC";
paths = (
{
closed = 1;
nodes = (
"293 700 LINE",
"292 700 OFFCURVE",
"186 700 OFFCURVE",
"185 700 CURVE",
"185 0 LINE",
"293 0 LINE"
);
},
{
closed = 1;
nodes = (
"406 700 LINE",
"72 700 LINE",
"72 596 LINE",
"406 596 LINE"
);
},
{
closed = 1;
nodes = (
"406 104 LINE",
"72 104 LINE",
"72 0 LINE",
"406 0 LINE"
);
}
);
width = 478;
},
{
layerId = "950578AD-3C55-42C9-B412-F732192F54B4";
paths = (
{
closed = 1;
nodes = (
"481 700 LINE",
"480 700 OFFCURVE",
"374 700 OFFCURVE",
"373 700 CURVE",
"373 0 LINE",
"481 0 LINE"
);
},
{
closed = 1;
nodes = (
"664 700 LINE",
"190 700 LINE",
"190 596 LINE",
"664 596 LINE"
);
},
{
closed = 1;
nodes = (
"664 104 LINE",
"190 104 LINE",
"190 0 LINE",
"664 0 LINE"
);
}
);
width = 854;
}
);
note = I;
unicode = 0049;
},
{
glyphname = IJ;
lastChange = "2018-05-07 13:31:44 +0000";
layers = (
{
anchors = (
{
name = bottom;
position = "{-1, 170}";
},
{
name = ogonek;
position = "{106, 10}";
},
{
name = top;
position = "{98, 700}";
},
{
name = topleft;
position = "{-87, 700}";
}
);
components = (
{
name = J;
transform = "{1, 0, 0, 1, 66, 0}";
}
);
layerId = "3D0525B3-6B2A-4787-8D58-1F6DD6CCA7DC";
paths = (
{
closed = 1;
nodes = (
"241 651 LINE",
"140 651 LINE",
"140 337 LINE",
"241 337 LINE"
);
},
{
closed = 1;
nodes = (
"324 391 LINE",
"60 391 LINE",
"60 287 LINE",
"324 287 LINE"
);
},
{
closed = 1;
nodes = (
"324 700 LINE",
"60 700 LINE",
"60 596 LINE",
"324 596 LINE"
);
}
);
width = 648;
},
{
layerId = "950578AD-3C55-42C9-B412-F732192F54B4";
width = 640;
}
);
note = IJ;
rightMetricsKey = H;
unicode = 0132;
},
{
glyphname = J;
lastChange = "2018-05-07 13:31:44 +0000";
layers = (
{
anchors = (
{
name = bottom;
position = "{280, 0}";
},
{
name = top;
position = "{427, 700}";
}
);
layerId = "3D0525B3-6B2A-4787-8D58-1F6DD6CCA7DC";
paths = (
{
closed = 1;
nodes = (
"402 -10 OFFCURVE",
"484 99 OFFCURVE",
"484 213 CURVE",
"484 700 LINE",
"376 700 LINE",
"376 223 LINE",
"376 152 OFFCURVE",
"331 95 OFFCURVE",
"256 95 CURVE SMOOTH",
"184 95 OFFCURVE",
"152 141 OFFCURVE",
"118 188 CURVE",
"50 117 LINE",
"66 86 OFFCURVE",
"128 -10 OFFCURVE",
"256 -10 CURVE"
);
}
);
width = 582;
},
{
layerId = "950578AD-3C55-42C9-B412-F732192F54B4";
width = 640;
}
);
leftKerningGroup = J;
note = J;
rightKerningGroup = J;
rightMetricsKey = H;
unicode = 004A;
},
{
glyphname = K;
lastChange = "2018-05-07 13:31:44 +0000";
layers = (
{
anchors = (
{
name = bottom;
position = "{336, 0}";
},
{
name = top;
position = "{348, 700}";
}
);
layerId = "3D0525B3-6B2A-4787-8D58-1F6DD6CCA7DC";
paths = (
{
closed = 1;
nodes = (
"697 0 LINE",
"374 427 LINE",
"307 341 LINE",
"562 0 LINE"
);
},
{
closed = 1;
nodes = (
"549 700 LINE",
"182 333 LINE",
"188 212 LINE",
"691 700 LINE"
);
},
{
closed = 1;
nodes = (
"206 700 LINE",
"205 700 OFFCURVE",
"99 700 OFFCURVE",
"98 700 CURVE",
"98 0 LINE",
"206 0 LINE"
);
}
);
width = 717;
},
{
layerId = "950578AD-3C55-42C9-B412-F732192F54B4";
width = 640;
}
);
leftMetricsKey = H;
note = K;
rightKerningGroup = K;
unicode = 004B;
},
{
glyphname = L;
lastChange = "2018-05-07 13:31:44 +0000";
layers = (
{
anchors = (
{
name = bottom;
position = "{298, 0}";
},
{
name = center;
position = "{291, 350}";
},
{
name = top;
position = "{141, 700}";
},
{
name = topright;
position = "{547, 700}";
}
);
layerId = "3D0525B3-6B2A-4787-8D58-1F6DD6CCA7DC";
paths = (
{
closed = 1;
nodes = (
"178 104 LINE",
"206 78 LINE",
"206 700 LINE",
"98 700 LINE",
"98 0 LINE",
"534 0 LINE",
"534 0 OFFCURVE",
"534 104 OFFCURVE",
"534 104 CURVE"
);
}
);
width = 579;
},
{
layerId = "950578AD-3C55-42C9-B412-F732192F54B4";
width = 640;
}
);
leftMetricsKey = H;
note = L;
rightKerningGroup = L;
unicode = 004C;
},
{
glyphname = Lslash;
lastChange = "2018-05-07 13:31:44 +0000";
layers = (
{
components = (
{
name = L;
transform = "{1, 0, 0, 1, 39, 0}";
}
);
layerId = "3D0525B3-6B2A-4787-8D58-1F6DD6CCA7DC";
paths = (
{
closed = 1;
nodes = (
"69 256 LINE",
"363 382 LINE",
"331 459 LINE",
"40 328 LINE"
);
}
);
width = 618;
},
{
layerId = "950578AD-3C55-42C9-B412-F732192F54B4";
width = 640;
}
);
note = Lslash;
rightMetricsKey = L;
unicode = 0141;
},
{
glyphname = M;
lastChange = "2018-05-07 13:31:44 +0000";
layers = (
{
anchors = (
{
name = bottom;
position = "{433, 0}";
},
{
name = top;
position = "{433, 700}";
}
);
layerId = "3D0525B3-6B2A-4787-8D58-1F6DD6CCA7DC";
paths = (
{
closed = 1;
nodes = (
"98 700 LINE",
"98 0 LINE",
"99 0 OFFCURVE",
"205 0 OFFCURVE",
"206 0 CURVE",
"206 287 LINE SMOOTH",
"206 398 OFFCURVE",
"202 490 OFFCURVE",
"186 592 CURVE",
"175 551 LINE",
"397 201 LINE",
"463 201 LINE",
"692 555 LINE",
"678 592 LINE",
"663 490 OFFCURVE",
"658 398 OFFCURVE",
"658 287 CURVE SMOOTH",
"658 0 LINE",
"766 0 LINE",
"766 700 LINE",
"666 700 LINE",
"408 286 LINE",
"459 285 LINE",
"204 700 LINE"
);
}
);
width = 864;
},
{
layerId = "950578AD-3C55-42C9-B412-F732192F54B4";
width = 640;
}
);
leftMetricsKey = H;
note = M;
rightMetricsKey = H;
unicode = 004D;
},
{
glyphname = N;
lastChange = "2018-05-07 13:31:44 +0000";
layers = (
{
anchors = (
{
name = bottom;
position = "{393, 0}";
},
{
name = top;
position = "{393, 700}";
}
);
layerId = "3D0525B3-6B2A-4787-8D58-1F6DD6CCA7DC";
paths = (
{
closed = 1;
nodes = (
"586 700 OFFCURVE",
"587 700 CURVE",
"587 470 LINE",
"587 360 OFFCURVE",
"591 219 OFFCURVE",
"607 118 CURVE",
"623 127 LINE",
"195 700 LINE",
"98 700 LINE",
"98 0 LINE",
"206 0 LINE",
"206 291 LINE",
"206 383 OFFCURVE",
"194 474 OFFCURVE",
"186 566 CURVE",
"175 552 LINE",
"596 0 LINE",
"695 0 LINE",
"695 700 LINE",
"692 700 OFFCURVE"
);
}
);
width = 793;
},
{
layerId = "950578AD-3C55-42C9-B412-F732192F54B4";
width = 640;
}
);
leftMetricsKey = H;
note = N;
rightMetricsKey = H;
unicode = 004E;
},
{
glyphname = Eng;
lastChange = "2018-05-07 13:31:44 +0000";
layers = (
{
layerId = "3D0525B3-6B2A-4787-8D58-1F6DD6CCA7DC";
paths = (
{
closed = 1;
nodes = (
"587 76 LINE",
"587 1 LINE SMOOTH",
"587 -73 OFFCURVE",
"552 -118 OFFCURVE",
"471 -118 CURVE",
"510 -197 LINE",
"618 -197 OFFCURVE",
"695 -131 OFFCURVE",
"695 -24 CURVE SMOOTH",
"695 58 LINE",
"695 700 LINE",
"692 700 OFFCURVE",
"586 700 OFFCURVE",
"587 700 CURVE",
"587 470 LINE",
"587 360 OFFCURVE",
"591 219 OFFCURVE",
"607 118 CURVE",
"623 127 LINE",
"195 700 LINE",
"98 700 LINE",
"98 0 LINE",
"206 0 LINE",
"206 291 LINE",
"206 383 OFFCURVE",
"194 474 OFFCURVE",
"186 566 CURVE",
"175 552 LINE",
"596 0 LINE"
);
}
);
width = 793;
},
{
layerId = "950578AD-3C55-42C9-B412-F732192F54B4";
width = 640;
}
);
leftMetricsKey = N;
note = Eng;
rightMetricsKey = N;
unicode = 014A;
},
{
glyphname = Nhookleft;
lastChange = "2018-05-07 13:31:44 +0000";
layers = (
{
anchors = (
{
name = bottom;
position = "{318, 0}";
},
{
name = top;
position = "{318, 700}";
}
);
layerId = "3D0525B3-6B2A-4787-8D58-1F6DD6CCA7DC";
paths = (
{
closed = 1;
nodes = (
"190 291 LINE",
"190 383 OFFCURVE",
"178 474 OFFCURVE",
"170 566 CURVE",
"159 552 LINE",
"580 0 LINE",
"679 0 LINE",
"679 700 LINE",
"676 700 OFFCURVE",
"570 700 OFFCURVE",
"571 700 CURVE",
"571 470 LINE",
"571 360 OFFCURVE",
"575 219 OFFCURVE",
"591 118 CURVE",
"607 127 LINE",
"179 700 LINE",
"82 700 LINE",
"82 1 LINE SMOOTH",
"82 -73 OFFCURVE",
"47 -118 OFFCURVE",
"-34 -118 CURVE",
"5 -197 LINE",
"113 -197 OFFCURVE",
"190 -131 OFFCURVE",
"190 -24 CURVE SMOOTH"
);
}
);
width = 732;
},
{
layerId = "950578AD-3C55-42C9-B412-F732192F54B4";
width = 640;
}
);
unicode = 019D;
},
{
glyphname = O;
lastChange = "2018-05-07 13:31:44 +0000";
layers = (
{
anchors = (
{
name = bottom;
position = "{386, 0}";
},
{
name = center;
position = "{386, 350}";
},
{
name = ogonek;
position = "{690, 10}";
},
{
name = top;
position = "{386, 700}";
},
{
name = topleft;
position = "{25, 700}";
},
{
name = topright;
position = "{387, 706}";
}
);
layerId = "3D0525B3-6B2A-4787-8D58-1F6DD6CCA7DC";
paths = (
{
closed = 1;
nodes = (
"734 553 OFFCURVE",
"591 710 OFFCURVE",
"391 710 CURVE",
"190 710 OFFCURVE",
"48 553 OFFCURVE",
"48 350 CURVE",
"48 147 OFFCURVE",
"190 -10 OFFCURVE",
"391 -10 CURVE",
"591 -10 OFFCURVE",
"734 147 OFFCURVE",
"734 350 CURVE"
);
},
{
closed = 1;
nodes = (
"624 205 OFFCURVE",
"527 95 OFFCURVE",
"391 95 CURVE SMOOTH",
"253 95 OFFCURVE",
"158 204 OFFCURVE",
"158 350 CURVE",
"158 496 OFFCURVE",
"253 605 OFFCURVE",
"391 605 CURVE SMOOTH",
"527 605 OFFCURVE",
"624 495 OFFCURVE",
"624 350 CURVE"
);
}
);
width = 782;
},
{
layerId = "950578AD-3C55-42C9-B412-F732192F54B4";
paths = (
{
closed = 1;
nodes = (
"954 553 OFFCURVE",
"782 710 OFFCURVE",
"541 710 CURVE",
"299 710 OFFCURVE",
"128 553 OFFCURVE",
"128 350 CURVE",
"128 147 OFFCURVE",
"299 -10 OFFCURVE",
"541 -10 CURVE",
"782 -10 OFFCURVE",
"954 147 OFFCURVE",
"954 350 CURVE"
);
},
{
closed = 1;
nodes = (
"844 205 OFFCURVE",
"718 95 OFFCURVE",
"541 95 CURVE SMOOTH",
"362 95 OFFCURVE",
"238 204 OFFCURVE",
"238 350 CURVE",
"238 496 OFFCURVE",
"362 605 OFFCURVE",
"541 605 CURVE SMOOTH",
"718 605 OFFCURVE",
"844 495 OFFCURVE",
"844 350 CURVE"
);
}
);
width = 1082;
}
);
leftKerningGroup = C;
note = O;
rightKerningGroup = D;
unicode = 004F;
},
{
glyphname = Oslash;
lastChange = "2018-05-07 13:31:44 +0000";
layers = (
{
anchors = (
{
name = bottom;
position = "{368, 0}";
},
{
name = top;
position = "{368, 700}";
}
);
components = (
{
name = O;
transform = "{1, 0, 0, 1, 1, 0}";
}
);
layerId = "3D0525B3-6B2A-4787-8D58-1F6DD6CCA7DC";
paths = (
{
closed = 1;
nodes = (
"103 -33 LINE",
"697 694 LINE",
"629 741 LINE",
"40 20 LINE"
);
}
);
width = 770;
},
{
layerId = "950578AD-3C55-42C9-B412-F732192F54B4";
width = 640;
}
);
note = Oslash;
unicode = 00D8;
},
{
glyphname = OE;
lastChange = "2018-05-07 13:31:44 +0000";
layers = (
{
anchors = (
{
name = bottom;
position = "{492, 0}";
},
{
name = top;
position = "{492, 700}";
}
);
layerId = "3D0525B3-6B2A-4787-8D58-1F6DD6CCA7DC";
paths = (
{
closed = 1;
nodes = (
"167 700 OFFCURVE",
"48 540 OFFCURVE",
"48 350 CURVE SMOOTH",
"48 157 OFFCURVE",
"160 0 OFFCURVE",
"375 0 CURVE SMOOTH",
"952 0 LINE",
"952 0 OFFCURVE",
"952 104 OFFCURVE",
"952 104 CURVE",
"612 104 LINE",
"619 97 LINE",
"619 316 LINE",
"613 307 LINE",
"897 307 LINE",
"897 411 LINE",
"610 411 LINE",
"619 402 LINE",
"619 614 LINE",
"610 596 LINE",
"952 596 LINE",
"952 700 LINE",
"395 700 LINE SMOOTH"
);
},
{
closed = 1;
nodes = (
"552 104 LINE",
"378 104 LINE SMOOTH",
"223 104 OFFCURVE",
"158 214 OFFCURVE",
"158 350 CURVE SMOOTH",
"158 483 OFFCURVE",
"229 596 OFFCURVE",
"398 596 CURVE SMOOTH",
"552 596 LINE",
"511 641 LINE",
"511 57 LINE"
);
}
);
width = 1002;
},
{
layerId = "950578AD-3C55-42C9-B412-F732192F54B4";
width = 640;
}
);
leftMetricsKey = O;
note = OE;
rightMetricsKey = E;
unicode = 0152;
},
{
glyphname = P;
lastChange = "2018-05-07 13:31:44 +0000";
layers = (
{
anchors = (
{
name = bottom;
position = "{321, 0}";
},
{
name = center;
position = "{155, 161}";
},
{
name = top;
position = "{321, 700}";
}
);
layerId = "3D0525B3-6B2A-4787-8D58-1F6DD6CCA7DC";
paths = (
{
closed = 1;
nodes = (
"98 700 LINE",
"98 0 LINE",
"206 0 LINE",
"206 282 LINE",
"198 268 LINE",
"383 268 LINE SMOOTH",
"495 268 OFFCURVE",
"589 364 OFFCURVE",
"589 485 CURVE SMOOTH",
"589 606 OFFCURVE",
"495 700 OFFCURVE",
"383 700 CURVE SMOOTH"
);
},
{
closed = 1;
nodes = (
"197 372 LINE",
"206 358 LINE",
"206 611 LINE",
"197 596 LINE",
"381 596 LINE SMOOTH",
"434 596 OFFCURVE",
"479 547 OFFCURVE",
"479 485 CURVE SMOOTH",
"479 423 OFFCURVE",
"434 372 OFFCURVE",
"381 372 CURVE SMOOTH"
);
}
);
width = 620;
},
{
layerId = "950578AD-3C55-42C9-B412-F732192F54B4";
width = 640;
}
);
leftMetricsKey = H;
note = P;
rightKerningGroup = P;
unicode = 0050;
},
{
glyphname = Thorn;
lastChange = "2018-05-07 13:31:44 +0000";
layers = (
{
anchors = (
{
name = bottom;
position = "{295, 0}";
},
{
name = top;
position = "{295, 700}";
}
);
layerId = "3D0525B3-6B2A-4787-8D58-1F6DD6CCA7DC";
paths = (
{
closed = 1;
nodes = (
"98 700 LINE",
"98 0 LINE",
"206 0 LINE",
"206 700 LINE"
);
},
{
closed = 1;
nodes = (
"198 178 LINE",
"383 178 LINE SMOOTH",
"495 178 OFFCURVE",
"589 274 OFFCURVE",
"589 395 CURVE SMOOTH",
"589 516 OFFCURVE",
"495 610 OFFCURVE",
"383 610 CURVE SMOOTH",
"118 610 LINE",
"147 506 LINE",
"381 506 LINE SMOOTH",
"434 506 OFFCURVE",
"479 457 OFFCURVE",
"479 395 CURVE SMOOTH",
"479 333 OFFCURVE",
"434 282 OFFCURVE",
"381 282 CURVE SMOOTH",
"197 282 LINE"
);
}
);
width = 620;
},
{
layerId = "950578AD-3C55-42C9-B412-F732192F54B4";
width = 640;
}
);
leftMetricsKey = H;
note = Thorn;
rightMetricsKey = P;
unicode = 00DE;
},
{
glyphname = Q;
lastChange = "2018-05-07 13:31:44 +0000";
layers = (
{
anchors = (
{
name = bottom;
position = "{387, 0}";
},
{
name = top;
position = "{387, 700}";
}
);
layerId = "3D0525B3-6B2A-4787-8D58-1F6DD6CCA7DC";
paths = (
{
closed = 1;
nodes = (
"437 296 LINE",
"436 296 OFFCURVE",
"349 237 OFFCURVE",
"348 237 CURVE",
"613 -110 LINE",
"699 -48 LINE"
);
},
{
closed = 1;
nodes = (
"734 553 OFFCURVE",
"591 710 OFFCURVE",
"391 710 CURVE",
"190 710 OFFCURVE",
"48 553 OFFCURVE",
"48 350 CURVE",
"48 147 OFFCURVE",
"190 -10 OFFCURVE",
"391 -10 CURVE",
"591 -10 OFFCURVE",
"734 147 OFFCURVE",
"734 350 CURVE"
);
},
{
closed = 1;
nodes = (
"624 205 OFFCURVE",
"527 95 OFFCURVE",
"391 95 CURVE SMOOTH",
"253 95 OFFCURVE",
"158 204 OFFCURVE",
"158 350 CURVE",
"158 496 OFFCURVE",
"253 605 OFFCURVE",
"391 605 CURVE SMOOTH",
"527 605 OFFCURVE",
"624 495 OFFCURVE",
"624 350 CURVE"
);
}
);
width = 768;
},
{
layerId = "950578AD-3C55-42C9-B412-F732192F54B4";
width = 640;
}
);
leftKerningGroup = C;
leftMetricsKey = O;
note = Q;
rightKerningGroup = D;
unicode = 0051;
},
{
glyphname = R;
lastChange = "2018-05-07 13:31:44 +0000";
layers = (
{
anchors = (
{
name = bottom;
position = "{365, 0}";
},
{
name = top;
position = "{325, 700}";
}
);
layerId = "3D0525B3-6B2A-4787-8D58-1F6DD6CCA7DC";
paths = (
{
closed = 1;
nodes = (
"520 263 OFFCURVE",
"617 365 OFFCURVE",
"617 477 CURVE",
"617 614 OFFCURVE",
"505 700 OFFCURVE",
"396 700 CURVE",
"98 700 LINE",
"98 0 LINE",
"206 0 LINE",
"206 630 LINE",
"196 596 LINE",
"378 596 LINE",
"448 596 OFFCURVE",
"507 551 OFFCURVE",
"507 478 CURVE",
"507 421 OFFCURVE",
"470 367 OFFCURVE",
"406 367 CURVE",
"193 367 LINE",
"193 263 LINE",
"396 263 LINE"
);
},
{
closed = 1;
nodes = (
"336 316 LINE",
"514 0 LINE",
"645 -1 LINE",
"447 341 LINE"
);
}
);
width = 695;
},
{
layerId = "950578AD-3C55-42C9-B412-F732192F54B4";
width = 640;
}
);
leftMetricsKey = H;
note = R;
rightKerningGroup = R;
unicode = 0052;
},
{
glyphname = S;
lastChange = "2018-05-07 13:31:44 +0000";
layers = (
{
anchors = (
{
name = bottom;
position = "{321, 0}";
},
{
name = top;
position = "{321, 700}";
}
);
layerId = "3D0525B3-6B2A-4787-8D58-1F6DD6CCA7DC";
paths = (
{
closed = 1;
nodes = (
"50 126 LINE",
"116 30 OFFCURVE",
"206 -10 OFFCURVE",
"314 -10 CURVE SMOOTH",
"455 -10 OFFCURVE",
"569 75 OFFCURVE",
"569 200 CURVE",
"569 320 OFFCURVE",
"455 380 OFFCURVE",
"337 405 CURVE SMOOTH",
"250 423 OFFCURVE",
"193 449 OFFCURVE",
"193 517 CURVE",
"193 577 OFFCURVE",
"249 613 OFFCURVE",
"323 613 CURVE",
"396 613 OFFCURVE",
"451 572 OFFCURVE",
"487 512 CURVE",
"563 587 LINE",
"517 666 OFFCURVE",
"436 710 OFFCURVE",
"326 710 CURVE",
"198 710 OFFCURVE",
"85 634 OFFCURVE",
"85 514 CURVE",
"85 389 OFFCURVE",
"168 327 OFFCURVE",
"299 301 CURVE SMOOTH",
"401 281 OFFCURVE",
"461 246 OFFCURVE",
"461 180 CURVE",
"461 121 OFFCURVE",
"393 87 OFFCURVE",
"325 87 CURVE SMOOTH",
"230 87 OFFCURVE",
"179 132 OFFCURVE",
"124 211 CURVE"
);
}
);
width = 619;
},
{
layerId = "950578AD-3C55-42C9-B412-F732192F54B4";
paths = (
{
closed = 1;
nodes = (
"128 126 LINE",
"212 30 OFFCURVE",
"325 -10 OFFCURVE",
"462 -10 CURVE SMOOTH",
"662 -10 OFFCURVE",
"787 75 OFFCURVE",
"787 200 CURVE",
"787 329 OFFCURVE",
"641 376 OFFCURVE",
"485 396 CURVE SMOOTH",
"356 414 OFFCURVE",
"271 434 OFFCURVE",
"271 517 CURVE",
"271 577 OFFCURVE",
"357 613 OFFCURVE",
"471 613 CURVE",
"575 613 OFFCURVE",
"654 572 OFFCURVE",
"705 512 CURVE",
"781 587 LINE",
"721 666 OFFCURVE",
"616 710 OFFCURVE",
"474 710 CURVE",
"299 710 OFFCURVE",
"163 634 OFFCURVE",
"163 503 CURVE SMOOTH",
"163 373 OFFCURVE",
"273 318 OFFCURVE",
"447 292 CURVE SMOOTH",
"594 272 OFFCURVE",
"679 248 OFFCURVE",
"679 180 CURVE",
"679 121 OFFCURVE",
"576 87 OFFCURVE",
"473 87 CURVE SMOOTH",
"345 87 OFFCURVE",
"276 132 OFFCURVE",
"202 211 CURVE"
);
}
);
width = 915;
}
);
leftKerningGroup = S;
note = S;
rightKerningGroup = S;
unicode = 0053;
},
{
glyphname = Germandbls;
lastChange = "2018-05-07 13:31:44 +0000";
layers = (
{
layerId = "3D0525B3-6B2A-4787-8D58-1F6DD6CCA7DC";
paths = (
{
closed = 1;
nodes = (
"608 -9 OFFCURVE",
"707 78 OFFCURVE",
"707 184 CURVE SMOOTH",
"707 318 OFFCURVE",
"618 354 OFFCURVE",
"545 384 CURVE SMOOTH",
"491 407 OFFCURVE",
"445 433 OFFCURVE",
"445 486 CURVE SMOOTH",
"445 545 OFFCURVE",
"496 566 OFFCURVE",
"641 599 CURVE",
"651 672 LINE",
"560 708 OFFCURVE",
"492 726 OFFCURVE",
"407 726 CURVE SMOOTH",
"207 726 OFFCURVE",
"100 584 OFFCURVE",
"99 420 CURVE SMOOTH",
"98 1 LINE",
"206 1 LINE",
"208 433 LINE SMOOTH",
"209 558 OFFCURVE",
"291 634 OFFCURVE",
"417 632 CURVE",
"504 634 OFFCURVE",
"542 625 OFFCURVE",
"591 595 CURVE",
"541 643 LINE",
"438 634 OFFCURVE",
"338 582 OFFCURVE",
"338 460 CURVE SMOOTH",
"338 362 OFFCURVE",
"403 322 OFFCURVE",
"469 291 CURVE SMOOTH",
"535 260 OFFCURVE",
"601 239 OFFCURVE",
"602 171 CURVE SMOOTH",
"602 119 OFFCURVE",
"559 87 OFFCURVE",
"489 87 CURVE SMOOTH",
"443 87 OFFCURVE",
"393 118 OFFCURVE",
"362 155 CURVE",
"295 75 LINE",
"339 19 OFFCURVE",
"421 -11 OFFCURVE",
"493 -10 CURVE SMOOTH"
);
}
);
width = 757;
},
{
layerId = "950578AD-3C55-42C9-B412-F732192F54B4";
width = 640;
}
);
leftMetricsKey = H;
rightMetricsKey = S;
unicode = 1E9E;
},
{
glyphname = Schwa;
lastChange = "2018-05-07 13:31:44 +0000";
layers = (
{
layerId = "3D0525B3-6B2A-4787-8D58-1F6DD6CCA7DC";
paths = (
{
closed = 1;
nodes = (
"578 -10 OFFCURVE",
"732 151 OFFCURVE",
"732 350 CURVE SMOOTH",
"732 549 OFFCURVE",
"576 710 OFFCURVE",
"387 710 CURVE SMOOTH",
"275 710 OFFCURVE",
"192 681 OFFCURVE",
"116 606 CURVE",
"184 536 LINE",
"243 592 OFFCURVE",
"309 613 OFFCURVE",
"387 613 CURVE SMOOTH",
"519 613 OFFCURVE",
"629 526 OFFCURVE",
"629 351 CURVE SMOOTH",
"629 186 OFFCURVE",
"521 87 OFFCURVE",
"390 87 CURVE SMOOTH",
"273 87 OFFCURVE",
"172 177 OFFCURVE",
"152 296 CURVE",
"695 296 LINE",
"686 393 LINE",
"48 393 LINE",
"48 313 LINE",
"58 118 OFFCURVE",
"219 -10 OFFCURVE",
"390 -10 CURVE SMOOTH"
);
}
);
width = 780;
},
{
layerId = "950578AD-3C55-42C9-B412-F732192F54B4";
width = 640;
}
);
leftMetricsKey = O;
rightMetricsKey = O;
unicode = 018F;
},
{
glyphname = T;
lastChange = "2018-05-07 13:31:44 +0000";
layers = (
{
anchors = (
{
name = bottom;
position = "{288, 0}";
},
{
name = center;
position = "{288, 350}";
},
{
name = top;
position = "{288, 700}";
}
);
layerId = "3D0525B3-6B2A-4787-8D58-1F6DD6CCA7DC";
paths = (
{
closed = 1;
nodes = (
"339 0 LINE",
"339 651 LINE",
"231 651 LINE",
"231 0 LINE"
);
},
{
closed = 1;
nodes = (
"541 596 LINE",
"541 700 LINE",
"35 700 LINE",
"35 596 LINE"
);
}
);
width = 576;
},
{
layerId = "950578AD-3C55-42C9-B412-F732192F54B4";
paths = (
{
closed = 1;
nodes = (
"474 0 LINE",
"474 651 LINE",
"366 651 LINE",
"366 0 LINE"
);
},
{
closed = 1;
nodes = (
"746 596 LINE",
"746 700 LINE",
"100 700 LINE",
"100 596 LINE"
);
}
);
width = 846;
}
);
leftKerningGroup = T;
note = T;
rightKerningGroup = T;
unicode = 0054;
},
{
glyphname = U;
lastChange = "2018-05-07 13:31:44 +0000";
layers = (
{
anchors = (
{
name = bottom;
position = "{380, 0}";
},
{
name = ogonek;
position = "{663, 10}";
},
{
name = top;
position = "{380, 700}";
},
{
name = topright;
position = "{522, 708}";
}
);
layerId = "3D0525B3-6B2A-4787-8D58-1F6DD6CCA7DC";
paths = (
{
closed = 1;
nodes = (
"559 701 LINE",
"559 278 LINE",
"559 173 OFFCURVE",
"476 98 OFFCURVE",
"380 98 CURVE",
"289 98 OFFCURVE",
"206 173 OFFCURVE",
"206 278 CURVE",
"206 701 LINE",
"98 701 LINE",
"98 269 LINE",
"98 110 OFFCURVE",
"217 -6 OFFCURVE",
"380 -6 CURVE",
"543 -6 OFFCURVE",
"662 110 OFFCURVE",
"662 269 CURVE",
"662 701 LINE"
);
}
);
width = 760;
},
{
layerId = "950578AD-3C55-42C9-B412-F732192F54B4";
width = 640;
}
);
leftKerningGroup = U;
leftMetricsKey = H;
note = U;
rightKerningGroup = U;
rightMetricsKey = H;
unicode = 0055;
},
{
glyphname = Uogonek;
lastChange = "2018-05-07 13:31:44 +0000";
layers = (
{
anchors = (
{
name = _ogonek;
position = "{601, 10}";
},
{
name = bottom;
position = "{354, 0}";
},
{
name = ogonek;
position = "{637, 10}";
},
{
name = top;
position = "{354, 700}";
},
{
name = topright;
position = "{688, 700}";
}
);
layerId = "3D0525B3-6B2A-4787-8D58-1F6DD6CCA7DC";
paths = (
{
closed = 1;
nodes = (
"82 129 OFFCURVE",
"191 -18 OFFCURVE",
"364 -18 CURVE SMOOTH",
"385 -18 OFFCURVE",
"428 0 OFFCURVE",
"451 52 CURVE",
"364 25 OFFCURVE",
"312 -21 OFFCURVE",
"312 -87 CURVE SMOOTH",
"312 -157 OFFCURVE",
"366 -201 OFFCURVE",
"421 -201 CURVE SMOOTH",
"475 -201 OFFCURVE",
"519 -167 OFFCURVE",
"530 -139 CURVE",
"474 -99 LINE",
"466 -112 OFFCURVE",
"454 -124 OFFCURVE",
"437 -124 CURVE SMOOTH",
"410 -124 OFFCURVE",
"393 -109 OFFCURVE",
"393 -75 CURVE SMOOTH",
"393 -49 OFFCURVE",
"420 -14 OFFCURVE",
"475 8 CURVE SMOOTH",
"558 46 OFFCURVE",
"646 129 OFFCURVE",
"646 269 CURVE SMOOTH",
"646 701 LINE",
"543 701 LINE",
"543 278 LINE SMOOTH",
"543 167 OFFCURVE",
"460 88 OFFCURVE",
"364 88 CURVE SMOOTH",
"273 88 OFFCURVE",
"190 167 OFFCURVE",
"190 278 CURVE SMOOTH",
"190 701 LINE",
"82 701 LINE",
"82 269 LINE SMOOTH"
);
}
);
width = 728;
},
{
layerId = "950578AD-3C55-42C9-B412-F732192F54B4";
width = 640;
}
);
leftKerningGroup = U;
rightKerningGroup = U;
unicode = 0172;
},
{
glyphname = V;
lastChange = "2018-05-07 15:27:14 +0000";
layers = (
{
anchors = (
{
name = bottom;
position = "{357, 0}";
},
{
name = top;
position = "{357, 700}";
}
);
layerId = "3D0525B3-6B2A-4787-8D58-1F6DD6CCA7DC";
paths = (
{
closed = 1;
nodes = (
"565 700 LINE",
"410 275 LINE",
"388 216 OFFCURVE",
"367 157 OFFCURVE",
"351 98 CURVE",
"377 99 LINE",
"359 158 OFFCURVE",
"337 216 OFFCURVE",
"314 275 CURVE",
"147 700 LINE",
"24 700 LINE",
"304 0 LINE",
"409 0 LINE",
"691 700 LINE"
);
}
);
width = 715;
},
{
layerId = "950578AD-3C55-42C9-B412-F732192F54B4";
paths = (
{
closed = 1;
nodes = (
"481 87 LINE",
"459 151 OFFCURVE",
"422 217 OFFCURVE",
"393 283 CURVE SMOOTH",
"206 700 LINE",
"92 700 LINE",
"405 0 LINE",
"535 0 LINE",
"840 700 LINE",
"725 700 LINE",
"552 281 LINE SMOOTH",
"525 215 OFFCURVE",
"493 151 OFFCURVE",
"469 86 CURVE"
);
}
);
width = 932;
}
);
leftKerningGroup = V;
note = V;
rightKerningGroup = V;
unicode = 0056;
},
{
glyphname = W;
lastChange = "2018-05-02 17:21:26 +0000";
layers = (
{
anchors = (
{
name = bottom;
position = "{497, 0}";
},
{
name = top;
position = "{497, 700}";
}
);
layerId = "3D0525B3-6B2A-4787-8D58-1F6DD6CCA7DC";
paths = (
{
closed = 1;
nodes = (
"856 700 LINE",
"688 152 LINE",
"708 159 LINE",
"538 559 LINE",
"454 559 LINE",
"284 150 LINE",
"308 149 LINE",
"139 700 LINE",
"24 700 LINE",
"247 0 LINE",
"320 0 LINE",
"495 407 LINE",
"486 411 LINE",
"674 0 LINE",
"749 0 LINE",
"972 700 LINE"
);
}
);
width = 996;
},
{
layerId = "950578AD-3C55-42C9-B412-F732192F54B4";
width = 600;
}
);
leftKerningGroup = W;
leftMetricsKey = V;
note = W;
rightKerningGroup = W;
rightMetricsKey = V;
unicode = 0057;
},
{
glyphname = X;
lastChange = "2018-05-02 18:06:32 +0000";
layers = (
{
anchors = (
{
name = bottom;
position = "{342, 0}";
},
{
name = top;
position = "{342, 700}";
}
);
layerId = "3D0525B3-6B2A-4787-8D58-1F6DD6CCA7DC";
paths = (
{
closed = 1;
nodes = (
"525 700 LINE",
"329 401 LINE",
"395 325 LINE",
"652 700 LINE"
);
},
{
closed = 1;
nodes = (
"30 700 LINE",
"525 0 LINE",
"663 0 LINE",
"167 700 LINE"
);
},
{
closed = 1;
nodes = (
"152 0 LINE",
"359 302 LINE",
"292 381 LINE",
"25 0 LINE"
);
}
);
width = 688;
},
{
layerId = "950578AD-3C55-42C9-B412-F732192F54B4";
width = 600;
}
);
leftKerningGroup = X;
note = X;
rightKerningGroup = X;
unicode = 0058;
},
{
glyphname = Y;
lastChange = "2018-05-02 17:21:57 +0000";
layers = (
{
anchors = (
{
name = bottom;
position = "{349, -1}";
},
{
name = top;
position = "{345, 700}";
},
{
name = topleft;
position = "{74, 700}";
}
);
layerId = "3D0525B3-6B2A-4787-8D58-1F6DD6CCA7DC";
paths = (
{
closed = 1;
nodes = (
"540 700 LINE",
"351 403 LINE",
"364 400 LINE",
"154 700 LINE",
"24 700 LINE",
"307 320 LINE",
"300 349 LINE",
"300 0 LINE",
"408 0 LINE",
"408 357 LINE",
"393 299 LINE",
"664 700 LINE"
);
}
);
width = 688;
},
{
layerId = "950578AD-3C55-42C9-B412-F732192F54B4";
width = 600;
}
);
leftKerningGroup = Y;
leftMetricsKey = V;
note = Y;
rightKerningGroup = Y;
rightMetricsKey = V;
unicode = 0059;
},
{
glyphname = Z;
lastChange = "2018-05-01 19:44:14 +0000";
layers = (
{
anchors = (
{
name = bottom;
position = "{320, 0}";
},
{
name = top;
position = "{320, 700}";
}
);
layerId = "3D0525B3-6B2A-4787-8D58-1F6DD6CCA7DC";
paths = (
{
closed = 1;
nodes = (
"76 700 LINE",
"76 596 LINE",
"464 596 LINE",
"455 613 LINE",
"50 79 LINE",
"50 0 LINE",
"594 0 LINE",
"594 104 LINE",
"170 104 LINE",
"178 87 LINE",
"583 622 LINE",
"583 700 LINE"
);
}
);
width = 644;
},
{
layerId = "950578AD-3C55-42C9-B412-F732192F54B4";
width = 600;
}
);
leftKerningGroup = Z;
note = Z;
rightKerningGroup = Z;
unicode = 005A;
},
{
glyphname = a;
lastChange = "2018-05-07 13:31:26 +0000";
layers = (
{
anchors = (
{
name = bottom;
position = "{311, -20}";
},
{
name = ogonek;
position = "{560, 3}";
},
{
name = top;
position = "{307, 530}";
}
);
layerId = "3D0525B3-6B2A-4787-8D58-1F6DD6CCA7DC";
paths = (
{
closed = 1;
nodes = (
"457 525 LINE",
"457 389 LINE",
"487 391 LINE",
"487 452 OFFCURVE",
"400 536 OFFCURVE",
"284 536 CURVE",
"146 536 OFFCURVE",
"38 424 OFFCURVE",
"38 264 CURVE",
"38 104 OFFCURVE",
"145 -10 OFFCURVE",
"287 -10 CURVE",
"394 -10 OFFCURVE",
"477 73 OFFCURVE",
"477 122 CURVE",
"457 125 LINE",
"457 0 LINE",
"561 0 LINE",
"561 525 LINE"
);
},
{
closed = 1;
nodes = (
"208 85 OFFCURVE",
"143 161 OFFCURVE",
"143 264 CURVE",
"143 366 OFFCURVE",
"208 441 OFFCURVE",
"301 441 CURVE",
"396 441 OFFCURVE",
"461 364 OFFCURVE",
"461 264 CURVE",
"461 161 OFFCURVE",
"396 85 OFFCURVE",
"301 85 CURVE"
);
}
);
width = 633;
},
{
layerId = "950578AD-3C55-42C9-B412-F732192F54B4";
paths = (
{
closed = 1;
nodes = (
"681 525 LINE",
"681 389 LINE",
"711 411 LINE",
"711 464 OFFCURVE",
"593 536 OFFCURVE",
"438 536 CURVE",
"250 536 OFFCURVE",
"120 423 OFFCURVE",
"120 263 CURVE",
"120 104 OFFCURVE",
"241 -10 OFFCURVE",
"421 -10 CURVE",
"578 -10 OFFCURVE",
"701 74 OFFCURVE",
"701 125 CURVE",
"681 125 LINE",
"681 0 LINE",
"784 0 LINE",
"784 525 LINE"
);
},
{
closed = 1;
nodes = (
"320 79 OFFCURVE",
"225 158 OFFCURVE",
"225 263 CURVE",
"225 368 OFFCURVE",
"320 447 OFFCURVE",
"455 447 CURVE",
"592 447 OFFCURVE",
"685 368 OFFCURVE",
"685 263 CURVE",
"685 158 OFFCURVE",
"592 79 OFFCURVE",
"455 79 CURVE"
);
}
);
width = 984;
}
);
leftKerningGroup = a;
note = a;
rightKerningGroup = a;
unicode = 0061;
},
{
glyphname = aogonek;
lastChange = "2018-05-02 18:29:03 +0000";
layers = (
{
anchors = (
{
name = _ogonek;
position = "{566, 3}";
},
{
name = bottom;
position = "{314, 0}";
},
{
name = ogonek;
position = "{557, 3}";
},
{
name = top;
position = "{314, 510}";
}
);
layerId = "3D0525B3-6B2A-4787-8D58-1F6DD6CCA7DC";
paths = (
{
closed = 1;
nodes = (
"427 10 OFFCURVE",
"333 -43 OFFCURVE",
"333 -114 CURVE SMOOTH",
"333 -178 OFFCURVE",
"386 -221 OFFCURVE",
"453 -221 CURVE SMOOTH",
"501 -221 OFFCURVE",
"543 -200 OFFCURVE",
"577 -177 CURVE",
"538 -118 LINE",
"517 -133 OFFCURVE",
"493 -144 OFFCURVE",
"473 -144 CURVE SMOOTH",
"446 -144 OFFCURVE",
"426 -123 OFFCURVE",
"426 -100 CURVE SMOOTH",
"426 -63 OFFCURVE",
"496 -26 OFFCURVE",
"561 0 CURVE",
"561 525 LINE",
"457 525 LINE",
"457 389 LINE",
"487 391 LINE",
"487 452 OFFCURVE",
"400 536 OFFCURVE",
"284 536 CURVE",
"146 536 OFFCURVE",
"38 424 OFFCURVE",
"38 264 CURVE",
"38 104 OFFCURVE",
"145 -10 OFFCURVE",
"287 -10 CURVE",
"394 -10 OFFCURVE",
"477 73 OFFCURVE",
"477 122 CURVE",
"457 125 LINE",
"457 0 LINE",
"508 52 LINE"
);
},
{
closed = 1;
nodes = (
"208 85 OFFCURVE",
"143 161 OFFCURVE",
"143 264 CURVE",
"143 366 OFFCURVE",
"208 441 OFFCURVE",
"301 441 CURVE",
"396 441 OFFCURVE",
"461 364 OFFCURVE",
"461 264 CURVE",
"461 161 OFFCURVE",
"396 85 OFFCURVE",
"301 85 CURVE"
);
}
);
width = 620;
},
{
layerId = "950578AD-3C55-42C9-B412-F732192F54B4";
width = 600;
}
);
leftKerningGroup = a;
leftMetricsKey = a;
note = aogonek;
rightKerningGroup = a;
unicode = 0105;
},
{
glyphname = ae;
lastChange = "2018-05-01 19:44:14 +0000";
layers = (
{
anchors = (
{
name = bottom;
position = "{402, 0}";
},
{
name = ogonek;
position = "{841, 10}";
},
{
name = top;
position = "{444, 515}";
}
);
layerId = "3D0525B3-6B2A-4787-8D58-1F6DD6CCA7DC";
paths = (
{
closed = 1;
nodes = (
"154 536 OFFCURVE",
"84 482 OFFCURVE",
"43 435 CURVE",
"110 373 LINE",
"141 413 OFFCURVE",
"184 447 OFFCURVE",
"254 447 CURVE",
"299 447 OFFCURVE",
"365 435 OFFCURVE",
"365 356 CURVE",
"365 257 LINE",
"458 263 LINE",
"458 388 LINE",
"458 502 OFFCURVE",
"350 536 OFFCURVE",
"256 536 CURVE"
);
},
{
closed = 1;
nodes = (
"548 84 OFFCURVE",
"458 151 OFFCURVE",
"458 264 CURVE",
"458 399 OFFCURVE",
"532 441 OFFCURVE",
"613 441 CURVE",
"678 441 OFFCURVE",
"739 394 OFFCURVE",
"746 326 CURVE",
"746 302 LINE",
"761 319 LINE",
"266 319 LINE SMOOTH",
"100 320 OFFCURVE",
"30 253 OFFCURVE",
"30 149 CURVE",
"30 39 OFFCURVE",
"124 -10 OFFCURVE",
"208 -10 CURVE",
"316 -10 OFFCURVE",
"391 61 OFFCURVE",
"422 107 CURVE",
"378 174 LINE",
"358 135 OFFCURVE",
"301 78 OFFCURVE",
"212 78 CURVE",
"171 78 OFFCURVE",
"127 100 OFFCURVE",
"127 151 CURVE",
"127 197 OFFCURVE",
"159 237 OFFCURVE",
"253 237 CURVE SMOOTH",
"850 237 LINE",
"851 281 LINE",
"851 432 OFFCURVE",
"745 535 OFFCURVE",
"613 536 CURVE SMOOTH",
"485 536 OFFCURVE",
"365 433 OFFCURVE",
"365 257 CURVE",
"365 102 OFFCURVE",
"471 -10 OFFCURVE",
"636 -10 CURVE SMOOTH",
"717 -10 OFFCURVE",
"798 28 OFFCURVE",
"841 69 CURVE",
"841 69 OFFCURVE",
"841 69 OFFCURVE",
"842 69 CURVE",
"791 144 LINE",
"761 118 OFFCURVE",
"719 84 OFFCURVE",
"646 84 CURVE SMOOTH"
);
}
);
width = 891;
},
{
layerId = "950578AD-3C55-42C9-B412-F732192F54B4";
width = 600;
}
);
note = ae;
rightMetricsKey = e;
unicode = 00E6;
},
{
glyphname = b;
lastChange = "2018-05-02 18:29:03 +0000";
layers = (
{
anchors = (
{
name = bottom;
position = "{316, 0}";
},
{
name = top;
position = "{316, 510}";
}
);
layerId = "3D0525B3-6B2A-4787-8D58-1F6DD6CCA7DC";
paths = (
{
closed = 1;
nodes = (
"251 536 OFFCURVE",
"170 466 OFFCURVE",
"159 414 CURVE",
"175 405 LINE",
"175 740 LINE",
"72 740 LINE",
"72 3 LINE",
"175 3 LINE",
"175 131 LINE",
"149 117 LINE",
"161 65 OFFCURVE",
"244 -10 OFFCURVE",
"348 -10 CURVE",
"484 -10 OFFCURVE",
"590 104 OFFCURVE",
"590 264 CURVE",
"590 424 OFFCURVE",
"485 536 OFFCURVE",
"345 536 CURVE"
);
},
{
closed = 1;
nodes = (
"425 442 OFFCURVE",
"491 366 OFFCURVE",
"491 264 CURVE",
"491 162 OFFCURVE",
"425 84 OFFCURVE",
"331 84 CURVE",
"236 84 OFFCURVE",
"170 162 OFFCURVE",
"170 264 CURVE",
"170 366 OFFCURVE",
"236 442 OFFCURVE",
"331 442 CURVE"
);
}
);
width = 630;
},
{
layerId = "950578AD-3C55-42C9-B412-F732192F54B4";
width = 600;
}
);
leftKerningGroup = b;
leftMetricsKey = n;
note = b;
rightKerningGroup = b;
rightMetricsKey = o;
unicode = 0062;
},
{
glyphname = c;
lastChange = "2018-05-02 17:17:31 +0000";
layers = (
{
anchors = (
{
name = bottom;
position = "{259, 0}";
},
{
name = top;
position = "{299, 530}";
}
);
layerId = "3D0525B3-6B2A-4787-8D58-1F6DD6CCA7DC";
paths = (
{
closed = 1;
nodes = (
"138 367 OFFCURVE",
"210 443 OFFCURVE",
"305 443 CURVE SMOOTH",
"358 443 OFFCURVE",
"422 405 OFFCURVE",
"453 360 CURVE",
"510 430 LINE",
"472 493 OFFCURVE",
"392 536 OFFCURVE",
"295 536 CURVE",
"150 536 OFFCURVE",
"40 418 OFFCURVE",
"40 263 CURVE SMOOTH",
"40 108 OFFCURVE",
"150 -10 OFFCURVE",
"295 -10 CURVE",
"387 -10 OFFCURVE",
"471 38 OFFCURVE",
"510 93 CURVE",
"453 163 LINE",
"422 125 OFFCURVE",
"373 83 OFFCURVE",
"306 83 CURVE",
"217 83 OFFCURVE",
"138 159 OFFCURVE",
"138 263 CURVE SMOOTH"
);
}
);
width = 535;
},
{
layerId = "950578AD-3C55-42C9-B412-F732192F54B4";
width = 600;
}
);
leftKerningGroup = c;
leftMetricsKey = o;
note = c;
rightKerningGroup = c;
unicode = 0063;
},
{
glyphname = d;
lastChange = "2018-05-07 13:31:26 +0000";
layers = (
{
anchors = (
{
name = bottom;
position = "{321, -20}";
},
{
name = center;
position = "{486, 614}";
},
{
name = top;
position = "{321, 530}";
},
{
name = topright;
position = "{608, 510}";
}
);
layerId = "3D0525B3-6B2A-4787-8D58-1F6DD6CCA7DC";
paths = (
{
closed = 1;
nodes = (
"461 740 LINE",
"461 389 LINE",
"491 391 LINE",
"491 452 OFFCURVE",
"403 536 OFFCURVE",
"288 536 CURVE",
"149 536 OFFCURVE",
"40 423 OFFCURVE",
"40 263 CURVE",
"40 104 OFFCURVE",
"149 -10 OFFCURVE",
"291 -10 CURVE",
"398 -10 OFFCURVE",
"481 74 OFFCURVE",
"481 125 CURVE",
"461 125 LINE",
"461 0 LINE",
"564 0 LINE",
"564 740 LINE"
);
},
{
closed = 1;
nodes = (
"211 79 OFFCURVE",
"145 158 OFFCURVE",
"145 263 CURVE",
"145 368 OFFCURVE",
"211 447 OFFCURVE",
"305 447 CURVE",
"400 447 OFFCURVE",
"465 368 OFFCURVE",
"465 263 CURVE",
"465 158 OFFCURVE",
"400 79 OFFCURVE",
"305 79 CURVE"
);
}
);
width = 634;
},
{
layerId = "950578AD-3C55-42C9-B412-F732192F54B4";
paths = (
{
closed = 1;
nodes = (
"681 740 LINE",
"681 389 LINE",
"711 411 LINE",
"711 464 OFFCURVE",
"593 536 OFFCURVE",
"438 536 CURVE",
"250 536 OFFCURVE",
"120 423 OFFCURVE",
"120 263 CURVE",
"120 104 OFFCURVE",
"241 -10 OFFCURVE",
"421 -10 CURVE",
"579 -10 OFFCURVE",
"701 74 OFFCURVE",
"701 125 CURVE",
"681 125 LINE",
"681 0 LINE",
"784 0 LINE",
"784 740 LINE"
);
},
{
closed = 1;
nodes = (
"320 79 OFFCURVE",
"225 158 OFFCURVE",
"225 263 CURVE",
"225 368 OFFCURVE",
"320 447 OFFCURVE",
"455 447 CURVE",
"592 447 OFFCURVE",
"685 368 OFFCURVE",
"685 263 CURVE",
"685 158 OFFCURVE",
"592 79 OFFCURVE",
"455 79 CURVE"
);
}
);
width = 964;
}
);
leftKerningGroup = c;
leftMetricsKey = o;
note = d;
rightKerningGroup = d;
unicode = 0064;
},
{
glyphname = eth;
lastChange = "2018-05-01 19:44:14 +0000";
layers = (
{
layerId = "3D0525B3-6B2A-4787-8D58-1F6DD6CCA7DC";
paths = (
{
closed = 1;
nodes = (
"424 -7 OFFCURVE",
"534 102 OFFCURVE",
"534 281 CURVE",
"534 598 OFFCURVE",
"333 710 OFFCURVE",
"211 740 CURVE",
"169 662 LINE",
"346 609 OFFCURVE",
"410 530 OFFCURVE",
"418 379 CURVE",
"468 348 LINE",
"449 447 OFFCURVE",
"384 528 OFFCURVE",
"275 528 CURVE",
"156 528 OFFCURVE",
"40 411 OFFCURVE",
"40 262 CURVE",
"40 112 OFFCURVE",
"149 -7 OFFCURVE",
"287 -7 CURVE"
);
},
{
closed = 1;
nodes = (
"203 89 OFFCURVE",
"137 165 OFFCURVE",
"137 262 CURVE",
"137 358 OFFCURVE",
"203 432 OFFCURVE",
"287 432 CURVE",
"372 432 OFFCURVE",
"437 355 OFFCURVE",
"437 262 CURVE",
"437 165 OFFCURVE",
"371 89 OFFCURVE",
"287 89 CURVE"
);
},
{
closed = 1;
nodes = (
"353 574 LINE",
"394 591 LINE",
"507 617 LINE",
"489 683 LINE",
"343 650 LINE",
"288 630 LINE",
"143 593 LINE",
"156 528 LINE"
);
}
);
width = 574;
},
{
layerId = "950578AD-3C55-42C9-B412-F732192F54B4";
width = 600;
}
);
leftMetricsKey = o;
note = eth;
rightMetricsKey = o;
unicode = 00F0;
},
{
glyphname = e;
lastChange = "2018-05-07 13:31:26 +0000";
layers = (
{
anchors = (
{
name = bottom;
position = "{292, -20}";
},
{
name = ogonek;
position = "{521, 10}";
},
{
name = top;
position = "{293, 530}";
}
);
layerId = "3D0525B3-6B2A-4787-8D58-1F6DD6CCA7DC";
paths = (
{
closed = 1;
nodes = (
"472 144 LINE",
"442 118 OFFCURVE",
"400 84 OFFCURVE",
"327 84 CURVE",
"217 84 OFFCURVE",
"142 154 OFFCURVE",
"142 264 CURVE",
"142 395 OFFCURVE",
"215 442 OFFCURVE",
"308 442 CURVE",
"373 442 OFFCURVE",
"434 395 OFFCURVE",
"441 327 CURVE",
"441 303 LINE",
"456 320 LINE",
"93 320 LINE",
"116 238 LINE",
"545 238 LINE",
"546 282 LINE",
"546 433 OFFCURVE",
"440 536 OFFCURVE",
"308 537 CURVE",
"163 536 OFFCURVE",
"40 433 OFFCURVE",
"40 257 CURVE",
"40 102 OFFCURVE",
"153 -10 OFFCURVE",
"317 -10 CURVE",
"398 -10 OFFCURVE",
"479 28 OFFCURVE",
"522 69 CURVE",
"522 69 OFFCURVE",
"522 69 OFFCURVE",
"523 69 CURVE"
);
}
);
width = 586;
},
{
layerId = "950578AD-3C55-42C9-B412-F732192F54B4";
paths = (
{
closed = 1;
nodes = (
"692 144 LINE",
"648 118 OFFCURVE",
"585 84 OFFCURVE",
"477 84 CURVE",
"325 84 OFFCURVE",
"222 154 OFFCURVE",
"222 264 CURVE",
"222 395 OFFCURVE",
"326 442 OFFCURVE",
"458 442 CURVE",
"557 442 OFFCURVE",
"650 395 OFFCURVE",
"661 327 CURVE",
"661 303 LINE",
"676 320 LINE",
"173 320 LINE",
"196 238 LINE",
"765 238 LINE",
"766 282 LINE",
"766 433 OFFCURVE",
"629 536 OFFCURVE",
"458 537 CURVE",
"275 536 OFFCURVE",
"120 433 OFFCURVE",
"120 257 CURVE",
"120 102 OFFCURVE",
"262 -10 OFFCURVE",
"467 -10 CURVE",
"576 -10 OFFCURVE",
"684 28 OFFCURVE",
"742 69 CURVE",
"742 69 OFFCURVE",
"742 69 OFFCURVE",
"743 69 CURVE"
);
}
);
width = 911;
}
);
leftKerningGroup = c;
note = e;
rightKerningGroup = e;
unicode = 0065;
},
{
glyphname = eogonek;
lastChange = "2018-05-01 19:44:14 +0000";
layers = (
{
anchors = (
{
name = _ogonek;
position = "{513, 10}";
},
{
name = bottom;
position = "{285, 0}";
},
{
name = ogonek;
position = "{514, 10}";
},
{
name = top;
position = "{291, 510}";
}
);
layerId = "3D0525B3-6B2A-4787-8D58-1F6DD6CCA7DC";
paths = (
{
closed = 1;
nodes = (
"478 27 OFFCURVE",
"522 69 CURVE",
"522 69 OFFCURVE",
"522 69 OFFCURVE",
"523 69 CURVE",
"472 144 LINE",
"442 118 OFFCURVE",
"400 84 OFFCURVE",
"327 84 CURVE",
"217 84 OFFCURVE",
"142 154 OFFCURVE",
"142 264 CURVE",
"142 395 OFFCURVE",
"215 442 OFFCURVE",
"308 442 CURVE",
"373 442 OFFCURVE",
"434 395 OFFCURVE",
"441 327 CURVE",
"441 303 LINE",
"456 320 LINE",
"93 320 LINE",
"116 238 LINE",
"545 238 LINE",
"546 282 LINE",
"546 433 OFFCURVE",
"440 536 OFFCURVE",
"308 537 CURVE",
"163 536 OFFCURVE",
"40 433 OFFCURVE",
"40 257 CURVE",
"40 102 OFFCURVE",
"153 -10 OFFCURVE",
"317 -10 CURVE",
"373 -10 OFFCURVE",
"471 56 OFFCURVE",
"493 95 CURVE",
"412 42 OFFCURVE",
"283 -20 OFFCURVE",
"283 -108 CURVE SMOOTH",
"283 -184 OFFCURVE",
"336 -221 OFFCURVE",
"403 -221 CURVE SMOOTH",
"451 -221 OFFCURVE",
"493 -200 OFFCURVE",
"527 -177 CURVE",
"488 -118 LINE",
"467 -133 OFFCURVE",
"443 -144 OFFCURVE",
"425 -144 CURVE SMOOTH",
"396 -144 OFFCURVE",
"376 -118 OFFCURVE",
"376 -90 CURVE SMOOTH",
"376 -27 OFFCURVE"
);
}
);
width = 571;
},
{
layerId = "950578AD-3C55-42C9-B412-F732192F54B4";
width = 600;
}
);
leftKerningGroup = c;
leftMetricsKey = e;
note = eogonek;
rightKerningGroup = e;
unicode = 0119;
},
{
glyphname = f;
lastChange = "2018-05-01 19:41:22 +0000";
layers = (
{
anchors = (
{
name = bottom;
position = "{197, 0}";
},
{
name = top;
position = "{197, 510}";
}
);
layerId = "3D0525B3-6B2A-4787-8D58-1F6DD6CCA7DC";
paths = (
{
closed = 1;
nodes = (
"357 516 LINE",
"45 516 LINE",
"45 421 LINE",
"357 421 LINE"
);
},
{
closed = 1;
nodes = (
"390 695 LINE",
"374 714 OFFCURVE",
"338 739 OFFCURVE",
"285 739 CURVE SMOOTH",
"193 739 OFFCURVE",
"129 675 OFFCURVE",
"129 584 CURVE SMOOTH",
"129 0 LINE SMOOTH",
"129 0 OFFCURVE",
"233 0 OFFCURVE",
"233 0 CURVE SMOOTH",
"233 584 LINE SMOOTH",
"233 617 OFFCURVE",
"249 653 OFFCURVE",
"297 653 CURVE SMOOTH",
"318 653 OFFCURVE",
"341 639 OFFCURVE",
"355 626 CURVE"
);
}
);
width = 393;
},
{
layerId = "950578AD-3C55-42C9-B412-F732192F54B4";
width = 600;
}
);
leftKerningGroup = f;
note = f;
rightKerningGroup = f;
unicode = 0066;
},
{
glyphname = g;
lastChange = "2018-05-07 13:31:26 +0000";
layers = (
{
anchors = (
{
name = bottom;
position = "{321, 0}";
},
{
name = top;
position = "{321, 535}";
}
);
layerId = "3D0525B3-6B2A-4787-8D58-1F6DD6CCA7DC";
paths = (
{
closed = 1;
nodes = (
"100 -167 LINE",
"145 -204 OFFCURVE",
"226 -230 OFFCURVE",
"301 -230 CURVE",
"445 -230 OFFCURVE",
"571 -156 OFFCURVE",
"571 32 CURVE",
"571 525 LINE",
"468 525 LINE",
"468 402 LINE",
"490 400 LINE",
"490 449 OFFCURVE",
"405 536 OFFCURVE",
"291 536 CURVE",
"150 536 OFFCURVE",
"40 423 OFFCURVE",
"40 263 CURVE",
"40 104 OFFCURVE",
"150 -10 OFFCURVE",
"294 -10 CURVE",
"387 -10 OFFCURVE",
"470 57 OFFCURVE",
"479 114 CURVE",
"468 121 LINE",
"468 20 LINE",
"468 -86 OFFCURVE",
"409 -138 OFFCURVE",
"301 -138 CURVE",
"243 -138 OFFCURVE",
"178 -118 OFFCURVE",
"138 -87 CURVE"
);
},
{
closed = 1;
nodes = (
"404 442 OFFCURVE",
"472 366 OFFCURVE",
"472 263 CURVE",
"472 160 OFFCURVE",
"404 85 OFFCURVE",
"305 85 CURVE",
"208 85 OFFCURVE",
"139 161 OFFCURVE",
"139 263 CURVE",
"139 365 OFFCURVE",
"208 442 OFFCURVE",
"305 442 CURVE"
);
}
);
width = 639;
},
{
layerId = "950578AD-3C55-42C9-B412-F732192F54B4";
paths = (
{
closed = 1;
nodes = (
"250 -167 LINE",
"295 -204 OFFCURVE",
"376 -230 OFFCURVE",
"451 -230 CURVE",
"642 -230 OFFCURVE",
"791 -145 OFFCURVE",
"791 72 CURVE",
"791 525 LINE",
"688 525 LINE",
"688 402 LINE",
"710 410 LINE",
"710 455 OFFCURVE",
"595 536 OFFCURVE",
"441 536 CURVE",
"251 536 OFFCURVE",
"120 423 OFFCURVE",
"120 263 CURVE SMOOTH",
"120 104 OFFCURVE",
"242 -10 OFFCURVE",
"424 -10 CURVE",
"562 -10 OFFCURVE",
"686 57 OFFCURVE",
"699 114 CURVE",
"688 121 LINE",
"688 60 LINE",
"688 -73 OFFCURVE",
"604 -138 OFFCURVE",
"451 -138 CURVE",
"393 -138 OFFCURVE",
"328 -118 OFFCURVE",
"288 -87 CURVE"
);
},
{
closed = 1;
nodes = (
"595 442 OFFCURVE",
"692 366 OFFCURVE",
"692 263 CURVE",
"692 160 OFFCURVE",
"595 85 OFFCURVE",
"455 85 CURVE",
"317 85 OFFCURVE",
"219 161 OFFCURVE",
"219 263 CURVE",
"219 365 OFFCURVE",
"317 442 OFFCURVE",
"455 442 CURVE"
);
}
);
width = 991;
}
);
leftKerningGroup = g;
leftMetricsKey = o;
note = g;
rightKerningGroup = g;
rightMetricsKey = n;
unicode = 0067;
},
{
glyphname = h;
lastChange = "2018-05-07 13:31:26 +0000";
layers = (
{
anchors = (
{
name = bottom;
position = "{292, 0}";
},
{
name = center;
position = "{122, 593}";
},
{
name = top;
position = "{121, 729}";
}
);
layerId = "3D0525B3-6B2A-4787-8D58-1F6DD6CCA7DC";
paths = (
{
closed = 1;
nodes = (
"254 536 OFFCURVE",
"175 466 OFFCURVE",
"157 405 CURVE",
"175 417 LINE",
"175 740 LINE",
"72 740 LINE",
"72 0 LINE",
"72 0 OFFCURVE",
"175 0 OFFCURVE",
"175 0 CURVE",
"175 318 LINE",
"175 386 OFFCURVE",
"233 442 OFFCURVE",
"313 442 CURVE",
"398 447 OFFCURVE",
"424 389 OFFCURVE",
"424 313 CURVE",
"424 0 LINE",
"527 0 LINE",
"527 320 LINE",
"527 439 OFFCURVE",
"488 536 OFFCURVE",
"347 536 CURVE"
);
}
);
width = 595;
},
{
layerId = "950578AD-3C55-42C9-B412-F732192F54B4";
paths = (
{
closed = 1;
nodes = (
"418 536 OFFCURVE",
"310 450 OFFCURVE",
"285 375 CURVE",
"303 377 LINE",
"303 740 LINE",
"200 740 LINE",
"200 0 LINE",
"200 0 OFFCURVE",
"303 0 OFFCURVE",
"303 0 CURVE",
"303 278 LINE",
"303 346 OFFCURVE",
"390 442 OFFCURVE",
"511 442 CURVE",
"610 448 OFFCURVE",
"692 381 OFFCURVE",
"692 293 CURVE",
"692 0 LINE",
"795 0 LINE",
"795 300 LINE",
"795 430 OFFCURVE",
"711 536 OFFCURVE",
"545 536 CURVE"
);
}
);
width = 995;
}
);
leftKerningGroup = b;
leftMetricsKey = n;
note = h;
rightKerningGroup = h;
rightMetricsKey = n;
unicode = 0068;
},
{
glyphname = idotless;
lastChange = "2018-05-07 13:31:26 +0000";
layers = (
{
anchors = (
{
name = bottom;
position = "{124, 0}";
},
{
name = ogonek;
position = "{208, 10}";
},
{
name = top;
position = "{124, 525}";
}
);
layerId = "3D0525B3-6B2A-4787-8D58-1F6DD6CCA7DC";
paths = (
{
closed = 1;
nodes = (
"175 525 LINE",
"72 525 LINE",
"72 0 LINE",
"121 0 LINE",
"175 0 LINE"
);
}
);
width = 243;
},
{
anchors = (
{
name = bottom;
position = "{252, 0}";
},
{
name = ogonek;
position = "{303, 0}";
},
{
name = top;
position = "{252, 525}";
}
);
layerId = "950578AD-3C55-42C9-B412-F732192F54B4";
paths = (
{
closed = 1;
nodes = (
"303 525 LINE",
"200 525 LINE",
"200 0 LINE",
"249 0 LINE",
"303 0 LINE"
);
}
);
width = 503;
}
);
leftMetricsKey = n;
note = dotlessi;
rightMetricsKey = n;
unicode = 0131;
},
{
glyphname = iogonek;
lastChange = "2018-05-01 19:44:14 +0000";
layers = (
{
anchors = (
{
name = _ogonek;
position = "{234, 10}";
},
{
name = bottom;
position = "{151, 0}";
},
{
name = ogonek;
position = "{234, 10}";
},
{
name = top;
position = "{150, 510}";
}
);
components = (
{
name = dotaccentcomb;
transform = "{1, 0, 0, 1, 45, 0}";
}
);
layerId = "3D0525B3-6B2A-4787-8D58-1F6DD6CCA7DC";
paths = (
{
closed = 1;
nodes = (
"145 52 LINE",
"68 10 OFFCURVE",
"0 -43 OFFCURVE",
"0 -114 CURVE SMOOTH",
"0 -178 OFFCURVE",
"53 -221 OFFCURVE",
"120 -221 CURVE SMOOTH",
"164 -221 OFFCURVE",
"203 -200 OFFCURVE",
"234 -177 CURVE",
"195 -118 LINE",
"177 -133 OFFCURVE",
"157 -144 OFFCURVE",
"140 -144 CURVE SMOOTH",
"113 -144 OFFCURVE",
"93 -125 OFFCURVE",
"93 -102 CURVE SMOOTH",
"93 -63 OFFCURVE",
"137 -26 OFFCURVE",
"198 0 CURVE",
"198 525 LINE",
"95 525 LINE",
"95 7 LINE"
);
}
);
width = 289;
},
{
layerId = "950578AD-3C55-42C9-B412-F732192F54B4";
width = 600;
}
);
note = iogonek;
unicode = 012F;
},
{
glyphname = jdotless;
lastChange = "2018-05-01 19:44:14 +0000";
layers = (
{
anchors = (
{
name = bottom;
position = "{151, 0}";
},
{
name = top;
position = "{138, 531}";
}
);
layerId = "3D0525B3-6B2A-4787-8D58-1F6DD6CCA7DC";
paths = (
{
closed = 1;
nodes = (
"188 -131 OFFCURVE",
"188 -24 CURVE SMOOTH",
"188 525 LINE",
"85 525 LINE",
"85 1 LINE SMOOTH",
"85 -73 OFFCURVE",
"50 -118 OFFCURVE",
"-31 -118 CURVE",
"8 -197 LINE",
"110 -197 OFFCURVE"
);
}
);
width = 263;
},
{
layerId = "950578AD-3C55-42C9-B412-F732192F54B4";
width = 600;
}
);
note = dotlessj;
unicode = 0237;
},
{
glyphname = k;
lastChange = "2018-05-01 19:44:14 +0000";
layers = (
{
anchors = (
{
name = bottom;
position = "{280, 0}";
},
{
name = top;
position = "{280, 510}";
}
);
layerId = "3D0525B3-6B2A-4787-8D58-1F6DD6CCA7DC";
paths = (
{
closed = 1;
nodes = (
"178 0 LINE",
"178 740 LINE",
"75 740 LINE",
"75 0 LINE"
);
},
{
closed = 1;
nodes = (
"415 525 LINE",
"164 276 LINE",
"169 164 LINE",
"554 525 LINE"
);
},
{
closed = 1;
nodes = (
"561 0 LINE",
"304 298 LINE",
"231 231 LINE",
"429 0 LINE"
);
}
);
width = 571;
},
{
layerId = "950578AD-3C55-42C9-B412-F732192F54B4";
width = 600;
}
);
leftKerningGroup = b;
leftMetricsKey = l;
note = k;
rightKerningGroup = k;
unicode = 006B;
},
{
glyphname = kgreenlandic;
lastChange = "2018-05-02 18:29:03 +0000";
layers = (
{
anchors = (
{
name = bottom;
position = "{296, 0}";
},
{
name = top;
position = "{296, 510}";
}
);
layerId = "3D0525B3-6B2A-4787-8D58-1F6DD6CCA7DC";
paths = (
{
closed = 1;
nodes = (
"172 0 LINE",
"172 525 LINE",
"75 525 LINE",
"75 0 LINE"
);
},
{
closed = 1;
nodes = (
"409 525 LINE",
"158 256 LINE",
"163 154 LINE",
"530 525 LINE"
);
},
{
closed = 1;
nodes = (
"535 -1 LINE",
"288 319 LINE",
"219 272 LINE",
"412 0 LINE"
);
}
);
width = 557;
},
{
layerId = "950578AD-3C55-42C9-B412-F732192F54B4";
width = 600;
}
);
leftMetricsKey = l;
rightMetricsKey = v;
unicode = 0138;
},
{
glyphname = l;
lastChange = "2018-05-07 13:31:26 +0000";
layers = (
{
anchors = (
{
name = bottom;
position = "{123, 0}";
},
{
name = center;
position = "{123, 289}";
},
{
name = top;
position = "{124, 740}";
},
{
name = topright;
position = "{230, 580}";
}
);
layerId = "3D0525B3-6B2A-4787-8D58-1F6DD6CCA7DC";
paths = (
{
closed = 1;
nodes = (
"178 0 LINE",
"178 740 LINE",
"75 740 LINE",
"75 0 LINE"
);
}
);
width = 253;
},
{
layerId = "950578AD-3C55-42C9-B412-F732192F54B4";
paths = (
{
closed = 1;
nodes = (
"303 0 LINE",
"303 740 LINE",
"200 740 LINE",
"200 0 LINE"
);
}
);
width = 503;
}
);
leftKerningGroup = b;
leftMetricsKey = n;
note = l;
rightKerningGroup = l;
unicode = 006C;
},
{
glyphname = lslash;
lastChange = "2018-05-01 19:41:22 +0000";
layers = (
{
components = (
{
name = l;
transform = "{1, 0, 0, 1, -2, 0}";
}
);
layerId = "3D0525B3-6B2A-4787-8D58-1F6DD6CCA7DC";
paths = (
{
closed = 1;
nodes = (
"31 292 LINE",
"256 394 LINE",
"220 468 LINE",
"-3 369 LINE"
);
}
);
width = 253;
},
{
layerId = "950578AD-3C55-42C9-B412-F732192F54B4";
width = 600;
}
);
note = lslash;
unicode = 0142;
},
{
glyphname = m;
lastChange = "2018-05-07 13:31:26 +0000";
layers = (
{
anchors = (
{
name = bottom;
position = "{466, 0}";
},
{
name = top;
position = "{466, 510}";
}
);
layerId = "3D0525B3-6B2A-4787-8D58-1F6DD6CCA7DC";
paths = (
{
closed = 1;
nodes = (
"246 534 OFFCURVE",
"172 460 OFFCURVE",
"155 401 CURVE",
"174 413 LINE",
"174 525 LINE",
"70 525 LINE",
"70 0 LINE",
"174 0 LINE",
"174 316 LINE",
"174 383 OFFCURVE",
"229 439 OFFCURVE",
"306 439 CURVE",
"379 439 OFFCURVE",
"409 386 OFFCURVE",
"409 311 CURVE",
"409 0 LINE",
"513 0 LINE",
"513 314 LINE",
"513 383 OFFCURVE",
"568 439 OFFCURVE",
"646 439 CURVE",
"727 439 OFFCURVE",
"751 386 OFFCURVE",
"751 309 CURVE",
"751 0 LINE",
"855 0 LINE",
"855 315 LINE",
"855 436 OFFCURVE",
"816 534 OFFCURVE",
"680 534 CURVE",
"596 534 OFFCURVE",
"522 471 OFFCURVE",
"497 420 CURVE",
"490 403 LINE",
"506 399 LINE",
"488 481 OFFCURVE",
"436 534 OFFCURVE",
"339 534 CURVE"
);
}
);
width = 921;
},
{
layerId = "950578AD-3C55-42C9-B412-F732192F54B4";
paths = (
{
closed = 1;
nodes = (
"411 534 OFFCURVE",
"308 440 OFFCURVE",
"285 381 CURVE",
"304 373 LINE",
"304 525 LINE",
"200 525 LINE",
"200 0 LINE",
"304 0 LINE",
"304 276 LINE",
"304 343 OFFCURVE",
"392 439 OFFCURVE",
"516 439 CURVE",
"632 439 OFFCURVE",
"679 378 OFFCURVE",
"679 291 CURVE",
"679 0 LINE",
"783 0 LINE",
"783 254 LINE",
"783 356 OFFCURVE",
"887 439 OFFCURVE",
"1021 439 CURVE",
"1121 439 OFFCURVE",
"1161 378 OFFCURVE",
"1161 289 CURVE",
"1161 0 LINE",
"1265 0 LINE",
"1265 295 LINE",
"1265 427 OFFCURVE",
"1210 534 OFFCURVE",
"1037 534 CURVE",
"904 534 OFFCURVE",
"802 442 OFFCURVE",
"767 394 CURVE",
"760 377 LINE",
"776 359 LINE",
"769 479 OFFCURVE",
"677 534 OFFCURVE",
"567 534 CURVE"
);
}
);
width = 1465;
}
);
leftKerningGroup = m;
note = m;
rightKerningGroup = h;
unicode = 006D;
},
{
glyphname = n;
lastChange = "2018-05-07 13:31:26 +0000";
layers = (
{
anchors = (
{
name = bottom;
position = "{303, 0}";
},
{
name = top;
position = "{303, 510}";
}
);
layerId = "3D0525B3-6B2A-4787-8D58-1F6DD6CCA7DC";
paths = (
{
closed = 1;
nodes = (
"254 536 OFFCURVE",
"175 466 OFFCURVE",
"157 405 CURVE",
"175 417 LINE",
"175 525 LINE",
"72 525 LINE",
"72 0 LINE",
"72 0 OFFCURVE",
"175 0 OFFCURVE",
"175 0 CURVE",
"175 318 LINE",
"175 386 OFFCURVE",
"233 442 OFFCURVE",
"313 442 CURVE",
"398 447 OFFCURVE",
"424 389 OFFCURVE",
"424 313 CURVE",
"424 0 LINE",
"527 0 LINE",
"527 320 LINE",
"527 439 OFFCURVE",
"488 536 OFFCURVE",
"347 536 CURVE"
);
}
);
width = 595;
},
{
layerId = "950578AD-3C55-42C9-B412-F732192F54B4";
paths = (
{
closed = 1;
nodes = (
"418 536 OFFCURVE",
"310 450 OFFCURVE",
"285 375 CURVE",
"303 377 LINE",
"303 525 LINE",
"200 525 LINE",
"200 0 LINE",
"200 0 OFFCURVE",
"303 0 OFFCURVE",
"303 0 CURVE",
"303 278 LINE",
"303 346 OFFCURVE",
"390 442 OFFCURVE",
"511 442 CURVE",
"610 448 OFFCURVE",
"692 381 OFFCURVE",
"692 293 CURVE",
"692 0 LINE",
"795 0 LINE",
"795 300 LINE",
"795 430 OFFCURVE",
"711 536 OFFCURVE",
"545 536 CURVE"
);
}
);
width = 995;
}
);
leftKerningGroup = m;
note = n;
rightKerningGroup = h;
unicode = 006E;
},
{
glyphname = eng;
lastChange = "2018-05-02 18:29:03 +0000";
layers = (
{
anchors = (
{
name = bottom;
position = "{286, 0}";
},
{
name = top;
position = "{295, 510}";
}
);
components = (
{
name = n;
}
);
layerId = "3D0525B3-6B2A-4787-8D58-1F6DD6CCA7DC";
paths = (
{
closed = 1;
nodes = (
"422 -73 OFFCURVE",
"387 -118 OFFCURVE",
"306 -118 CURVE",
"345 -197 LINE",
"447 -197 OFFCURVE",
"525 -131 OFFCURVE",
"525 -24 CURVE SMOOTH",
"525 25 LINE",
"422 1 LINE"
);
}
);
width = 595;
},
{
layerId = "950578AD-3C55-42C9-B412-F732192F54B4";
width = 600;
}
);
leftMetricsKey = n;
note = eng;
rightMetricsKey = n;
unicode = 014B;
},
{
glyphname = nhookleft;
lastChange = "2018-05-02 18:29:03 +0000";
layers = (
{
components = (
{
name = n;
transform = "{1, 0, 0, 1, 15, 0}";
}
);
layerId = "3D0525B3-6B2A-4787-8D58-1F6DD6CCA7DC";
paths = (
{
closed = 1;
nodes = (
"85 -73 OFFCURVE",
"50 -118 OFFCURVE",
"-31 -118 CURVE",
"8 -197 LINE",
"110 -197 OFFCURVE",
"188 -131 OFFCURVE",
"188 -24 CURVE SMOOTH",
"188 25 LINE",
"85 1 LINE"
);
}
);
width = 610;
},
{
layerId = "950578AD-3C55-42C9-B412-F732192F54B4";
width = 600;
}
);
leftMetricsKey = j;
rightMetricsKey = n;
unicode = 0272;
},
{
glyphname = o;
lastChange = "2018-05-07 13:31:26 +0000";
layers = (
{
anchors = (
{
name = bottom;
position = "{305, 0}";
},
{
name = center;
position = "{305, 256}";
},
{
name = ogonek;
position = "{547, 10}";
},
{
name = top;
position = "{305, 513}";
},
{
name = topright;
position = "{319, 531}";
}
);
layerId = "3D0525B3-6B2A-4787-8D58-1F6DD6CCA7DC";
paths = (
{
closed = 1;
nodes = (
"575 423 OFFCURVE",
"458 536 OFFCURVE",
"308 536 CURVE",
"157 536 OFFCURVE",
"40 423 OFFCURVE",
"40 263 CURVE",
"40 103 OFFCURVE",
"157 -10 OFFCURVE",
"308 -10 CURVE",
"458 -10 OFFCURVE",
"575 103 OFFCURVE",
"575 263 CURVE"
);
},
{
closed = 1;
nodes = (
"472 158 OFFCURVE",
"400 84 OFFCURVE",
"308 84 CURVE",
"216 84 OFFCURVE",
"143 158 OFFCURVE",
"145 263 CURVE",
"143 369 OFFCURVE",
"216 442 OFFCURVE",
"308 442 CURVE",
"400 442 OFFCURVE",
"472 369 OFFCURVE",
"470 263 CURVE"
);
}
);
width = 615;
},
{
layerId = "950578AD-3C55-42C9-B412-F732192F54B4";
paths = (
{
closed = 1;
nodes = (
"795 423 OFFCURVE",
"657 536 OFFCURVE",
"458 536 CURVE",
"258 536 OFFCURVE",
"120 423 OFFCURVE",
"120 263 CURVE",
"120 103 OFFCURVE",
"258 -10 OFFCURVE",
"458 -10 CURVE",
"657 -10 OFFCURVE",
"795 103 OFFCURVE",
"795 263 CURVE"
);
},
{
closed = 1;
nodes = (
"693 158 OFFCURVE",
"590 84 OFFCURVE",
"458 84 CURVE",
"326 84 OFFCURVE",
"222 158 OFFCURVE",
"225 263 CURVE",
"222 369 OFFCURVE",
"326 442 OFFCURVE",
"458 442 CURVE",
"590 442 OFFCURVE",
"693 369 OFFCURVE",
"690 263 CURVE"
);
}
);
width = 915;
}
);
leftKerningGroup = c;
note = o;
rightKerningGroup = b;
unicode = 006F;
},
{
glyphname = oogonek;
lastChange = "2018-05-01 19:41:22 +0000";
layers = (
{
layerId = "3D0525B3-6B2A-4787-8D58-1F6DD6CCA7DC";
paths = (
{
closed = 1;
nodes = (
"471 155 OFFCURVE",
"398 79 OFFCURVE",
"304 79 CURVE",
"210 79 OFFCURVE",
"136 155 OFFCURVE",
"136 263 CURVE",
"136 372 OFFCURVE",
"210 447 OFFCURVE",
"304 447 CURVE",
"398 447 OFFCURVE",
"471 372 OFFCURVE",
"471 263 CURVE"
);
},
{
closed = 1;
nodes = (
"418 -201 OFFCURVE",
"467 -164 OFFCURVE",
"467 -133 CURVE",
"467 -110 OFFCURVE",
"452 -95 OFFCURVE",
"432 -95 CURVE",
"422 -95 OFFCURVE",
"407 -99 OFFCURVE",
"396 -113 CURVE",
"390 -120 OFFCURVE",
"383 -124 OFFCURVE",
"373 -124 CURVE",
"352 -124 OFFCURVE",
"331 -106 OFFCURVE",
"331 -73 CURVE",
"331 -34 OFFCURVE",
"370 -6 OFFCURVE",
"421 19 CURVE",
"510 58 OFFCURVE",
"568 149 OFFCURVE",
"568 263 CURVE",
"568 423 OFFCURVE",
"452 536 OFFCURVE",
"304 536 CURVE",
"155 536 OFFCURVE",
"39 423 OFFCURVE",
"39 263 CURVE",
"39 103 OFFCURVE",
"155 -10 OFFCURVE",
"304 -10 CURVE",
"340 16 OFFCURVE",
"376 46 OFFCURVE",
"408 78 CURVE",
"338 57 OFFCURVE",
"250 14 OFFCURVE",
"250 -91 CURVE",
"250 -165 OFFCURVE",
"303 -201 OFFCURVE",
"364 -201 CURVE"
);
}
);
width = 607;
},
{
layerId = "950578AD-3C55-42C9-B412-F732192F54B4";
width = 600;
}
);
leftKerningGroup = o;
rightKerningGroup = b;
unicode = 01EB;
},
{
glyphname = oslash;
lastChange = "2018-05-01 19:41:22 +0000";
layers = (
{
anchors = (
{
name = top;
position = "{305, 530}";
}
);
components = (
{
name = o;
}
);
layerId = "3D0525B3-6B2A-4787-8D58-1F6DD6CCA7DC";
paths = (
{
closed = 1;
nodes = (
"107 -35 LINE",
"561 496 LINE",
"494 545 LINE",
"41 13 LINE"
);
}
);
width = 615;
},
{
layerId = "950578AD-3C55-42C9-B412-F732192F54B4";
width = 600;
}
);
leftKerningGroup = o;
leftMetricsKey = o;
note = oslash;
rightKerningGroup = b;
rightMetricsKey = o;
unicode = 00F8;
},
{
glyphname = p;
lastChange = "2018-05-07 13:31:26 +0000";
layers = (
{
anchors = (
{
name = bottom;
position = "{317, 0}";
},
{
name = top;
position = "{317, 510}";
}
);
layerId = "3D0525B3-6B2A-4787-8D58-1F6DD6CCA7DC";
paths = (
{
closed = 1;
nodes = (
"252 534 OFFCURVE",
"171 467 OFFCURVE",
"160 414 CURVE",
"176 405 LINE",
"176 526 LINE",
"72 526 LINE",
"72 -220 LINE",
"176 -220 LINE",
"176 131 LINE",
"150 117 LINE",
"162 65 OFFCURVE",
"245 -9 OFFCURVE",
"349 -9 CURVE",
"485 -9 OFFCURVE",
"591 104 OFFCURVE",
"591 263 CURVE",
"591 422 OFFCURVE",
"486 534 OFFCURVE",
"346 534 CURVE"
);
},
{
closed = 1;
nodes = (
"426 439 OFFCURVE",
"492 364 OFFCURVE",
"492 263 CURVE",
"492 163 OFFCURVE",
"426 86 OFFCURVE",
"332 86 CURVE",
"237 86 OFFCURVE",
"171 163 OFFCURVE",
"171 263 CURVE",
"171 364 OFFCURVE",
"237 439 OFFCURVE",
"332 439 CURVE"
);
}
);
width = 631;
},
{
layerId = "950578AD-3C55-42C9-B412-F732192F54B4";
paths = (
{
closed = 1;
nodes = (
"415 534 OFFCURVE",
"303 467 OFFCURVE",
"288 414 CURVE",
"304 405 LINE",
"304 526 LINE",
"200 526 LINE",
"200 -220 LINE",
"304 -220 LINE",
"304 131 LINE",
"278 117 LINE",
"294 65 OFFCURVE",
"406 -9 OFFCURVE",
"547 -9 CURVE",
"732 -9 OFFCURVE",
"859 104 OFFCURVE",
"859 263 CURVE",
"859 422 OFFCURVE",
"734 534 OFFCURVE",
"544 534 CURVE"
);
},
{
closed = 1;
nodes = (
"665 439 OFFCURVE",
"760 364 OFFCURVE",
"760 263 CURVE",
"760 163 OFFCURVE",
"665 86 OFFCURVE",
"530 86 CURVE",
"394 86 OFFCURVE",
"299 163 OFFCURVE",
"299 263 CURVE",
"299 364 OFFCURVE",
"394 439 OFFCURVE",
"530 439 CURVE"
);
}
);
width = 979;
}
);
leftKerningGroup = p;
leftMetricsKey = n;
note = p;
rightKerningGroup = b;
rightMetricsKey = o;
unicode = 0070;
},
{
glyphname = thorn;
lastChange = "2018-05-02 18:29:03 +0000";
layers = (
{
anchors = (
{
name = bottom;
position = "{284, 0}";
},
{
name = top;
position = "{284, 499}";
}
);
layerId = "3D0525B3-6B2A-4787-8D58-1F6DD6CCA7DC";
paths = (
{
closed = 1;
nodes = (
"252 534 OFFCURVE",
"171 467 OFFCURVE",
"160 414 CURVE",
"176 405 LINE",
"176 740 LINE",
"72 740 LINE",
"72 -220 LINE",
"176 -220 LINE",
"176 131 LINE",
"150 117 LINE",
"162 65 OFFCURVE",
"245 -9 OFFCURVE",
"349 -9 CURVE",
"485 -9 OFFCURVE",
"591 104 OFFCURVE",
"591 263 CURVE",
"591 422 OFFCURVE",
"486 534 OFFCURVE",
"346 534 CURVE"
);
},
{
closed = 1;
nodes = (
"426 439 OFFCURVE",
"492 364 OFFCURVE",
"492 263 CURVE",
"492 163 OFFCURVE",
"426 86 OFFCURVE",
"332 86 CURVE",
"237 86 OFFCURVE",
"171 163 OFFCURVE",
"171 263 CURVE",
"171 364 OFFCURVE",
"237 439 OFFCURVE",
"332 439 CURVE"
);
}
);
width = 631;
},
{
layerId = "950578AD-3C55-42C9-B412-F732192F54B4";
width = 600;
}
);
leftMetricsKey = p;
note = thorn;
rightMetricsKey = p;
unicode = 00FE;
},
{
glyphname = q;
lastChange = "2018-05-02 18:29:03 +0000";
layers = (
{
anchors = (
{
name = bottom;
position = "{315, 0}";
},
{
name = top;
position = "{315, 510}";
}
);
layerId = "3D0525B3-6B2A-4787-8D58-1F6DD6CCA7DC";
paths = (
{
closed = 1;
nodes = (
"455 526 LINE",
"455 389 LINE",
"485 391 LINE",
"485 452 OFFCURVE",
"398 536 OFFCURVE",
"285 536 CURVE",
"148 536 OFFCURVE",
"40 423 OFFCURVE",
"40 263 CURVE",
"40 104 OFFCURVE",
"148 -10 OFFCURVE",
"288 -10 CURVE",
"393 -10 OFFCURVE",
"475 74 OFFCURVE",
"475 125 CURVE",
"455 125 LINE",
"455 -220 LINE",
"558 -220 LINE",
"558 526 LINE"
);
},
{
closed = 1;
nodes = (
"205 85 OFFCURVE",
"139 161 OFFCURVE",
"139 263 CURVE",
"139 365 OFFCURVE",
"205 442 OFFCURVE",
"299 442 CURVE",
"394 442 OFFCURVE",
"459 365 OFFCURVE",
"459 263 CURVE",
"459 161 OFFCURVE",
"394 85 OFFCURVE",
"299 85 CURVE"
);
}
);
width = 626;
},
{
layerId = "950578AD-3C55-42C9-B412-F732192F54B4";
width = 600;
}
);
leftKerningGroup = c;
leftMetricsKey = o;
note = q;
rightKerningGroup = q;
rightMetricsKey = n;
unicode = 0071;
},
{
glyphname = r;
lastChange = "2018-05-07 13:31:26 +0000";
layers = (
{
anchors = (
{
name = bottom;
position = "{126, 0}";
},
{
name = top;
position = "{217, 510}";
}
);
layerId = "3D0525B3-6B2A-4787-8D58-1F6DD6CCA7DC";
paths = (
{
closed = 1;
nodes = (
"393 526 LINE",
"381 532 OFFCURVE",
"358 536 OFFCURVE",
"336 536 CURVE",
"262 536 OFFCURVE",
"188 476 OFFCURVE",
"166 400 CURVE",
"176 360 LINE",
"176 525 LINE",
"72 525 LINE",
"72 0 LINE",
"176 0 LINE",
"176 290 LINE",
"176 373 OFFCURVE",
"247 426 OFFCURVE",
"311 426 CURVE SMOOTH",
"332 426 OFFCURVE",
"353 420 OFFCURVE",
"366 414 CURVE"
);
}
);
width = 403;
},
{
layerId = "950578AD-3C55-42C9-B412-F732192F54B4";
paths = (
{
closed = 1;
nodes = (
"661 506 LINE",
"634 525 OFFCURVE",
"583 536 OFFCURVE",
"534 536 CURVE",
"430 536 OFFCURVE",
"325 467 OFFCURVE",
"294 380 CURVE",
"304 320 LINE",
"304 525 LINE",
"200 525 LINE",
"200 0 LINE",
"304 0 LINE",
"304 250 LINE",
"304 333 OFFCURVE",
"412 426 OFFCURVE",
"509 426 CURVE SMOOTH",
"557 426 OFFCURVE",
"604 411 OFFCURVE",
"634 394 CURVE"
);
}
);
width = 781;
}
);
leftKerningGroup = m;
leftMetricsKey = n;
note = r;
rightKerningGroup = r;
unicode = 0072;
},
{
glyphname = s;
lastChange = "2018-05-07 13:31:26 +0000";
layers = (
{
anchors = (
{
name = bottom;
position = "{238, 0}";
},
{
name = top;
position = "{238, 530}";
}
);
layerId = "3D0525B3-6B2A-4787-8D58-1F6DD6CCA7DC";
paths = (
{
closed = 1;
nodes = (
"434 452 LINE",
"386 511 OFFCURVE",
"304 536 OFFCURVE",
"241 536 CURVE",
"142 536 OFFCURVE",
"53 478 OFFCURVE",
"53 385 CURVE",
"53 273 OFFCURVE",
"148 240 OFFCURVE",
"234 217 CURVE",
"292 202 OFFCURVE",
"342 190 OFFCURVE",
"342 142 CURVE",
"342 92 OFFCURVE",
"293 75 OFFCURVE",
"256 75 CURVE",
"189 75 OFFCURVE",
"146 100 OFFCURVE",
"110 141 CURVE",
"40 81 LINE",
"92 14 OFFCURVE",
"171 -10 OFFCURVE",
"247 -10 CURVE",
"342 -10 OFFCURVE",
"437 48 OFFCURVE",
"437 146 CURVE",
"437 259 OFFCURVE",
"349 286 OFFCURVE",
"267 308 CURVE",
"204 324 OFFCURVE",
"155 340 OFFCURVE",
"154 388 CURVE",
"154 439 OFFCURVE",
"204 451 OFFCURVE",
"246 451 CURVE",
"286 451 OFFCURVE",
"338 424 OFFCURVE",
"375 387 CURVE"
);
}
);
width = 477;
},
{
layerId = "950578AD-3C55-42C9-B412-F732192F54B4";
paths = (
{
closed = 1;
nodes = (
"669 452 LINE",
"604 511 OFFCURVE",
"492 536 OFFCURVE",
"399 536 CURVE",
"270 536 OFFCURVE",
"148 478 OFFCURVE",
"147 371 CURVE SMOOTH",
"146 263 OFFCURVE",
"259 240 OFFCURVE",
"399 217 CURVE SMOOTH",
"495 201 OFFCURVE",
"577 190 OFFCURVE",
"577 142 CURVE",
"577 92 OFFCURVE",
"488 75 OFFCURVE",
"421 75 CURVE",
"322 75 OFFCURVE",
"258 104 OFFCURVE",
"205 151 CURVE",
"135 91 LINE",
"205 17 OFFCURVE",
"310 -10 OFFCURVE",
"412 -10 CURVE",
"542 -10 OFFCURVE",
"672 48 OFFCURVE",
"672 161 CURVE SMOOTH",
"672 269 OFFCURVE",
"549 290 OFFCURVE",
"432 308 CURVE SMOOTH",
"330 324 OFFCURVE",
"251 340 OFFCURVE",
"249 388 CURVE",
"249 439 OFFCURVE",
"337 451 OFFCURVE",
"399 451 CURVE",
"473 451 OFFCURVE",
"553 424 OFFCURVE",
"610 387 CURVE"
);
}
);
width = 812;
}
);
leftKerningGroup = s;
note = s;
rightKerningGroup = s;
unicode = 0073;
},
{
glyphname = germandbls;
lastChange = "2018-05-02 17:05:57 +0000";
layers = (
{
layerId = "3D0525B3-6B2A-4787-8D58-1F6DD6CCA7DC";
paths = (
{
closed = 1;
nodes = (
"226 -1 LINE",
"226 502 LINE",
"226 582 OFFCURVE",
"269 644 OFFCURVE",
"350 644 CURVE",
"416 644 OFFCURVE",
"457 614 OFFCURVE",
"457 565 CURVE",
"457 523 OFFCURVE",
"424 485 OFFCURVE",
"344 450 CURVE",
"344 385 LINE",
"459 357 OFFCURVE",
"525 311 OFFCURVE",
"525 206 CURVE",
"525 128 OFFCURVE",
"483 68 OFFCURVE",
"414 68 CURVE",
"386 68 OFFCURVE",
"356 87 OFFCURVE",
"327 112 CURVE",
"275 57 LINE",
"305 19 OFFCURVE",
"348 -10 OFFCURVE",
"410 -10 CURVE",
"530 -10 OFFCURVE",
"622 84 OFFCURVE",
"622 218 CURVE",
"622 342 OFFCURVE",
"535 415 OFFCURVE",
"447 443 CURVE",
"449 439 LINE",
"506 464 OFFCURVE",
"553 514 OFFCURVE",
"553 574 CURVE",
"553 662 OFFCURVE",
"483 734 OFFCURVE",
"354 734 CURVE",
"208 734 OFFCURVE",
"129 630 OFFCURVE",
"129 499 CURVE",
"129 -1 LINE"
);
},
{
closed = 1;
nodes = (
"180 404 LINE",
"180 497 LINE",
"45 497 LINE",
"45 404 LINE"
);
}
);
width = 662;
},
{
layerId = "950578AD-3C55-42C9-B412-F732192F54B4";
width = 600;
}
);
leftMetricsKey = f;
note = germandbls;
rightMetricsKey = s;
unicode = 00DF;
},
{
glyphname = t;
lastChange = "2018-05-07 13:31:26 +0000";
layers = (
{
anchors = (
{
name = bottom;
position = "{196, 0}";
},
{
name = center;
position = "{196, 256}";
},
{
name = top;
position = "{177, 646}";
},
{
name = topright;
position = "{302, 548}";
}
);
layerId = "3D0525B3-6B2A-4787-8D58-1F6DD6CCA7DC";
paths = (
{
closed = 1;
nodes = (
"234 659 LINE",
"131 659 LINE",
"131 0 LINE",
"234 0 LINE"
);
},
{
closed = 1;
nodes = (
"356 519 LINE",
"22 519 LINE",
"22 423 LINE",
"356 423 LINE"
);
}
);
width = 378;
},
{
layerId = "950578AD-3C55-42C9-B412-F732192F54B4";
paths = (
{
closed = 1;
nodes = (
"407 659 LINE",
"304 659 LINE",
"304 0 LINE",
"407 0 LINE"
);
},
{
closed = 1;
nodes = (
"599 519 LINE",
"125 519 LINE",
"125 423 LINE",
"599 423 LINE"
);
}
);
width = 749;
}
);
leftKerningGroup = t;
note = t;
rightKerningGroup = t;
unicode = 0074;
},
{
glyphname = u;
lastChange = "2018-05-02 18:29:03 +0000";
layers = (
{
anchors = (
{
name = bottom;
position = "{299, 0}";
},
{
name = ogonek;
position = "{530, 0}";
},
{
name = top;
position = "{299, 510}";
},
{
name = topright;
position = "{386, 532}";
}
);
layerId = "3D0525B3-6B2A-4787-8D58-1F6DD6CCA7DC";
paths = (
{
closed = 1;
nodes = (
"430 128 OFFCURVE",
"370 80 OFFCURVE",
"298 80 CURVE SMOOTH",
"211 80 OFFCURVE",
"175 149 OFFCURVE",
"175 229 CURVE",
"175 525 LINE",
"72 525 LINE",
"72 201 LINE",
"72 69 OFFCURVE",
"146 -10 OFFCURVE",
"256 -10 CURVE SMOOTH",
"360 -10 OFFCURVE",
"428 61 OFFCURVE",
"448 122 CURVE",
"430 110 LINE",
"430 0 LINE",
"533 0 LINE",
"533 525 LINE",
"533 525 OFFCURVE",
"430 525 OFFCURVE",
"430 525 CURVE",
"430 209 LINE SMOOTH"
);
}
);
width = 601;
},
{
layerId = "950578AD-3C55-42C9-B412-F732192F54B4";
width = 600;
}
);
leftKerningGroup = u;
leftMetricsKey = n;
note = u;
rightKerningGroup = u;
rightMetricsKey = n;
unicode = 0075;
},
{
glyphname = v;
lastChange = "2018-05-07 13:31:26 +0000";
layers = (
{
anchors = (
{
name = bottom;
position = "{287, 0}";
},
{
name = top;
position = "{287, 510}";
}
);
layerId = "3D0525B3-6B2A-4787-8D58-1F6DD6CCA7DC";
paths = (
{
closed = 1;
nodes = (
"22 525 LINE",
"244 0 LINE",
"318 0 LINE",
"551 525 LINE",
"445 525 LINE",
"274 123 LINE",
"293 132 LINE",
"133 525 LINE"
);
}
);
width = 573;
},
{
layerId = "950578AD-3C55-42C9-B412-F732192F54B4";
paths = (
{
closed = 1;
nodes = (
"85 525 LINE",
"373 0 LINE",
"467 0 LINE",
"764 525 LINE",
"643 525 LINE",
"402 71 LINE",
"441 80 LINE",
"211 525 LINE"
);
}
);
width = 849;
}
);
leftKerningGroup = v;
note = v;
rightKerningGroup = v;
unicode = 0076;
},
{
glyphname = w;
lastChange = "2018-05-02 17:15:17 +0000";
layers = (
{
anchors = (
{
name = bottom;
position = "{390, 0}";
},
{
name = top;
position = "{390, 505}";
}
);
layerId = "3D0525B3-6B2A-4787-8D58-1F6DD6CCA7DC";
paths = (
{
closed = 1;
nodes = (
"654 525 LINE",
"525 132 LINE",
"552 134 LINE",
"422 442 LINE",
"360 442 LINE",
"231 135 LINE",
"254 133 LINE",
"126 526 LINE",
"22 525 LINE",
"201 0 LINE",
"271 0 LINE",
"397 331 LINE",
"374 334 LINE",
"510 0 LINE",
"581 0 LINE",
"758 525 LINE"
);
}
);
width = 780;
},
{
layerId = "950578AD-3C55-42C9-B412-F732192F54B4";
width = 600;
}
);
leftKerningGroup = w;
leftMetricsKey = v;
note = w;
rightKerningGroup = w;
rightMetricsKey = v;
unicode = 0077;
},
{
glyphname = x;
lastChange = "2018-05-01 19:41:22 +0000";
layers = (
{
anchors = (
{
name = bottom;
position = "{277, 0}";
},
{
name = top;
position = "{277, 510}";
}
);
layerId = "3D0525B3-6B2A-4787-8D58-1F6DD6CCA7DC";
paths = (
{
closed = 1;
nodes = (
"15 525 LINE",
"421 0 LINE",
"547 0 LINE",
"145 525 LINE"
);
},
{
closed = 1;
nodes = (
"137 -1 LINE",
"279 190 LINE",
"223 270 LINE",
"16 0 LINE"
);
},
{
closed = 1;
nodes = (
"407 525 LINE",
"278 326 LINE",
"335 254 LINE",
"529 525 LINE"
);
}
);
width = 562;
},
{
layerId = "950578AD-3C55-42C9-B412-F732192F54B4";
width = 600;
}
);
leftKerningGroup = x;
note = x;
rightKerningGroup = x;
unicode = 0078;
},
{
glyphname = y;
lastChange = "2018-05-04 13:22:07 +0000";
layers = (
{
anchors = (
{
name = bottom;
position = "{502, 0}";
},
{
name = top;
position = "{297, 510}";
}
);
layerId = "3D0525B3-6B2A-4787-8D58-1F6DD6CCA7DC";
paths = (
{
closed = 1;
nodes = (
"309 59 LINE",
"132 525 LINE",
"15 525 LINE",
"252 -52 LINE"
);
},
{
closed = 1;
nodes = (
"277 -230 LINE",
"588 525 LINE",
"475 525 LINE",
"303 58 LINE",
"258 -33 LINE",
"175 -230 LINE"
);
}
);
width = 603;
},
{
layerId = "950578AD-3C55-42C9-B412-F732192F54B4";
width = 600;
}
);
leftKerningGroup = y;
note = y;
rightKerningGroup = y;
unicode = 0079;
},
{
glyphname = z;
lastChange = "2018-05-01 19:41:22 +0000";
layers = (
{
anchors = (
{
name = bottom;
position = "{240, 0}";
},
{
name = top;
position = "{248, 510}";
}
);
layerId = "3D0525B3-6B2A-4787-8D58-1F6DD6CCA7DC";
paths = (
{
closed = 1;
nodes = (
"162 89 LINE",
"166 84 LINE",
"433 441 LINE",
"433 525 LINE",
"50 525 LINE",
"50 436 LINE",
"321 436 LINE",
"321 448 LINE",
"50 86 LINE",
"50 0 LINE",
"439 0 LINE",
"439 89 LINE"
);
}
);
width = 482;
},
{
layerId = "950578AD-3C55-42C9-B412-F732192F54B4";
width = 600;
}
);
leftKerningGroup = z;
note = z;
rightKerningGroup = z;
unicode = 007A;
},
{
glyphname = a.ss01;
lastChange = "2018-05-01 19:41:22 +0000";
layers = (
{
anchors = (
{
name = bottom;
position = "{289, 0}";
},
{
name = ogonek;
position = "{534, 0}";
},
{
name = top;
position = "{270, 535}";
}
);
layerId = "3D0525B3-6B2A-4787-8D58-1F6DD6CCA7DC";
paths = (
{
closed = 1;
nodes = (
"189 72 OFFCURVE",
"141 105 OFFCURVE",
"141 162 CURVE",
"141 219 OFFCURVE",
"189 252 OFFCURVE",
"259 252 CURVE",
"330 252 OFFCURVE",
"376 219 OFFCURVE",
"376 162 CURVE",
"376 105 OFFCURVE",
"330 72 OFFCURVE",
"259 72 CURVE"
);
},
{
closed = 1;
nodes = (
"298 -10 OFFCURVE",
"367 34 OFFCURVE",
"394 91 CURVE",
"366 76 LINE",
"375 37 OFFCURVE",
"402 0 OFFCURVE",
"454 0 CURVE",
"502 0 OFFCURVE",
"540 27 OFFCURVE",
"562 55 CURVE",
"525 106 LINE",
"506 94 OFFCURVE",
"493 88 OFFCURVE",
"483 88 CURVE",
"474 88 OFFCURVE",
"463 98 OFFCURVE",
"463 116 CURVE",
"462 351 LINE",
"461 484 OFFCURVE",
"374 536 OFFCURVE",
"264 536 CURVE",
"172 536 OFFCURVE",
"83 488 OFFCURVE",
"50 438 CURVE",
"111 375 LINE",
"157 431 OFFCURVE",
"212 447 OFFCURVE",
"257 447 CURVE",
"315 447 OFFCURVE",
"366 415 OFFCURVE",
"366 346 CURVE",
"366 237 LINE",
"431 180 LINE",
"423 258 OFFCURVE",
"355 333 OFFCURVE",
"248 333 CURVE",
"149 333 OFFCURVE",
"44 272 OFFCURVE",
"44 157 CURVE",
"44 67 OFFCURVE",
"108 -10 OFFCURVE",
"220 -10 CURVE"
);
}
);
width = 582;
},
{
layerId = "950578AD-3C55-42C9-B412-F732192F54B4";
width = 600;
}
);
leftKerningGroup = a;
},
{
glyphname = aogonek.ss01;
lastChange = "2018-05-01 19:41:22 +0000";
layers = (
{
anchors = (
{
name = _ogonek;
position = "{534, 0}";
},
{
name = bottom;
position = "{289, 0}";
},
{
name = ogonek;
position = "{534, 0}";
},
{
name = top;
position = "{259, 515}";
}
);
layerId = "3D0525B3-6B2A-4787-8D58-1F6DD6CCA7DC";
paths = (
{
closed = 1;
nodes = (
"191 72 OFFCURVE",
"146 105 OFFCURVE",
"146 162 CURVE",
"146 219 OFFCURVE",
"192 252 OFFCURVE",
"263 252 CURVE",
"332 252 OFFCURVE",
"375 219 OFFCURVE",
"375 162 CURVE",
"375 105 OFFCURVE",
"331 72 OFFCURVE",
"261 72 CURVE"
);
},
{
closed = 1;
nodes = (
"490 -211 OFFCURVE",
"538 -174 OFFCURVE",
"538 -143 CURVE SMOOTH",
"538 -120 OFFCURVE",
"523 -105 OFFCURVE",
"503 -105 CURVE SMOOTH",
"493 -105 OFFCURVE",
"478 -108 OFFCURVE",
"468 -122 CURVE SMOOTH",
"462 -130 OFFCURVE",
"454 -134 OFFCURVE",
"444 -134 CURVE SMOOTH",
"424 -134 OFFCURVE",
"406 -119 OFFCURVE",
"406 -90 CURVE SMOOTH",
"406 -58 OFFCURVE",
"434 -15 OFFCURVE",
"481 2 CURVE SMOOTH",
"518 14 OFFCURVE",
"540 31 OFFCURVE",
"540 60 CURVE",
"540 82 OFFCURVE",
"527 92 OFFCURVE",
"515 92 CURVE",
"500 92 OFFCURVE",
"492 84 OFFCURVE",
"484 84 CURVE",
"472 84 OFFCURVE",
"462 91 OFFCURVE",
"462 113 CURVE",
"462 351 LINE",
"461 487 OFFCURVE",
"372 536 OFFCURVE",
"260 536 CURVE",
"158 536 OFFCURVE",
"92 494 OFFCURVE",
"61 455 CURVE",
"48 441 OFFCURVE",
"46 430 OFFCURVE",
"46 419 CURVE",
"46 396 OFFCURVE",
"70 373 OFFCURVE",
"91 373 CURVE",
"105 373 OFFCURVE",
"118 380 OFFCURVE",
"128 391 CURVE",
"159 431 OFFCURVE",
"212 447 OFFCURVE",
"257 447 CURVE",
"314 447 OFFCURVE",
"365 420 OFFCURVE",
"365 346 CURVE",
"365 237 LINE",
"431 181 LINE",
"424 259 OFFCURVE",
"358 333 OFFCURVE",
"252 333 CURVE",
"151 333 OFFCURVE",
"47 272 OFFCURVE",
"47 163 CURVE",
"47 64 OFFCURVE",
"117 -10 OFFCURVE",
"228 -10 CURVE",
"293 -10 OFFCURVE",
"366 22 OFFCURVE",
"393 82 CURVE",
"365 90 LINE",
"365 35 OFFCURVE",
"392 0 OFFCURVE",
"453 0 CURVE",
"479 40 LINE",
"411 21 OFFCURVE",
"324 -13 OFFCURVE",
"324 -108 CURVE SMOOTH",
"324 -177 OFFCURVE",
"375 -211 OFFCURVE",
"435 -211 CURVE SMOOTH"
);
}
);
width = 552;
},
{
layerId = "950578AD-3C55-42C9-B412-F732192F54B4";
width = 600;
}
);
},
{
glyphname = g.ss01;
lastChange = "2018-05-01 19:41:22 +0000";
layers = (
{
anchors = (
{
name = bottom;
position = "{249, -204}";
},
{
name = top;
position = "{251, 519}";
}
);
layerId = "3D0525B3-6B2A-4787-8D58-1F6DD6CCA7DC";
paths = (
{
closed = 1;
nodes = (
"477 453 OFFCURVE",
"379 536 OFFCURVE",
"253 536 CURVE",
"127 536 OFFCURVE",
"30 453 OFFCURVE",
"30 334 CURVE",
"30 216 OFFCURVE",
"127 133 OFFCURVE",
"253 133 CURVE",
"379 133 OFFCURVE",
"477 216 OFFCURVE",
"477 334 CURVE"
);
},
{
closed = 1;
nodes = (
"380 258 OFFCURVE",
"327 210 OFFCURVE",
"253 210 CURVE",
"180 210 OFFCURVE",
"127 258 OFFCURVE",
"127 330 CURVE",
"127 403 OFFCURVE",
"180 451 OFFCURVE",
"253 451 CURVE",
"327 451 OFFCURVE",
"380 403 OFFCURVE",
"380 330 CURVE"
);
},
{
closed = 1;
nodes = (
"390 95 OFFCURVE",
"447 47 OFFCURVE",
"447 -4 CURVE",
"447 -75 OFFCURVE",
"364 -115 OFFCURVE",
"262 -115 CURVE",
"197 -115 OFFCURVE",
"130 -81 OFFCURVE",
"94 -42 CURVE",
"35 -98 LINE",
"54 -136 OFFCURVE",
"146 -204 OFFCURVE",
"249 -204 CURVE",
"420 -204 OFFCURVE",
"544 -115 OFFCURVE",
"544 1 CURVE",
"544 109 OFFCURVE",
"441 180 OFFCURVE",
"260 180 CURVE",
"181 179 LINE",
"197 120 LINE",
"202 99 OFFCURVE",
"220 95 OFFCURVE",
"240 95 CURVE"
);
},
{
closed = 1;
nodes = (
"557 478 LINE",
"511 554 LINE",
"374 478 LINE",
"428 402 LINE"
);
}
);
width = 565;
},
{
layerId = "950578AD-3C55-42C9-B412-F732192F54B4";
width = 600;
}
);
},
{
glyphname = ordfeminine;
lastChange = "2018-05-01 19:44:14 +0000";
layers = (
{
layerId = "3D0525B3-6B2A-4787-8D58-1F6DD6CCA7DC";
paths = (
{
closed = 1;
nodes = (
"213 391 OFFCURVE",
"257 462 OFFCURVE",
"257 512 CURVE",
"242 474 LINE",
"242 401 LINE",
"335 401 LINE",
"335 715 LINE",
"242 715 LINE",
"242 648 LINE",
"257 592 LINE",
"257 679 OFFCURVE",
"217 721 OFFCURVE",
"155 721 CURVE",
"69 721 OFFCURVE",
"15 650 OFFCURVE",
"15 562 CURVE",
"15 469 OFFCURVE",
"57 391 OFFCURVE",
"143 391 CURVE"
);
},
{
closed = 1;
nodes = (
"128 458 OFFCURVE",
"108 505 OFFCURVE",
"108 562 CURVE",
"108 613 OFFCURVE",
"136 654 OFFCURVE",
"171 654 CURVE",
"218 654 OFFCURVE",
"246 616 OFFCURVE",
"246 555 CURVE",
"246 493 OFFCURVE",
"213 458 OFFCURVE",
"172 458 CURVE"
);
}
);
width = 365;
},
{
layerId = "950578AD-3C55-42C9-B412-F732192F54B4";
width = 600;
}
);
note = ordfeminine;
unicode = 00AA;
},
{
glyphname = ordmasculine;
lastChange = "2018-05-01 19:44:14 +0000";
layers = (
{
layerId = "3D0525B3-6B2A-4787-8D58-1F6DD6CCA7DC";
paths = (
{
closed = 1;
nodes = (
"334 640 OFFCURVE",
"266 710 OFFCURVE",
"176 710 CURVE",
"86 710 OFFCURVE",
"20 640 OFFCURVE",
"20 549 CURVE",
"20 459 OFFCURVE",
"86 392 OFFCURVE",
"176 392 CURVE",
"266 392 OFFCURVE",
"334 459 OFFCURVE",
"334 549 CURVE"
);
},
{
closed = 1;
nodes = (
"245 500 OFFCURVE",
"218 463 OFFCURVE",
"176 463 CURVE",
"134 463 OFFCURVE",
"108 500 OFFCURVE",
"108 549 CURVE",
"108 601 OFFCURVE",
"134 639 OFFCURVE",
"176 639 CURVE",
"218 639 OFFCURVE",
"245 601 OFFCURVE",
"245 549 CURVE"
);
}
);
width = 354;
},
{
layerId = "950578AD-3C55-42C9-B412-F732192F54B4";
width = 600;
}
);
note = ordmasculine;
unicode = 00BA;
},
{
glyphname = pi;
lastChange = "2018-05-01 19:44:14 +0000";
layers = (
{
layerId = "3D0525B3-6B2A-4787-8D58-1F6DD6CCA7DC";
paths = (
{
closed = 1;
nodes = (
"205 0 LINE",
"205 438 LINE",
"192 425 LINE",
"419 425 LINE",
"409 460 LINE",
"409 0 LINE",
"500 0 LINE",
"500 438 LINE",
"491 425 LINE",
"574 425 LINE",
"574 526 LINE",
"40 526 LINE",
"40 425 LINE",
"131 425 LINE",
"114 476 LINE",
"114 0 LINE"
);
}
);
width = 614;
},
{
layerId = "950578AD-3C55-42C9-B412-F732192F54B4";
width = 600;
}
);
note = pi;
unicode = 03C0;
},
{
glyphname = zero;
lastChange = "2018-05-01 19:44:14 +0000";
layers = (
{
anchors = (
{
name = center;
position = "{302, 351}";
}
);
layerId = "3D0525B3-6B2A-4787-8D58-1F6DD6CCA7DC";
paths = (
{
closed = 1;
nodes = (
"472 -10 OFFCURVE",
"561 141 OFFCURVE",
"561 350 CURVE",
"561 559 OFFCURVE",
"472 710 OFFCURVE",
"303 710 CURVE",
"135 710 OFFCURVE",
"46 559 OFFCURVE",
"46 350 CURVE",
"46 141 OFFCURVE",
"135 -10 OFFCURVE",
"303 -10 CURVE"
);
},
{
closed = 1;
nodes = (
"207 88 OFFCURVE",
"150 182 OFFCURVE",
"150 350 CURVE",
"150 518 OFFCURVE",
"207 612 OFFCURVE",
"303 612 CURVE",
"399 612 OFFCURVE",
"456 518 OFFCURVE",
"456 350 CURVE",
"456 182 OFFCURVE",
"399 88 OFFCURVE",
"303 88 CURVE"
);
}
);
width = 607;
},
{
layerId = "950578AD-3C55-42C9-B412-F732192F54B4";
width = 600;
}
);
note = zero;
unicode = 0030;
},
{
glyphname = one;
lastChange = "2018-05-01 19:44:14 +0000";
layers = (
{
layerId = "3D0525B3-6B2A-4787-8D58-1F6DD6CCA7DC";
paths = (
{
closed = 1;
nodes = (
"326 49 LINE",
"326 710 LINE",
"274 710 LINE",
"87 610 LINE",
"116 516 LINE",
"254 589 LINE",
"217 617 LINE",
"217 49 LINE"
);
},
{
closed = 1;
nodes = (
"440 104 LINE",
"106 104 LINE",
"106 0 LINE",
"440 0 LINE"
);
}
);
width = 500;
},
{
layerId = "950578AD-3C55-42C9-B412-F732192F54B4";
width = 600;
}
);
note = one;
unicode = 0031;
},
{
glyphname = two;
lastChange = "2018-05-02 18:08:44 +0000";
layers = (
{
layerId = "3D0525B3-6B2A-4787-8D58-1F6DD6CCA7DC";
paths = (
{
closed = 1;
nodes = (
"172 104 LINE",
"192 74 LINE",
"351 247 LINE SMOOTH",
"431 335 OFFCURVE",
"494 425 OFFCURVE",
"494 517 CURVE SMOOTH",
"494 636 OFFCURVE",
"405 710 OFFCURVE",
"291 710 CURVE SMOOTH",
"184 710 OFFCURVE",
"87 649 OFFCURVE",
"51 525 CURVE",
"134 473 LINE",
"164 570 OFFCURVE",
"232 610 OFFCURVE",
"278 610 CURVE",
"341 610 OFFCURVE",
"383 575 OFFCURVE",
"383 509 CURVE",
"383 445 OFFCURVE",
"329 384 OFFCURVE",
"274 323 CURVE SMOOTH",
"60 82 LINE",
"93 0 LINE",
"516 0 LINE",
"516 104 LINE"
);
}
);
width = 548;
},
{
layerId = "950578AD-3C55-42C9-B412-F732192F54B4";
width = 600;
}
);
note = two;
unicode = 0032;
},
{
glyphname = three;
lastChange = "2018-05-01 19:44:14 +0000";
layers = (
{
layerId = "3D0525B3-6B2A-4787-8D58-1F6DD6CCA7DC";
paths = (
{
closed = 1;
nodes = (
"20 138 LINE",
"70 55 OFFCURVE",
"132 -10 OFFCURVE",
"251 -10 CURVE",
"377 -10 OFFCURVE",
"494 82 OFFCURVE",
"494 227 CURVE",
"494 350 OFFCURVE",
"398 443 OFFCURVE",
"283 443 CURVE",
"267 443 OFFCURVE",
"236 437 OFFCURVE",
"226 432 CURVE",
"251 406 LINE",
"480 660 LINE",
"460 700 LINE",
"59 700 LINE",
"59 600 LINE",
"357 600 LINE",
"336 631 LINE",
"120 393 LINE",
"150 314 LINE",
"186 329 OFFCURVE",
"230 344 OFFCURVE",
"265 344 CURVE",
"320 344 OFFCURVE",
"386 311 OFFCURVE",
"386 221 CURVE",
"386 132 OFFCURVE",
"318 85 OFFCURVE",
"259 85 CURVE SMOOTH",
"182 85 OFFCURVE",
"134 146 OFFCURVE",
"104 191 CURVE"
);
}
);
width = 529;
},
{
layerId = "950578AD-3C55-42C9-B412-F732192F54B4";
width = 600;
}
);
note = three;
unicode = 0033;
},
{
glyphname = four;
lastChange = "2018-05-01 19:44:14 +0000";
layers = (
{
layerId = "3D0525B3-6B2A-4787-8D58-1F6DD6CCA7DC";
paths = (
{
closed = 1;
nodes = (
"456 0 LINE",
"456 700 LINE",
"373 700 LINE",
"30 280 LINE",
"76 190 LINE",
"578 190 LINE",
"578 289 LINE",
"143 289 LINE",
"147 277 LINE",
"377 558 LINE",
"352 564 LINE",
"352 0 LINE"
);
}
);
width = 620;
},
{
layerId = "950578AD-3C55-42C9-B412-F732192F54B4";
width = 600;
}
);
note = four;
unicode = 0034;
},
{
glyphname = five;
lastChange = "2018-05-01 19:44:14 +0000";
layers = (
{
layerId = "3D0525B3-6B2A-4787-8D58-1F6DD6CCA7DC";
paths = (
{
closed = 1;
nodes = (
"388 -7 OFFCURVE",
"508 99 OFFCURVE",
"508 239 CURVE",
"508 371 OFFCURVE",
"412 468 OFFCURVE",
"286 468 CURVE",
"225 468 OFFCURVE",
"159 445 OFFCURVE",
"140 426 CURVE",
"165 397 LINE",
"198 619 LINE",
"177 600 LINE",
"487 600 LINE",
"487 700 LINE",
"109 700 LINE",
"68 403 LINE",
"125 326 LINE",
"151 339 OFFCURVE",
"197 368 OFFCURVE",
"265 368 CURVE",
"341 368 OFFCURVE",
"401 323 OFFCURVE",
"401 238 CURVE",
"401 157 OFFCURVE",
"330 92 OFFCURVE",
"251 92 CURVE",
"187 92 OFFCURVE",
"144 129 OFFCURVE",
"99 182 CURVE",
"39 115 LINE",
"83 45 OFFCURVE",
"155 -7 OFFCURVE",
"257 -7 CURVE"
);
}
);
width = 568;
},
{
layerId = "950578AD-3C55-42C9-B412-F732192F54B4";
width = 600;
}
);
note = five;
unicode = 0035;
},
{
glyphname = six;
lastChange = "2018-05-01 19:44:14 +0000";
layers = (
{
layerId = "3D0525B3-6B2A-4787-8D58-1F6DD6CCA7DC";
paths = (
{
closed = 1;
nodes = (
"430 0 OFFCURVE",
"522 118 OFFCURVE",
"522 260 CURVE SMOOTH",
"522 382 OFFCURVE",
"426 489 OFFCURVE",
"308 489 CURVE SMOOTH",
"211 489 OFFCURVE",
"148 428 OFFCURVE",
"108 363 CURVE",
"133 260 LINE",
"151 336 OFFCURVE",
"199 433 OFFCURVE",
"249 517 CURVE SMOOTH",
"359 702 LINE",
"355 712 LINE",
"250 712 LINE",
"159 558 LINE SMOOTH",
"102 462 OFFCURVE",
"40 336 OFFCURVE",
"40 247 CURVE SMOOTH",
"40 100 OFFCURVE",
"149 0 OFFCURVE",
"283 0 CURVE"
);
},
{
closed = 1;
nodes = (
"197 100 OFFCURVE",
"145 170 OFFCURVE",
"145 248 CURVE SMOOTH",
"145 321 OFFCURVE",
"198 389 OFFCURVE",
"285 389 CURVE SMOOTH",
"362 389 OFFCURVE",
"414 316 OFFCURVE",
"414 247 CURVE SMOOTH",
"414 154 OFFCURVE",
"353 100 OFFCURVE",
"283 100 CURVE"
);
}
);
width = 557;
},
{
layerId = "950578AD-3C55-42C9-B412-F732192F54B4";
width = 600;
}
);
note = six;
unicode = 0036;
},
{
glyphname = seven;
lastChange = "2018-05-01 19:44:14 +0000";
layers = (
{
layerId = "3D0525B3-6B2A-4787-8D58-1F6DD6CCA7DC";
paths = (
{
closed = 1;
nodes = (
"218 0 LINE",
"497 631 LINE",
"483 700 LINE",
"50 700 LINE",
"50 600 LINE",
"404 600 LINE",
"392 632 LINE",
"102 0 LINE"
);
}
);
width = 542;
},
{
layerId = "950578AD-3C55-42C9-B412-F732192F54B4";
width = 600;
}
);
note = seven;
unicode = 0037;
},
{
glyphname = eight;
lastChange = "2018-05-01 19:44:14 +0000";
layers = (
{
layerId = "3D0525B3-6B2A-4787-8D58-1F6DD6CCA7DC";
paths = (
{
closed = 1;
nodes = (
"445 384 OFFCURVE",
"508 425 OFFCURVE",
"508 509 CURVE SMOOTH",
"508 613 OFFCURVE",
"412 700 OFFCURVE",
"289 700 CURVE",
"166 700 OFFCURVE",
"70 613 OFFCURVE",
"70 509 CURVE SMOOTH",
"70 432 OFFCURVE",
"126 385 OFFCURVE",
"182 364 CURVE",
"188 385 LINE",
"123 356 OFFCURVE",
"53 301 OFFCURVE",
"53 200 CURVE SMOOTH",
"53 88 OFFCURVE",
"157 -3 OFFCURVE",
"289 -3 CURVE",
"422 -3 OFFCURVE",
"526 88 OFFCURVE",
"526 200 CURVE SMOOTH",
"526 278 OFFCURVE",
"471 349 OFFCURVE",
"392 381 CURVE",
"395 364 LINE"
);
},
{
closed = 1;
nodes = (
"177 559 OFFCURVE",
"224 600 OFFCURVE",
"289 600 CURVE",
"354 600 OFFCURVE",
"401 559 OFFCURVE",
"401 508 CURVE",
"401 450 OFFCURVE",
"351 409 OFFCURVE",
"289 409 CURVE SMOOTH",
"227 409 OFFCURVE",
"177 450 OFFCURVE",
"177 508 CURVE"
);
},
{
closed = 1;
nodes = (
"215 97 OFFCURVE",
"160 143 OFFCURVE",
"160 202 CURVE",
"160 274 OFFCURVE",
"218 323 OFFCURVE",
"289 323 CURVE SMOOTH",
"361 323 OFFCURVE",
"419 274 OFFCURVE",
"419 202 CURVE",
"419 143 OFFCURVE",
"364 97 OFFCURVE",
"289 97 CURVE"
);
}
);
width = 579;
},
{
layerId = "950578AD-3C55-42C9-B412-F732192F54B4";
width = 600;
}
);
note = eight;
unicode = 0038;
},
{
glyphname = nine;
lastChange = "2018-05-01 19:44:14 +0000";
layers = (
{
layerId = "3D0525B3-6B2A-4787-8D58-1F6DD6CCA7DC";
paths = (
{
closed = 1;
nodes = (
"138 712 OFFCURVE",
"30 608 OFFCURVE",
"30 462 CURVE SMOOTH",
"30 344 OFFCURVE",
"126 243 OFFCURVE",
"241 243 CURVE",
"324 243 OFFCURVE",
"393 299 OFFCURVE",
"435 369 CURVE",
"432 452 LINE",
"224 10 LINE",
"228 0 LINE",
"334 0 LINE",
"417 174 LINE SMOOTH",
"469 284 OFFCURVE",
"516 392 OFFCURVE",
"516 478 CURVE SMOOTH",
"516 610 OFFCURVE",
"405 712 OFFCURVE",
"274 712 CURVE"
);
},
{
closed = 1;
nodes = (
"350 612 OFFCURVE",
"400 547 OFFCURVE",
"400 474 CURVE SMOOTH",
"400 406 OFFCURVE",
"349 343 OFFCURVE",
"264 343 CURVE SMOOTH",
"191 343 OFFCURVE",
"141 411 OFFCURVE",
"141 475 CURVE SMOOTH",
"141 562 OFFCURVE",
"199 612 OFFCURVE",
"266 612 CURVE"
);
}
);
width = 551;
},
{
layerId = "950578AD-3C55-42C9-B412-F732192F54B4";
width = 600;
}
);
note = nine;
unicode = 0039;
},
{
glyphname = zero.dnom;
lastChange = "2018-05-01 19:44:14 +0000";
layers = (
{
layerId = "3D0525B3-6B2A-4787-8D58-1F6DD6CCA7DC";
paths = (
{
closed = 1;
nodes = (
"271 -10 OFFCURVE",
"334 71 OFFCURVE",
"334 174 CURVE",
"334 278 OFFCURVE",
"276 359 OFFCURVE",
"183 359 CURVE",
"89 359 OFFCURVE",
"30 278 OFFCURVE",
"30 174 CURVE",
"30 71 OFFCURVE",
"93 -10 OFFCURVE",
"183 -10 CURVE"
);
},
{
closed = 1;
nodes = (
"137 64 OFFCURVE",
"112 110 OFFCURVE",
"112 174 CURVE",
"112 237 OFFCURVE",
"138 285 OFFCURVE",
"183 285 CURVE",
"228 285 OFFCURVE",
"252 237 OFFCURVE",
"252 174 CURVE",
"252 110 OFFCURVE",
"227 64 OFFCURVE",
"183 64 CURVE"
);
}
);
width = 364;
},
{
layerId = "950578AD-3C55-42C9-B412-F732192F54B4";
width = 600;
}
);
},
{
glyphname = one.dnom;
lastChange = "2018-05-01 19:44:14 +0000";
layers = (
{
layerId = "3D0525B3-6B2A-4787-8D58-1F6DD6CCA7DC";
paths = (
{
closed = 1;
nodes = (
"201 -2 OFFCURVE",
"201 -2 CURVE",
"201 346 LINE",
"145 346 LINE",
"47 288 LINE",
"82 222 LINE",
"132 254 LINE",
"126 272 LINE",
"126 -2 LINE",
"126 -2 OFFCURVE"
);
}
);
width = 282;
},
{
layerId = "950578AD-3C55-42C9-B412-F732192F54B4";
width = 600;
}
);
},
{
glyphname = two.dnom;
lastChange = "2018-05-01 19:44:14 +0000";
layers = (
{
layerId = "3D0525B3-6B2A-4787-8D58-1F6DD6CCA7DC";
paths = (
{
closed = 1;
nodes = (
"296 0 LINE",
"296 67 LINE",
"142 67 LINE",
"138 58 LINE",
"205 123 LINE SMOOTH",
"239 156 OFFCURVE",
"293 202 OFFCURVE",
"293 251 CURVE",
"293 304 OFFCURVE",
"258 361 OFFCURVE",
"176 361 CURVE",
"114 361 OFFCURVE",
"66 315 OFFCURVE",
"42 275 CURVE",
"94 238 LINE",
"124 271 OFFCURVE",
"148 289 OFFCURVE",
"169 289 CURVE",
"193 289 OFFCURVE",
"209 274 OFFCURVE",
"209 249 CURVE",
"209 216 OFFCURVE",
"166 182 OFFCURVE",
"133 148 CURVE SMOOTH",
"56 71 LINE",
"65 0 LINE"
);
}
);
width = 346;
},
{
layerId = "950578AD-3C55-42C9-B412-F732192F54B4";
width = 600;
}
);
},
{
glyphname = three.dnom;
lastChange = "2018-05-01 19:44:14 +0000";
layers = (
{
layerId = "3D0525B3-6B2A-4787-8D58-1F6DD6CCA7DC";
paths = (
{
closed = 1;
nodes = (
"231 -10 OFFCURVE",
"297 33 OFFCURVE",
"297 111 CURVE",
"297 171 OFFCURVE",
"259 216 OFFCURVE",
"186 216 CURVE",
"177 216 OFFCURVE",
"164 211 OFFCURVE",
"160 209 CURVE",
"173 202 LINE",
"272 284 LINE",
"265 350 LINE",
"79 350 LINE",
"79 282 LINE",
"209 282 LINE",
"190 288 LINE",
"88 200 LINE",
"109 143 LINE",
"126 148 OFFCURVE",
"145 155 OFFCURVE",
"165 155 CURVE",
"198 155 OFFCURVE",
"222 138 OFFCURVE",
"222 110 CURVE",
"222 73 OFFCURVE",
"191 56 OFFCURVE",
"159 56 CURVE",
"140 56 OFFCURVE",
"119 61 OFFCURVE",
"90 79 CURVE",
"57 24 LINE",
"84 4 OFFCURVE",
"126 -10 OFFCURVE",
"165 -10 CURVE"
);
}
);
width = 339;
},
{
layerId = "950578AD-3C55-42C9-B412-F732192F54B4";
width = 600;
}
);
},
{
glyphname = four.dnom;
lastChange = "2018-05-01 19:44:14 +0000";
layers = (
{
layerId = "3D0525B3-6B2A-4787-8D58-1F6DD6CCA7DC";
paths = (
{
closed = 1;
nodes = (
"279 -2 LINE",
"279 356 LINE",
"213 356 LINE",
"45 150 LINE",
"62 81 LINE",
"340 81 LINE",
"340 149 LINE",
"113 149 LINE",
"110 130 LINE",
"236 276 LINE",
"204 290 LINE",
"204 -2 LINE"
);
}
);
width = 390;
},
{
layerId = "950578AD-3C55-42C9-B412-F732192F54B4";
width = 600;
}
);
},
{
glyphname = five.dnom;
lastChange = "2018-05-01 19:44:14 +0000";
layers = (
{
layerId = "3D0525B3-6B2A-4787-8D58-1F6DD6CCA7DC";
paths = (
{
closed = 1;
nodes = (
"240 -9 OFFCURVE",
"306 39 OFFCURVE",
"306 121 CURVE",
"306 188 OFFCURVE",
"256 235 OFFCURVE",
"199 235 CURVE",
"155 235 OFFCURVE",
"126 219 OFFCURVE",
"106 189 CURVE",
"137 172 LINE",
"152 297 LINE",
"125 276 LINE",
"289 276 LINE",
"289 345 LINE",
"86 345 LINE",
"63 182 LINE",
"98 142 LINE",
"115 153 OFFCURVE",
"132 166 OFFCURVE",
"168 166 CURVE",
"205 166 OFFCURVE",
"226 141 OFFCURVE",
"226 114 CURVE",
"226 80 OFFCURVE",
"199 59 OFFCURVE",
"159 59 CURVE",
"128 59 OFFCURVE",
"104 71 OFFCURVE",
"87 86 CURVE",
"50 28 LINE",
"74 9 OFFCURVE",
"119 -9 OFFCURVE",
"155 -9 CURVE"
);
}
);
width = 358;
},
{
layerId = "950578AD-3C55-42C9-B412-F732192F54B4";
width = 600;
}
);
},
{
glyphname = six.dnom;
lastChange = "2018-05-01 19:44:14 +0000";
layers = (
{
layerId = "3D0525B3-6B2A-4787-8D58-1F6DD6CCA7DC";
paths = (
{
closed = 1;
nodes = (
"233 -11 OFFCURVE",
"293 42 OFFCURVE",
"293 118 CURVE",
"293 175 OFFCURVE",
"250 223 OFFCURVE",
"181 223 CURVE",
"130 223 OFFCURVE",
"86 184 OFFCURVE",
"64 117 CURVE",
"116 178 LINE",
"120 250 OFFCURVE",
"154 285 OFFCURVE",
"192 285 CURVE",
"217 285 OFFCURVE",
"231 279 OFFCURVE",
"246 269 CURVE",
"274 326 LINE",
"257 344 OFFCURVE",
"219 358 OFFCURVE",
"189 358 CURVE",
"100 358 OFFCURVE",
"30 263 OFFCURVE",
"30 139 CURVE",
"30 62 OFFCURVE",
"79 -11 OFFCURVE",
"162 -11 CURVE"
);
},
{
closed = 1;
nodes = (
"130 52 OFFCURVE",
"109 77 OFFCURVE",
"109 108 CURVE",
"109 136 OFFCURVE",
"131 161 OFFCURVE",
"163 161 CURVE",
"192 161 OFFCURVE",
"214 136 OFFCURVE",
"214 107 CURVE",
"214 76 OFFCURVE",
"189 52 OFFCURVE",
"162 52 CURVE"
);
}
);
width = 323;
},
{
layerId = "950578AD-3C55-42C9-B412-F732192F54B4";
width = 600;
}
);
},
{
glyphname = seven.dnom;
lastChange = "2018-05-01 19:44:14 +0000";
layers = (
{
layerId = "3D0525B3-6B2A-4787-8D58-1F6DD6CCA7DC";
paths = (
{
closed = 1;
nodes = (
"159 0 LINE",
"296 294 LINE",
"269 344 LINE",
"63 344 LINE",
"63 276 LINE",
"232 276 LINE",
"220 307 LINE",
"84 9 LINE",
"84 0 LINE"
);
}
);
width = 326;
},
{
layerId = "950578AD-3C55-42C9-B412-F732192F54B4";
width = 600;
}
);
},
{
glyphname = eight.dnom;
lastChange = "2018-05-01 19:44:14 +0000";
layers = (
{
layerId = "3D0525B3-6B2A-4787-8D58-1F6DD6CCA7DC";
paths = (
{
closed = 1;
nodes = (
"249 -11 OFFCURVE",
"309 38 OFFCURVE",
"309 97 CURVE",
"309 135 OFFCURVE",
"279 170 OFFCURVE",
"236 188 CURVE",
"237 177 LINE",
"264 188 OFFCURVE",
"300 212 OFFCURVE",
"300 255 CURVE",
"300 313 OFFCURVE",
"245 358 OFFCURVE",
"177 358 CURVE",
"108 358 OFFCURVE",
"54 313 OFFCURVE",
"54 255 CURVE",
"54 214 OFFCURVE",
"85 188 OFFCURVE",
"117 177 CURVE",
"120 188 LINE",
"86 173 OFFCURVE",
"44 145 OFFCURVE",
"44 97 CURVE",
"44 38 OFFCURVE",
"104 -11 OFFCURVE",
"177 -11 CURVE"
);
},
{
closed = 1;
nodes = (
"150 213 OFFCURVE",
"129 230 OFFCURVE",
"129 253 CURVE",
"129 277 OFFCURVE",
"149 294 OFFCURVE",
"177 294 CURVE",
"203 294 OFFCURVE",
"225 277 OFFCURVE",
"225 253 CURVE",
"225 230 OFFCURVE",
"202 213 OFFCURVE",
"177 213 CURVE"
);
},
{
closed = 1;
nodes = (
"146 52 OFFCURVE",
"121 75 OFFCURVE",
"121 104 CURVE",
"121 132 OFFCURVE",
"147 151 OFFCURVE",
"177 151 CURVE",
"206 151 OFFCURVE",
"233 132 OFFCURVE",
"233 104 CURVE",
"233 75 OFFCURVE",
"208 52 OFFCURVE",
"177 52 CURVE"
);
}
);
width = 355;
},
{
layerId = "950578AD-3C55-42C9-B412-F732192F54B4";
width = 600;
}
);
},
{
glyphname = nine.dnom;
lastChange = "2018-05-01 19:44:14 +0000";
layers = (
{
layerId = "3D0525B3-6B2A-4787-8D58-1F6DD6CCA7DC";
paths = (
{
closed = 1;
nodes = (
"243 -12 OFFCURVE",
"299 84 OFFCURVE",
"299 207 CURVE",
"299 284 OFFCURVE",
"250 358 OFFCURVE",
"166 358 CURVE",
"95 358 OFFCURVE",
"36 304 OFFCURVE",
"36 228 CURVE",
"36 171 OFFCURVE",
"79 123 OFFCURVE",
"147 123 CURVE",
"198 123 OFFCURVE",
"243 162 OFFCURVE",
"264 229 CURVE",
"213 168 LINE",
"210 97 OFFCURVE",
"192 62 OFFCURVE",
"146 62 CURVE SMOOTH",
"129 62 OFFCURVE",
"109 72 OFFCURVE",
"95 82 CURVE",
"62 28 LINE",
"75 11 OFFCURVE",
"117 -12 OFFCURVE",
"151 -12 CURVE"
);
},
{
closed = 1;
nodes = (
"136 185 OFFCURVE",
"115 210 OFFCURVE",
"115 239 CURVE",
"115 271 OFFCURVE",
"139 294 OFFCURVE",
"167 294 CURVE",
"198 294 OFFCURVE",
"220 270 OFFCURVE",
"220 238 CURVE",
"220 210 OFFCURVE",
"198 185 OFFCURVE",
"165 185 CURVE"
);
}
);
width = 331;
},
{
layerId = "950578AD-3C55-42C9-B412-F732192F54B4";
width = 600;
}
);
},
{
glyphname = fraction;
lastChange = "2018-05-01 19:44:14 +0000";
layers = (
{
layerId = "3D0525B3-6B2A-4787-8D58-1F6DD6CCA7DC";
paths = (
{
closed = 1;
nodes = (
"118 0 LINE",
"586 700 LINE",
"483 700 LINE",
"20 0 LINE"
);
}
);
width = 606;
},
{
layerId = "950578AD-3C55-42C9-B412-F732192F54B4";
width = 600;
}
);
note = fraction;
unicode = 2044;
},
{
glyphname = period;
lastChange = "2018-05-01 19:44:14 +0000";
layers = (
{
layerId = "3D0525B3-6B2A-4787-8D58-1F6DD6CCA7DC";
paths = (
{
closed = 1;
nodes = (
"161 -11 OFFCURVE",
"183 26 OFFCURVE",
"183 64 CURVE SMOOTH",
"183 109 OFFCURVE",
"161 139 OFFCURVE",
"114 139 CURVE SMOOTH",
"67 139 OFFCURVE",
"45 102 OFFCURVE",
"45 64 CURVE SMOOTH",
"45 19 OFFCURVE",
"67 -11 OFFCURVE",
"114 -11 CURVE SMOOTH"
);
}
);
width = 228;
},
{
layerId = "950578AD-3C55-42C9-B412-F732192F54B4";
width = 600;
}
);
leftKerningGroup = period;
note = period;
unicode = 002E;
},
{
glyphname = comma;
lastChange = "2018-05-02 17:59:34 +0000";
layers = (
{
layerId = "3D0525B3-6B2A-4787-8D58-1F6DD6CCA7DC";
paths = (
{
closed = 1;
nodes = (
"215 77 OFFCURVE",
"171 117 OFFCURVE",
"126 117 CURVE",
"92 117 OFFCURVE",
"65 97 OFFCURVE",
"65 64 CURVE",
"65 11 OFFCURVE",
"123 -1 OFFCURVE",
"123 -42 CURVE SMOOTH",
"123 -68 OFFCURVE",
"90 -106 OFFCURVE",
"44 -133 CURVE",
"82 -179 LINE",
"150 -153 OFFCURVE",
"215 -81 OFFCURVE",
"215 4 CURVE SMOOTH"
);
}
);
width = 255;
},
{
layerId = "950578AD-3C55-42C9-B412-F732192F54B4";
width = 600;
}
);
leftKerningGroup = comma;
note = comma;
unicode = 002C;
},
{
glyphname = colon;
lastChange = "2018-05-01 19:44:14 +0000";
layers = (
{
layerId = "3D0525B3-6B2A-4787-8D58-1F6DD6CCA7DC";
paths = (
{
closed = 1;
nodes = (
"191 385 OFFCURVE",
"213 422 OFFCURVE",
"213 460 CURVE SMOOTH",
"213 505 OFFCURVE",
"191 535 OFFCURVE",
"144 535 CURVE SMOOTH",
"97 535 OFFCURVE",
"75 498 OFFCURVE",
"75 460 CURVE SMOOTH",
"75 415 OFFCURVE",
"97 385 OFFCURVE",
"144 385 CURVE SMOOTH"
);
},
{
closed = 1;
nodes = (
"191 -11 OFFCURVE",
"213 26 OFFCURVE",
"213 64 CURVE SMOOTH",
"213 109 OFFCURVE",
"191 139 OFFCURVE",
"144 139 CURVE SMOOTH",
"97 139 OFFCURVE",
"75 102 OFFCURVE",
"75 64 CURVE SMOOTH",
"75 19 OFFCURVE",
"97 -11 OFFCURVE",
"144 -11 CURVE SMOOTH"
);
}
);
width = 288;
},
{
layerId = "950578AD-3C55-42C9-B412-F732192F54B4";
width = 600;
}
);
note = colon;
unicode = 003A;
},
{
glyphname = semicolon;
lastChange = "2018-05-01 19:44:14 +0000";
layers = (
{
components = (
{
name = comma;
transform = "{1, 0, 0, 1, -7, 0}";
}
);
layerId = "3D0525B3-6B2A-4787-8D58-1F6DD6CCA7DC";
paths = (
{
closed = 1;
nodes = (
"177 385 OFFCURVE",
"199 422 OFFCURVE",
"199 460 CURVE SMOOTH",
"199 505 OFFCURVE",
"177 535 OFFCURVE",
"130 535 CURVE SMOOTH",
"83 535 OFFCURVE",
"61 498 OFFCURVE",
"61 460 CURVE SMOOTH",
"61 415 OFFCURVE",
"83 385 OFFCURVE",
"130 385 CURVE SMOOTH"
);
}
);
width = 257;
},
{
layerId = "950578AD-3C55-42C9-B412-F732192F54B4";
width = 600;
}
);
note = semicolon;
unicode = 003B;
},
{
glyphname = exclam;
lastChange = "2018-05-01 19:44:14 +0000";
layers = (
{
components = (
{
name = period;
}
);
layerId = "3D0525B3-6B2A-4787-8D58-1F6DD6CCA7DC";
paths = (
{
closed = 1;
nodes = (
"147 241 LINE",
"161 351 OFFCURVE",
"171 500 OFFCURVE",
"171 630 CURVE SMOOTH",
"171 700 LINE",
"63 700 LINE",
"63 630 LINE SMOOTH",
"63 500 OFFCURVE",
"74 351 OFFCURVE",
"87 241 CURVE"
);
}
);
width = 236;
},
{
layerId = "950578AD-3C55-42C9-B412-F732192F54B4";
width = 600;
}
);
note = exclam;
unicode = 0021;
},
{
glyphname = question;
lastChange = "2018-05-01 19:44:14 +0000";
layers = (
{
components = (
{
name = period;
transform = "{1, 0, 0, 1, 113, 0}";
}
);
layerId = "3D0525B3-6B2A-4787-8D58-1F6DD6CCA7DC";
paths = (
{
closed = 1;
nodes = (
"193 211 LINE",
"270 211 LINE",
"290 314 LINE",
"270 295 LINE",
"371 325 OFFCURVE",
"471 407 OFFCURVE",
"471 511 CURVE SMOOTH",
"471 625 OFFCURVE",
"372 709 OFFCURVE",
"249 709 CURVE SMOOTH",
"159 709 OFFCURVE",
"77 655 OFFCURVE",
"22 570 CURVE",
"97 507 LINE",
"132 571 OFFCURVE",
"183 612 OFFCURVE",
"239 612 CURVE SMOOTH",
"306 612 OFFCURVE",
"358 570 OFFCURVE",
"358 511 CURVE SMOOTH",
"358 433 OFFCURVE",
"291 385 OFFCURVE",
"167 352 CURVE"
);
}
);
width = 511;
},
{
layerId = "950578AD-3C55-42C9-B412-F732192F54B4";
width = 600;
}
);
note = question;
unicode = 003F;
},
{
glyphname = bullet;
lastChange = "2018-05-01 19:44:14 +0000";
layers = (
{
layerId = "3D0525B3-6B2A-4787-8D58-1F6DD6CCA7DC";
paths = (
{
closed = 1;
nodes = (
"248 216 OFFCURVE",
"310 276 OFFCURVE",
"310 351 CURVE SMOOTH",
"310 429 OFFCURVE",
"247 488 OFFCURVE",
"173 488 CURVE SMOOTH",
"99 488 OFFCURVE",
"37 429 OFFCURVE",
"37 351 CURVE SMOOTH",
"37 276 OFFCURVE",
"98 216 OFFCURVE",
"173 216 CURVE SMOOTH"
);
}
);
width = 346;
},
{
layerId = "950578AD-3C55-42C9-B412-F732192F54B4";
width = 600;
}
);
note = bullet;
unicode = 2022;
},
{
glyphname = asterisk;
lastChange = "2018-05-01 19:44:14 +0000";
layers = (
{
layerId = "3D0525B3-6B2A-4787-8D58-1F6DD6CCA7DC";
paths = (
{
closed = 1;
nodes = (
"167 585 LINE",
"159 700 LINE",
"234 700 LINE",
"225 573 LINE",
"217 581 LINE",
"320 651 LINE",
"357 586 LINE",
"244 531 LINE",
"244 542 LINE",
"356 487 LINE",
"319 423 LINE",
"215 493 LINE",
"226 491 LINE",
"234 376 LINE",
"159 376 LINE",
"167 491 LINE",
"172 491 LINE",
"69 421 LINE",
"32 486 LINE",
"144 540 LINE",
"142 535 LINE",
"30 589 LINE",
"68 653 LINE",
"172 583 LINE"
);
}
);
width = 387;
},
{
layerId = "950578AD-3C55-42C9-B412-F732192F54B4";
width = 600;
}
);
note = asterisk;
unicode = 002A;
},
{
glyphname = numbersign;
lastChange = "2018-05-01 19:44:14 +0000";
layers = (
{
layerId = "3D0525B3-6B2A-4787-8D58-1F6DD6CCA7DC";
paths = (
{
closed = 1;
nodes = (
"191 0 LINE",
"311 700 LINE",
"221 700 LINE",
"101 0 LINE"
);
},
{
closed = 1;
nodes = (
"647 448 LINE",
"647 536 LINE",
"69 536 LINE",
"69 448 LINE"
);
},
{
closed = 1;
nodes = (
"457 0 LINE",
"577 700 LINE",
"487 700 LINE",
"367 0 LINE"
);
},
{
closed = 1;
nodes = (
"610 168 LINE",
"610 256 LINE",
"31 256 LINE",
"31 168 LINE"
);
}
);
width = 678;
},
{
layerId = "950578AD-3C55-42C9-B412-F732192F54B4";
width = 600;
}
);
note = numbersign;
unicode = 0023;
},
{
glyphname = slash;
lastChange = "2018-05-01 19:44:14 +0000";
layers = (
{
layerId = "3D0525B3-6B2A-4787-8D58-1F6DD6CCA7DC";
paths = (
{
closed = 1;
nodes = (
"111 -132 LINE",
"522 700 LINE",
"428 700 LINE",
"16 -132 LINE"
);
}
);
width = 550;
},
{
layerId = "950578AD-3C55-42C9-B412-F732192F54B4";
width = 600;
}
);
note = slash;
unicode = 002F;
},
{
glyphname = backslash;
lastChange = "2018-05-01 19:44:14 +0000";
layers = (
{
layerId = "3D0525B3-6B2A-4787-8D58-1F6DD6CCA7DC";
paths = (
{
closed = 1;
nodes = (
"541 -107 LINE",
"141 700 LINE",
"48 700 LINE",
"446 -107 LINE"
);
}
);
width = 551;
},
{
layerId = "950578AD-3C55-42C9-B412-F732192F54B4";
width = 600;
}
);
note = backslash;
unicode = 005C;
},
{
glyphname = parenleft;
lastChange = "2018-05-02 18:10:38 +0000";
layers = (
{
layerId = "3D0525B3-6B2A-4787-8D58-1F6DD6CCA7DC";
paths = (
{
closed = 1;
nodes = (
"39 81 OFFCURVE",
"119 -80 OFFCURVE",
"289 -186 CURVE",
"345 -124 LINE",
"201 -23 OFFCURVE",
"136 115 OFFCURVE",
"136 258 CURVE SMOOTH",
"136 401 OFFCURVE",
"201 539 OFFCURVE",
"345 640 CURVE",
"290 702 LINE",
"120 596 OFFCURVE",
"39 435 OFFCURVE",
"39 258 CURVE SMOOTH"
);
}
);
width = 363;
},
{
layerId = "950578AD-3C55-42C9-B412-F732192F54B4";
width = 600;
}
);
note = parenleft;
unicode = 0028;
},
{
glyphname = braceleft;
lastChange = "2018-05-01 19:44:14 +0000";
layers = (
{
layerId = "3D0525B3-6B2A-4787-8D58-1F6DD6CCA7DC";
paths = (
{
closed = 1;
nodes = (
"367 -131 LINE",
"271 -98 OFFCURVE",
"255 -66 OFFCURVE",
"255 7 CURVE",
"257 102 LINE",
"257 182 OFFCURVE",
"218 231 OFFCURVE",
"153 252 CURVE",
"154 249 LINE",
"218 268 OFFCURVE",
"257 318 OFFCURVE",
"257 398 CURVE",
"255 493 LINE",
"255 566 OFFCURVE",
"271 600 OFFCURVE",
"367 631 CURVE",
"349 700 LINE",
"215 671 OFFCURVE",
"164 614 OFFCURVE",
"164 507 CURVE",
"165 412 LINE",
"165 336 OFFCURVE",
"133 290 OFFCURVE",
"69 288 CURVE",
"24 288 LINE",
"24 212 LINE",
"67 212 LINE",
"131 210 OFFCURVE",
"165 165 OFFCURVE",
"165 88 CURVE",
"164 -7 LINE",
"164 -103 OFFCURVE",
"199 -170 OFFCURVE",
"349 -200 CURVE"
);
}
);
width = 411;
},
{
layerId = "950578AD-3C55-42C9-B412-F732192F54B4";
width = 600;
}
);
note = braceleft;
unicode = 007B;
},
{
glyphname = bracketleft;
lastChange = "2018-05-01 19:44:14 +0000";
layers = (
{
layerId = "3D0525B3-6B2A-4787-8D58-1F6DD6CCA7DC";
paths = (
{
closed = 1;
nodes = (
"337 -190 LINE",
"337 -111 LINE",
"163 -111 LINE",
"173 -123 LINE",
"173 629 LINE",
"167 621 LINE",
"337 621 LINE",
"337 700 LINE",
"80 700 LINE",
"80 -190 LINE"
);
}
);
width = 403;
},
{
layerId = "950578AD-3C55-42C9-B412-F732192F54B4";
width = 600;
}
);
note = bracketleft;
unicode = 005B;
},
{
glyphname = hyphen;
lastChange = "2018-05-01 19:44:14 +0000";
layers = (
{
layerId = "3D0525B3-6B2A-4787-8D58-1F6DD6CCA7DC";
paths = (
{
closed = 1;
nodes = (
"341 241 LINE",
"341 337 LINE",
"53 337 LINE",
"53 241 LINE"
);
}
);
width = 394;
},
{
layerId = "950578AD-3C55-42C9-B412-F732192F54B4";
width = 600;
}
);
note = hyphen;
unicode = 002D;
},
{
glyphname = endash;
lastChange = "2018-05-01 19:44:14 +0000";
layers = (
{
layerId = "3D0525B3-6B2A-4787-8D58-1F6DD6CCA7DC";
paths = (
{
closed = 1;
nodes = (
"461 243 LINE",
"461 336 LINE",
"53 336 LINE",
"53 243 LINE"
);
}
);
width = 514;
},
{
layerId = "950578AD-3C55-42C9-B412-F732192F54B4";
width = 600;
}
);
note = endash;
unicode = 2013;
},
{
glyphname = emdash;
lastChange = "2018-05-01 19:44:14 +0000";
layers = (
{
layerId = "3D0525B3-6B2A-4787-8D58-1F6DD6CCA7DC";
paths = (
{
closed = 1;
nodes = (
"815 243 LINE",
"815 337 LINE",
"53 337 LINE",
"53 243 LINE"
);
}
);
width = 868;
},
{
layerId = "950578AD-3C55-42C9-B412-F732192F54B4";
width = 600;
}
);
note = emdash;
unicode = 2014;
},
{
glyphname = underscore;
lastChange = "2018-05-01 19:44:14 +0000";
layers = (
{
layerId = "3D0525B3-6B2A-4787-8D58-1F6DD6CCA7DC";
paths = (
{
closed = 1;
nodes = (
"637 -160 LINE",
"637 -82 LINE",
"53 -82 LINE",
"53 -160 LINE"
);
}
);
width = 690;
},
{
layerId = "950578AD-3C55-42C9-B412-F732192F54B4";
width = 600;
}
);
note = underscore;
unicode = 005F;
},
{
glyphname = quoteleft;
lastChange = "2018-05-02 17:59:56 +0000";
layers = (
{
layerId = "3D0525B3-6B2A-4787-8D58-1F6DD6CCA7DC";
paths = (
{
closed = 1;
nodes = (
"40 499 OFFCURVE",
"89 459 OFFCURVE",
"139 459 CURVE",
"173 459 OFFCURVE",
"200 479 OFFCURVE",
"200 512 CURVE",
"200 560 OFFCURVE",
"132 571 OFFCURVE",
"132 608 CURVE SMOOTH",
"132 631 OFFCURVE",
"169 665 OFFCURVE",
"221 689 CURVE",
"183 735 LINE",
"110 712 OFFCURVE",
"40 648 OFFCURVE",
"40 572 CURVE SMOOTH"
);
}
);
width = 241;
},
{
layerId = "950578AD-3C55-42C9-B412-F732192F54B4";
width = 600;
}
);
note = quoteleft;
unicode = 2018;
},
{
glyphname = guilsinglleft;
lastChange = "2018-05-01 19:44:14 +0000";
layers = (
{
layerId = "3D0525B3-6B2A-4787-8D58-1F6DD6CCA7DC";
paths = (
{
closed = 1;
nodes = (
"115 255 LINE",
"234 426 LINE",
"171 471 LINE",
"9 254 LINE",
"9 262 LINE",
"172 50 LINE",
"235 95 LINE",
"116 266 LINE"
);
}
);
width = 275;
},
{
layerId = "950578AD-3C55-42C9-B412-F732192F54B4";
width = 600;
}
);
note = guilsinglleft;
unicode = 2039;
},
{
glyphname = guilsinglright;
lastChange = "2018-05-01 19:44:14 +0000";
layers = (
{
layerId = "3D0525B3-6B2A-4787-8D58-1F6DD6CCA7DC";
paths = (
{
closed = 1;
nodes = (
"160 266 LINE",
"41 95 LINE",
"104 50 LINE",
"266 267 LINE",
"266 259 LINE",
"103 471 LINE",
"40 426 LINE",
"159 255 LINE"
);
}
);
width = 275;
},
{
layerId = "950578AD-3C55-42C9-B412-F732192F54B4";
width = 600;
}
);
note = guilsinglright;
unicode = 203A;
},
{
glyphname = quotedbl;
lastChange = "2018-05-01 19:44:14 +0000";
layers = (
{
layerId = "3D0525B3-6B2A-4787-8D58-1F6DD6CCA7DC";
paths = (
{
closed = 1;
nodes = (
"37 442 LINE",
"97 442 LINE",
"178 700 LINE",
"60 700 LINE"
);
},
{
closed = 1;
nodes = (
"245 442 LINE",
"305 442 LINE",
"385 700 LINE",
"269 700 LINE"
);
}
);
width = 412;
},
{
layerId = "950578AD-3C55-42C9-B412-F732192F54B4";
width = 600;
}
);
note = quotedbl;
unicode = 0022;
},
{
glyphname = quotesingle;
lastChange = "2018-05-01 19:44:14 +0000";
layers = (
{
layerId = "3D0525B3-6B2A-4787-8D58-1F6DD6CCA7DC";
paths = (
{
closed = 1;
nodes = (
"37 442 LINE",
"97 442 LINE",
"178 700 LINE",
"60 700 LINE"
);
}
);
width = 205;
},
{
layerId = "950578AD-3C55-42C9-B412-F732192F54B4";
width = 600;
}
);
note = quotesingle;
unicode = 0027;
},
{
glyphname = .notdef;
lastChange = "2018-05-01 19:44:14 +0000";
layers = (
{
layerId = "3D0525B3-6B2A-4787-8D58-1F6DD6CCA7DC";
paths = (
{
closed = 1;
nodes = (
"40 35 LINE SMOOTH",
"40 12 OFFCURVE",
"52 0 OFFCURVE",
"75 0 CURVE SMOOTH",
"509 0 LINE SMOOTH",
"532 0 OFFCURVE",
"544 12 OFFCURVE",
"544 35 CURVE SMOOTH",
"544 665 LINE SMOOTH",
"544 688 OFFCURVE",
"532 700 OFFCURVE",
"509 700 CURVE SMOOTH",
"75 700 LINE SMOOTH",
"52 700 OFFCURVE",
"40 688 OFFCURVE",
"40 665 CURVE SMOOTH"
);
},
{
closed = 1;
nodes = (
"509 670 LINE SMOOTH",
"512 670 OFFCURVE",
"514 668 OFFCURVE",
"514 665 CURVE SMOOTH",
"514 67 LINE SMOOTH",
"514 62 OFFCURVE",
"511 61 OFFCURVE",
"508 65 CURVE",
"92 664 LINE SMOOTH",
"90 667 OFFCURVE",
"91 670 OFFCURVE",
"95 670 CURVE SMOOTH"
);
},
{
closed = 1;
nodes = (
"70 633 LINE SMOOTH",
"70 638 OFFCURVE",
"73 639 OFFCURVE",
"76 635 CURVE",
"491 36 LINE SMOOTH",
"493 33 OFFCURVE",
"492 30 OFFCURVE",
"488 30 CURVE SMOOTH",
"75 30 LINE SMOOTH",
"72 30 OFFCURVE",
"70 32 OFFCURVE",
"70 35 CURVE SMOOTH"
);
}
);
width = 584;
},
{
layerId = "950578AD-3C55-42C9-B412-F732192F54B4";
width = 600;
}
);
note = .notdef;
},
{
glyphname = cedi;
lastChange = "2018-05-01 19:44:14 +0000";
layers = (
{
components = (
{
name = C;
}
);
layerId = "3D0525B3-6B2A-4787-8D58-1F6DD6CCA7DC";
paths = (
{
closed = 1;
nodes = (
"421 21 LINE",
"414 66 LINE",
"414 642 LINE",
"421 680 LINE",
"421 762 LINE SMOOTH",
"421 790 OFFCURVE",
"401 811 OFFCURVE",
"373 811 CURVE SMOOTH",
"345 811 OFFCURVE",
"324 790 OFFCURVE",
"324 762 CURVE SMOOTH",
"324 673 LINE",
"331 637 LINE",
"331 73 LINE",
"324 18 LINE",
"324 -81 LINE SMOOTH",
"324 -109 OFFCURVE",
"344 -130 OFFCURVE",
"372 -130 CURVE SMOOTH",
"400 -130 OFFCURVE",
"421 -109 OFFCURVE",
"421 -81 CURVE SMOOTH"
);
}
);
width = 637;
},
{
layerId = "950578AD-3C55-42C9-B412-F732192F54B4";
width = 600;
}
);
unicode = 20B5;
},
{
glyphname = cent;
lastChange = "2018-05-01 19:44:14 +0000";
layers = (
{
anchors = (
{
name = bottom;
position = "{258, 90}";
},
{
name = top;
position = "{298, 600}";
}
);
components = (
{
name = c;
transform = "{1, 0, 0, 1, 0, 88}";
}
);
layerId = "3D0525B3-6B2A-4787-8D58-1F6DD6CCA7DC";
paths = (
{
closed = 1;
nodes = (
"336 107 LINE",
"329 141 LINE",
"329 572 LINE",
"336 605 LINE",
"336 700 LINE",
"239 700 LINE",
"239 606 LINE",
"246 563 LINE",
"246 145 LINE",
"239 108 LINE",
"239 0 LINE",
"336 0 LINE"
);
}
);
width = 514;
},
{
layerId = "950578AD-3C55-42C9-B412-F732192F54B4";
width = 600;
}
);
note = cent;
unicode = 00A2;
},
{
glyphname = colonsign;
lastChange = "2018-05-01 19:44:14 +0000";
layers = (
{
components = (
{
name = C;
}
);
layerId = "3D0525B3-6B2A-4787-8D58-1F6DD6CCA7DC";
paths = (
{
closed = 1;
nodes = (
"105 -106 LINE",
"533 773 LINE",
"460 803 LINE",
"28 -70 LINE"
);
},
{
closed = 1;
nodes = (
"265 -139 LINE",
"693 740 LINE",
"620 770 LINE",
"188 -103 LINE"
);
}
);
width = 637;
},
{
layerId = "950578AD-3C55-42C9-B412-F732192F54B4";
width = 600;
}
);
unicode = 20A1;
},
{
glyphname = currency;
lastChange = "2018-05-01 19:44:14 +0000";
layers = (
{
layerId = "3D0525B3-6B2A-4787-8D58-1F6DD6CCA7DC";
paths = (
{
closed = 1;
nodes = (
"377 122 OFFCURVE",
"457 202 OFFCURVE",
"457 302 CURVE",
"457 401 OFFCURVE",
"377 482 OFFCURVE",
"279 482 CURVE",
"180 482 OFFCURVE",
"101 401 OFFCURVE",
"101 302 CURVE",
"101 202 OFFCURVE",
"180 122 OFFCURVE",
"279 122 CURVE"
);
},
{
closed = 1;
nodes = (
"229 210 OFFCURVE",
"197 250 OFFCURVE",
"197 302 CURVE",
"197 353 OFFCURVE",
"229 395 OFFCURVE",
"279 395 CURVE",
"330 395 OFFCURVE",
"362 353 OFFCURVE",
"362 302 CURVE",
"362 250 OFFCURVE",
"330 210 OFFCURVE",
"279 210 CURVE"
);
},
{
closed = 1;
nodes = (
"148 359 LINE",
"218 429 LINE",
"120 521 LINE",
"50 451 LINE"
);
},
{
closed = 1;
nodes = (
"428 90 LINE",
"498 160 LINE",
"400 252 LINE",
"330 182 LINE"
);
},
{
closed = 1;
nodes = (
"337 432 LINE",
"407 362 LINE",
"500 460 LINE",
"429 530 LINE"
);
},
{
closed = 1;
nodes = (
"58 152 LINE",
"129 82 LINE",
"221 179 LINE",
"150 250 LINE"
);
}
);
width = 550;
},
{
layerId = "950578AD-3C55-42C9-B412-F732192F54B4";
width = 600;
}
);
note = currency;
unicode = 00A4;
},
{
glyphname = dong;
lastChange = "2018-05-01 19:44:14 +0000";
layers = (
{
layerId = "3D0525B3-6B2A-4787-8D58-1F6DD6CCA7DC";
paths = (
{
closed = 1;
nodes = (
"264 146 OFFCURVE",
"315 219 OFFCURVE",
"315 262 CURVE",
"295 266 LINE",
"295 156 LINE",
"392 156 LINE",
"392 700 LINE",
"295 700 LINE",
"295 404 LINE",
"325 377 LINE",
"311 450 OFFCURVE",
"261 497 OFFCURVE",
"195 497 CURVE",
"113 497 OFFCURVE",
"40 423 OFFCURVE",
"40 321 CURVE",
"40 221 OFFCURVE",
"114 146 OFFCURVE",
"191 146 CURVE"
);
},
{
closed = 1;
nodes = (
"166 227 OFFCURVE",
"137 273 OFFCURVE",
"137 321 CURVE",
"137 373 OFFCURVE",
"166 417 OFFCURVE",
"216 417 CURVE",
"265 417 OFFCURVE",
"300 373 OFFCURVE",
"300 321 CURVE",
"300 273 OFFCURVE",
"265 227 OFFCURVE",
"216 227 CURVE"
);
},
{
closed = 1;
nodes = (
"430 0 LINE",
"430 78 LINE",
"41 78 LINE",
"41 0 LINE"
);
},
{
closed = 1;
nodes = (
"466 534 LINE",
"466 614 LINE",
"203 614 LINE",
"203 534 LINE"
);
}
);
width = 491;
},
{
layerId = "950578AD-3C55-42C9-B412-F732192F54B4";
width = 600;
}
);
unicode = 20AB;
},
{
glyphname = euro;
lastChange = "2018-05-01 19:44:14 +0000";
layers = (
{
layerId = "3D0525B3-6B2A-4787-8D58-1F6DD6CCA7DC";
paths = (
{
closed = 1;
nodes = (
"417 221 LINE",
"417 314 LINE",
"15 316 LINE",
"15 222 LINE"
);
},
{
closed = 1;
nodes = (
"417 367 LINE",
"417 460 LINE",
"15 461 LINE",
"15 368 LINE"
);
},
{
closed = 1;
nodes = (
"487 -10 OFFCURVE",
"545 9 OFFCURVE",
"591 37 CURVE",
"541 121 LINE",
"508 98 OFFCURVE",
"470 86 OFFCURVE",
"429 86 CURVE",
"296 86 OFFCURVE",
"189 180 OFFCURVE",
"189 350 CURVE",
"189 503 OFFCURVE",
"290 610 OFFCURVE",
"429 610 CURVE",
"470 610 OFFCURVE",
"509 597 OFFCURVE",
"541 576 CURVE",
"590 659 LINE",
"544 689 OFFCURVE",
"487 706 OFFCURVE",
"429 706 CURVE",
"237 706 OFFCURVE",
"92 556 OFFCURVE",
"92 350 CURVE",
"92 121 OFFCURVE",
"248 -10 OFFCURVE",
"429 -10 CURVE"
);
}
);
width = 646;
},
{
layerId = "950578AD-3C55-42C9-B412-F732192F54B4";
width = 600;
}
);
note = Euro;
unicode = 20AC;
},
{
glyphname = florin;
lastChange = "2018-05-01 19:44:14 +0000";
layers = (
{
layerId = "3D0525B3-6B2A-4787-8D58-1F6DD6CCA7DC";
paths = (
{
closed = 1;
nodes = (
"182 -31 OFFCURVE",
"234 17 OFFCURVE",
"253 119 CURVE SMOOTH",
"324 523 LINE SMOOTH",
"334 579 OFFCURVE",
"362 608 OFFCURVE",
"417 608 CURVE SMOOTH",
"441 608 OFFCURVE",
"464 601 OFFCURVE",
"486 593 CURVE",
"516 657 LINE",
"481 681 OFFCURVE",
"444 692 OFFCURVE",
"398 692 CURVE SMOOTH",
"294 692 OFFCURVE",
"244 635 OFFCURVE",
"227 538 CURVE SMOOTH",
"155 129 LINE SMOOTH",
"147 86 OFFCURVE",
"127 54 OFFCURVE",
"90 54 CURVE SMOOTH",
"68 54 OFFCURVE",
"52 58 OFFCURVE",
"32 69 CURVE",
"4 1 LINE",
"20 -13 OFFCURVE",
"55 -31 OFFCURVE",
"96 -31 CURVE SMOOTH"
);
},
{
closed = 1;
nodes = (
"440 361 LINE",
"440 444 LINE",
"111 445 LINE",
"111 362 LINE"
);
}
);
width = 519;
},
{
layerId = "950578AD-3C55-42C9-B412-F732192F54B4";
width = 600;
}
);
note = florin;
unicode = 0192;
},
{
glyphname = kip;
lastChange = "2018-05-01 19:44:14 +0000";
layers = (
{
components = (
{
name = K;
}
);
layerId = "3D0525B3-6B2A-4787-8D58-1F6DD6CCA7DC";
paths = (
{
closed = 1;
nodes = (
"350 320 LINE",
"605 320 LINE",
"605 415 LINE",
"350 415 LINE"
);
},
{
closed = 1;
nodes = (
"176 415 LINE",
"3 415 LINE",
"3 320 LINE",
"172 320 LINE"
);
}
);
width = 701;
},
{
layerId = "950578AD-3C55-42C9-B412-F732192F54B4";
width = 600;
}
);
rightMetricsKey = K;
unicode = 20AD;
},
{
glyphname = lira;
lastChange = "2018-05-01 19:44:14 +0000";
layers = (
{
components = (
{
name = sterling;
}
);
layerId = "3D0525B3-6B2A-4787-8D58-1F6DD6CCA7DC";
paths = (
{
closed = 1;
nodes = (
"442 203 LINE",
"442 288 LINE",
"34 288 LINE",
"34 203 LINE"
);
}
);
width = 620;
},
{
layerId = "950578AD-3C55-42C9-B412-F732192F54B4";
width = 600;
}
);
unicode = 20A4;
},
{
glyphname = liraTurkish;
lastChange = "2018-05-01 19:44:14 +0000";
layers = (
{
layerId = "3D0525B3-6B2A-4787-8D58-1F6DD6CCA7DC";
paths = (
{
closed = 1;
nodes = (
"391 -10 OFFCURVE",
"548 89 OFFCURVE",
"560 193 CURVE",
"468 219 LINE",
"433 124 OFFCURVE",
"324 87 OFFCURVE",
"244 87 CURVE",
"255 52 LINE",
"254 700 LINE",
"156 700 LINE",
"156 0 LINE",
"173 -8 OFFCURVE",
"200 -10 OFFCURVE",
"237 -10 CURVE"
);
},
{
closed = 1;
nodes = (
"67 336 LINE",
"412 528 LINE",
"368 595 LINE",
"28 404 LINE"
);
},
{
closed = 1;
nodes = (
"87 176 LINE",
"432 368 LINE",
"388 435 LINE",
"48 244 LINE"
);
}
);
width = 609;
},
{
layerId = "950578AD-3C55-42C9-B412-F732192F54B4";
width = 600;
}
);
unicode = 20BA;
},
{
glyphname = manat;
lastChange = "2018-05-02 17:05:57 +0000";
layers = (
{
components = (
{
name = U;
transform = "{-1, 0, 0, -1, 760, 694}";
}
);
layerId = "3D0525B3-6B2A-4787-8D58-1F6DD6CCA7DC";
paths = (
{
closed = 1;
nodes = (
"436 801 LINE",
"339 801 LINE",
"339 254 LINE",
"436 254 LINE"
);
}
);
width = 760;
},
{
layerId = "950578AD-3C55-42C9-B412-F732192F54B4";
width = 600;
}
);
leftMetricsKey = H;
rightMetricsKey = H;
unicode = 20BC;
},
{
glyphname = naira;
lastChange = "2018-05-02 18:02:10 +0000";
layers = (
{
components = (
{
name = N;
}
);
layerId = "3D0525B3-6B2A-4787-8D58-1F6DD6CCA7DC";
paths = (
{
closed = 1;
nodes = (
"102 314 LINE",
"132 321 LINE",
"646 321 LINE",
"687 314 LINE",
"785 314 LINE",
"785 407 LINE",
"692 407 LINE",
"650 400 LINE",
"138 400 LINE",
"104 407 LINE",
"10 407 LINE",
"10 314 LINE"
);
}
);
width = 795;
},
{
layerId = "950578AD-3C55-42C9-B412-F732192F54B4";
width = 600;
}
);
unicode = 20A6;
},
{
glyphname = peseta;
lastChange = "2018-05-01 19:44:14 +0000";
layers = (
{
components = (
{
name = P;
}
);
layerId = "3D0525B3-6B2A-4787-8D58-1F6DD6CCA7DC";
paths = (
{
closed = 1;
nodes = (
"641 435 LINE",
"641 528 LINE",
"10 528 LINE",
"10 435 LINE"
);
}
);
width = 600;
},
{
layerId = "950578AD-3C55-42C9-B412-F732192F54B4";
width = 600;
}
);
unicode = 20A7;
},
{
glyphname = peso;
lastChange = "2018-05-01 19:44:14 +0000";
layers = (
{
components = (
{
name = P;
}
);
layerId = "3D0525B3-6B2A-4787-8D58-1F6DD6CCA7DC";
paths = (
{
closed = 1;
nodes = (
"123 393 LINE",
"147 407 LINE",
"471 407 LINE",
"503 393 LINE",
"625 393 LINE",
"625 467 LINE",
"508 467 LINE",
"473 457 LINE",
"149 457 LINE",
"126 467 LINE",
"10 467 LINE",
"10 393 LINE"
);
},
{
closed = 1;
nodes = (
"124 508 LINE",
"150 516 LINE",
"473 516 LINE",
"509 508 LINE",
"625 508 LINE",
"625 580 LINE",
"504 580 LINE",
"467 566 LINE",
"151 566 LINE",
"129 580 LINE",
"10 580 LINE",
"10 508 LINE"
);
}
);
width = 600;
},
{
layerId = "950578AD-3C55-42C9-B412-F732192F54B4";
width = 600;
}
);
unicode = 20B1;
},
{
glyphname = ruble;
lastChange = "2018-05-01 19:44:14 +0000";
layers = (
{
components = (
{
name = P;
},
{
name = strokeshortcomb;
transform = "{1, 0, 0, 1, -45, -134}";
}
);
layerId = "3D0525B3-6B2A-4787-8D58-1F6DD6CCA7DC";
paths = (
{
closed = 1;
nodes = (
"109 364 LINE",
"6 364 LINE",
"6 271 LINE",
"109 271 LINE"
);
}
);
width = 600;
},
{
layerId = "950578AD-3C55-42C9-B412-F732192F54B4";
width = 600;
}
);
unicode = 20BD;
},
{
glyphname = rupeeIndian;
lastChange = "2018-05-01 19:44:14 +0000";
layers = (
{
anchors = (
{
name = center;
position = "{383, 497}";
}
);
components = (
{
name = strokeshortcomb;
transform = "{1, 0, 0, 1, 193, 182}";
}
);
layerId = "3D0525B3-6B2A-4787-8D58-1F6DD6CCA7DC";
paths = (
{
closed = 1;
nodes = (
"317 596 LINE",
"507 596 LINE",
"507 700 LINE",
"69 700 LINE",
"69 596 LINE",
"200 596 LINE SMOOTH",
"270 596 OFFCURVE",
"329 551 OFFCURVE",
"329 478 CURVE",
"329 421 OFFCURVE",
"292 367 OFFCURVE",
"228 367 CURVE",
"115 367 LINE",
"115 263 LINE",
"218 263 LINE",
"342 263 OFFCURVE",
"439 365 OFFCURVE",
"439 477 CURVE",
"439 590 OFFCURVE",
"327 660 OFFCURVE",
"218 660 CURVE"
);
},
{
closed = 1;
nodes = (
"170 316 LINE",
"348 0 LINE",
"479 -1 LINE",
"281 341 LINE"
);
}
);
width = 541;
},
{
layerId = "950578AD-3C55-42C9-B412-F732192F54B4";
width = 600;
}
);
unicode = 20B9;
},
{
glyphname = sterling;
lastChange = "2018-05-01 19:44:14 +0000";
layers = (
{
layerId = "3D0525B3-6B2A-4787-8D58-1F6DD6CCA7DC";
paths = (
{
closed = 1;
nodes = (
"442 323 LINE",
"442 408 LINE",
"34 408 LINE",
"34 323 LINE"
);
},
{
closed = 1;
nodes = (
"135 114 OFFCURVE",
"70 96 OFFCURVE",
"20 65 CURVE",
"60 -6 LINE",
"72 -1 OFFCURVE",
"89 6 OFFCURVE",
"111 12 CURVE SMOOTH",
"129 17 OFFCURVE",
"170 26 OFFCURVE",
"204 26 CURVE",
"254 26 OFFCURVE",
"356 -20 OFFCURVE",
"415 -21 CURVE",
"478 -21 OFFCURVE",
"538 0 OFFCURVE",
"580 37 CURVE",
"528 102 LINE",
"502 86 OFFCURVE",
"463 67 OFFCURVE",
"415 67 CURVE",
"357 67 OFFCURVE",
"286 114 OFFCURVE",
"217 114 CURVE"
);
},
{
closed = 1;
nodes = (
"222 90 OFFCURVE",
"265 146 OFFCURVE",
"265 224 CURVE",
"265 301 OFFCURVE",
"204 406 OFFCURVE",
"204 486 CURVE",
"204 556 OFFCURVE",
"250 617 OFFCURVE",
"330 617 CURVE",
"379 617 OFFCURVE",
"416 600 OFFCURVE",
"445 569 CURVE",
"519 625 LINE",
"492 671 OFFCURVE",
"430 710 OFFCURVE",
"330 710 CURVE",
"189 710 OFFCURVE",
"104 618 OFFCURVE",
"104 487 CURVE",
"104 395 OFFCURVE",
"165 304 OFFCURVE",
"165 201 CURVE",
"165 136 OFFCURVE",
"137 88 OFFCURVE",
"112 74 CURVE",
"187 53 LINE"
);
}
);
width = 620;
},
{
layerId = "950578AD-3C55-42C9-B412-F732192F54B4";
width = 600;
}
);
note = sterling;
unicode = 00A3;
},
{
glyphname = won;
lastChange = "2018-05-01 19:44:14 +0000";
layers = (
{
components = (
{
name = W;
}
);
layerId = "3D0525B3-6B2A-4787-8D58-1F6DD6CCA7DC";
paths = (
{
closed = 1;
nodes = (
"154 322 LINE",
"202 336 LINE",
"740 336 LINE",
"789 322 LINE",
"925 322 LINE",
"925 415 LINE",
"812 415 LINE",
"776 401 LINE",
"173 401 LINE",
"140 415 LINE",
"21 415 LINE",
"21 322 LINE"
);
}
);
width = 952;
},
{
layerId = "950578AD-3C55-42C9-B412-F732192F54B4";
width = 600;
}
);
unicode = 20A9;
},
{
glyphname = yen;
lastChange = "2018-05-02 18:02:24 +0000";
layers = (
{
anchors = (
{
name = bottom;
position = "{295, -1}";
},
{
name = top;
position = "{291, 700}";
},
{
name = topleft;
position = "{20, 700}";
}
);
components = (
{
name = Y;
}
);
layerId = "3D0525B3-6B2A-4787-8D58-1F6DD6CCA7DC";
paths = (
{
closed = 1;
nodes = (
"558 88 LINE",
"558 174 LINE",
"146 176 LINE",
"146 90 LINE"
);
},
{
closed = 1;
nodes = (
"558 228 LINE",
"558 314 LINE",
"146 316 LINE",
"146 230 LINE"
);
}
);
width = 688;
},
{
layerId = "950578AD-3C55-42C9-B412-F732192F54B4";
width = 600;
}
);
leftMetricsKey = Y;
note = yen;
rightMetricsKey = Y;
unicode = 00A5;
},
{
glyphname = bulletoperator;
lastChange = "2018-05-01 19:44:14 +0000";
layers = (
{
layerId = "3D0525B3-6B2A-4787-8D58-1F6DD6CCA7DC";
paths = (
{
closed = 1;
nodes = (
"161 229 OFFCURVE",
"194 261 OFFCURVE",
"194 301 CURVE SMOOTH",
"194 340 OFFCURVE",
"161 373 OFFCURVE",
"123 373 CURVE SMOOTH",
"83 373 OFFCURVE",
"50 340 OFFCURVE",
"50 301 CURVE SMOOTH",
"50 261 OFFCURVE",
"83 229 OFFCURVE",
"123 229 CURVE SMOOTH"
);
}
);
width = 244;
},
{
layerId = "950578AD-3C55-42C9-B412-F732192F54B4";
width = 600;
}
);
note = bulletoperator;
unicode = 2219;
},
{
glyphname = divisionslash;
lastChange = "2018-05-01 19:44:14 +0000";
layers = (
{
layerId = "3D0525B3-6B2A-4787-8D58-1F6DD6CCA7DC";
paths = (
{
closed = 1;
nodes = (
"105 -107 LINE",
"529 756 LINE",
"447 756 LINE",
"23 -107 LINE"
);
}
);
width = 551;
},
{
layerId = "950578AD-3C55-42C9-B412-F732192F54B4";
width = 600;
}
);
note = divisionslash;
unicode = 2215;
},
{
glyphname = plus;
lastChange = "2018-05-01 19:44:14 +0000";
layers = (
{
layerId = "3D0525B3-6B2A-4787-8D58-1F6DD6CCA7DC";
paths = (
{
closed = 1;
nodes = (
"546 235 LINE",
"546 325 LINE",
"45 325 LINE",
"45 235 LINE"
);
},
{
closed = 1;
nodes = (
"347 42 LINE",
"347 525 LINE",
"242 525 LINE",
"242 42 LINE"
);
}
);
width = 591;
},
{
layerId = "950578AD-3C55-42C9-B412-F732192F54B4";
width = 600;
}
);
note = plus;
unicode = 002B;
},
{
glyphname = minus;
lastChange = "2018-05-01 19:44:14 +0000";
layers = (
{
layerId = "3D0525B3-6B2A-4787-8D58-1F6DD6CCA7DC";
paths = (
{
closed = 1;
nodes = (
"530 247 LINE",
"530 336 LINE",
"50 336 LINE",
"50 247 LINE"
);
}
);
width = 580;
},
{
layerId = "950578AD-3C55-42C9-B412-F732192F54B4";
width = 600;
}
);
note = minus;
unicode = 2212;
},
{
glyphname = multiply;
lastChange = "2018-05-01 19:44:14 +0000";
layers = (
{
layerId = "3D0525B3-6B2A-4787-8D58-1F6DD6CCA7DC";
paths = (
{
closed = 1;
nodes = (
"449 137 LINE",
"99 486 LINE",
"35 426 LINE",
"385 78 LINE"
);
},
{
closed = 1;
nodes = (
"98 71 LINE",
"447 422 LINE",
"387 486 LINE",
"39 136 LINE"
);
}
);
width = 484;
},
{
layerId = "950578AD-3C55-42C9-B412-F732192F54B4";
width = 600;
}
);
note = multiply;
unicode = 00D7;
},
{
glyphname = divide;
lastChange = "2018-05-01 19:44:14 +0000";
layers = (
{
layerId = "3D0525B3-6B2A-4787-8D58-1F6DD6CCA7DC";
paths = (
{
closed = 1;
nodes = (
"227 401 OFFCURVE",
"257 372 OFFCURVE",
"293 372 CURVE SMOOTH",
"328 372 OFFCURVE",
"358 401 OFFCURVE",
"358 436 CURVE SMOOTH",
"358 473 OFFCURVE",
"328 502 OFFCURVE",
"293 502 CURVE SMOOTH",
"257 502 OFFCURVE",
"227 473 OFFCURVE",
"227 436 CURVE SMOOTH"
);
},
{
closed = 1;
nodes = (
"227 44 OFFCURVE",
"257 15 OFFCURVE",
"293 15 CURVE SMOOTH",
"328 15 OFFCURVE",
"358 44 OFFCURVE",
"358 80 CURVE SMOOTH",
"358 116 OFFCURVE",
"328 145 OFFCURVE",
"293 145 CURVE SMOOTH",
"257 145 OFFCURVE",
"227 116 OFFCURVE",
"227 80 CURVE SMOOTH"
);
},
{
closed = 1;
nodes = (
"547 215 LINE",
"547 305 LINE",
"50 305 LINE",
"50 215 LINE"
);
}
);
width = 597;
},
{
layerId = "950578AD-3C55-42C9-B412-F732192F54B4";
width = 600;
}
);
note = divide;
unicode = 00F7;
},
{
glyphname = equal;
lastChange = "2018-05-01 19:44:14 +0000";
layers = (
{
layerId = "3D0525B3-6B2A-4787-8D58-1F6DD6CCA7DC";
paths = (
{
closed = 1;
nodes = (
"516 331 LINE",
"516 421 LINE",
"50 421 LINE",
"50 331 LINE"
);
},
{
closed = 1;
nodes = (
"516 142 LINE",
"516 231 LINE",
"50 231 LINE",
"50 142 LINE"
);
}
);
width = 566;
},
{
layerId = "950578AD-3C55-42C9-B412-F732192F54B4";
width = 600;
}
);
note = equal;
unicode = 003D;
},
{
glyphname = notequal;
lastChange = "2018-05-01 19:44:14 +0000";
layers = (
{
layerId = "3D0525B3-6B2A-4787-8D58-1F6DD6CCA7DC";
paths = (
{
closed = 1;
nodes = (
"516 331 LINE",
"516 421 LINE",
"50 421 LINE",
"50 331 LINE"
);
},
{
closed = 1;
nodes = (
"516 142 LINE",
"516 231 LINE",
"50 231 LINE",
"50 142 LINE"
);
},
{
closed = 1;
nodes = (
"181 28 LINE",
"454 537 LINE",
"368 536 LINE",
"99 28 LINE"
);
}
);
width = 566;
},
{
layerId = "950578AD-3C55-42C9-B412-F732192F54B4";
width = 600;
}
);
note = notequal;
unicode = 2260;
},
{
glyphname = greater;
lastChange = "2018-05-01 19:44:14 +0000";
layers = (
{
layerId = "3D0525B3-6B2A-4787-8D58-1F6DD6CCA7DC";
paths = (
{
closed = 1;
nodes = (
"420 285 LINE",
"61 79 LINE",
"109 4 LINE",
"470 211 LINE",
"470 292 LINE",
"109 499 LINE",
"61 424 LINE",
"420 218 LINE"
);
}
);
width = 527;
},
{
layerId = "950578AD-3C55-42C9-B412-F732192F54B4";
width = 600;
}
);
note = greater;
unicode = 003E;
},
{
glyphname = less;
lastChange = "2018-05-01 19:44:14 +0000";
layers = (
{
layerId = "3D0525B3-6B2A-4787-8D58-1F6DD6CCA7DC";
paths = (
{
closed = 1;
nodes = (
"98 218 LINE",
"457 424 LINE",
"409 499 LINE",
"48 292 LINE",
"48 211 LINE",
"409 4 LINE",
"457 79 LINE",
"98 285 LINE"
);
}
);
width = 524;
},
{
layerId = "950578AD-3C55-42C9-B412-F732192F54B4";
width = 600;
}
);
note = less;
unicode = 003C;
},
{
glyphname = greaterequal;
lastChange = "2018-05-01 19:44:14 +0000";
layers = (
{
layerId = "3D0525B3-6B2A-4787-8D58-1F6DD6CCA7DC";
paths = (
{
closed = 1;
nodes = (
"561 0 LINE",
"561 90 LINE",
"64 90 LINE",
"64 0 LINE"
);
},
{
closed = 1;
nodes = (
"72 437 LINE",
"460 294 LINE",
"455 357 LINE",
"65 212 LINE",
"94 138 LINE",
"526 295 LINE",
"526 360 LINE",
"94 518 LINE"
);
}
);
width = 627;
},
{
layerId = "950578AD-3C55-42C9-B412-F732192F54B4";
width = 600;
}
);
note = greaterequal;
unicode = 2265;
},
{
glyphname = lessequal;
lastChange = "2018-05-01 19:44:14 +0000";
layers = (
{
layerId = "3D0525B3-6B2A-4787-8D58-1F6DD6CCA7DC";
paths = (
{
closed = 1;
nodes = (
"561 0 LINE",
"561 90 LINE",
"64 90 LINE",
"64 0 LINE"
);
},
{
closed = 1;
nodes = (
"519 219 LINE",
"131 362 LINE",
"136 299 LINE",
"526 444 LINE",
"497 518 LINE",
"65 361 LINE",
"65 296 LINE",
"497 138 LINE"
);
}
);
width = 627;
},
{
layerId = "950578AD-3C55-42C9-B412-F732192F54B4";
width = 600;
}
);
note = lessequal;
unicode = 2264;
},
{
glyphname = plusminus;
lastChange = "2018-05-01 19:44:14 +0000";
layers = (
{
layerId = "3D0525B3-6B2A-4787-8D58-1F6DD6CCA7DC";
paths = (
{
closed = 1;
nodes = (
"525 285 LINE",
"525 375 LINE",
"43 375 LINE",
"43 285 LINE"
);
},
{
closed = 1;
nodes = (
"337 143 LINE",
"337 534 LINE",
"233 534 LINE",
"233 143 LINE"
);
},
{
closed = 1;
nodes = (
"525 -1 LINE",
"525 91 LINE",
"43 91 LINE",
"43 -1 LINE"
);
}
);
width = 557;
},
{
layerId = "950578AD-3C55-42C9-B412-F732192F54B4";
width = 600;
}
);
note = plusminus;
unicode = 00B1;
},
{
glyphname = approxequal;
lastChange = "2018-05-01 19:44:14 +0000";
layers = (
{
layerId = "3D0525B3-6B2A-4787-8D58-1F6DD6CCA7DC";
paths = (
{
closed = 1;
nodes = (
"476 284 OFFCURVE",
"509 341 OFFCURVE",
"509 415 CURVE",
"435 413 LINE",
"439 380 OFFCURVE",
"425 359 OFFCURVE",
"400 359 CURVE",
"352 359 OFFCURVE",
"236 433 OFFCURVE",
"172 433 CURVE",
"88 433 OFFCURVE",
"50 379 OFFCURVE",
"50 309 CURVE",
"124 314 LINE",
"123 341 OFFCURVE",
"138 358 OFFCURVE",
"161 358 CURVE",
"209 358 OFFCURVE",
"331 284 OFFCURVE",
"395 284 CURVE"
);
},
{
closed = 1;
nodes = (
"476 101 OFFCURVE",
"509 158 OFFCURVE",
"509 232 CURVE",
"435 230 LINE",
"439 197 OFFCURVE",
"425 176 OFFCURVE",
"400 176 CURVE",
"352 176 OFFCURVE",
"236 250 OFFCURVE",
"172 250 CURVE",
"88 250 OFFCURVE",
"50 196 OFFCURVE",
"50 126 CURVE",
"124 131 LINE",
"123 158 OFFCURVE",
"138 175 OFFCURVE",
"161 175 CURVE",
"209 175 OFFCURVE",
"331 101 OFFCURVE",
"395 101 CURVE"
);
}
);
width = 559;
},
{
layerId = "950578AD-3C55-42C9-B412-F732192F54B4";
width = 600;
}
);
note = approxequal;
unicode = 2248;
},
{
glyphname = asciitilde;
lastChange = "2018-05-01 19:44:14 +0000";
layers = (
{
layerId = "3D0525B3-6B2A-4787-8D58-1F6DD6CCA7DC";
paths = (
{
closed = 1;
nodes = (
"437 225 OFFCURVE",
"470 277 OFFCURVE",
"470 354 CURVE",
"396 357 LINE",
"399 328 OFFCURVE",
"383 309 OFFCURVE",
"361 309 CURVE",
"322 309 OFFCURVE",
"217 369 OFFCURVE",
"162 369 CURVE SMOOTH",
"78 369 OFFCURVE",
"40 311 OFFCURVE",
"40 227 CURVE",
"114 227 LINE",
"114 266 OFFCURVE",
"129 285 OFFCURVE",
"151 285 CURVE SMOOTH",
"191 285 OFFCURVE",
"302 225 OFFCURVE",
"356 225 CURVE"
);
}
);
width = 510;
},
{
layerId = "950578AD-3C55-42C9-B412-F732192F54B4";
width = 600;
}
);
note = asciitilde;
unicode = 007E;
},
{
glyphname = logicalnot;
lastChange = "2018-05-01 19:44:14 +0000";
layers = (
{
layerId = "3D0525B3-6B2A-4787-8D58-1F6DD6CCA7DC";
paths = (
{
closed = 1;
nodes = (
"620 117 LINE",
"620 404 LINE",
"50 404 LINE",
"50 307 LINE",
"534 307 LINE",
"515 319 LINE",
"515 117 LINE"
);
}
);
width = 670;
},
{
layerId = "950578AD-3C55-42C9-B412-F732192F54B4";
width = 600;
}
);
note = logicalnot;
unicode = 00AC;
},
{
glyphname = asciicircum;
lastChange = "2018-05-01 19:44:14 +0000";
layers = (
{
layerId = "3D0525B3-6B2A-4787-8D58-1F6DD6CCA7DC";
paths = (
{
closed = 1;
nodes = (
"142 368 LINE",
"301 636 LINE",
"281 633 LINE",
"436 368 LINE",
"551 368 LINE",
"340 727 LINE",
"240 727 LINE",
"29 368 LINE"
);
}
);
width = 579;
},
{
layerId = "950578AD-3C55-42C9-B412-F732192F54B4";
width = 600;
}
);
note = asciicircum;
unicode = 005E;
},
{
glyphname = emptyset;
lastChange = "2018-05-01 19:44:14 +0000";
layers = (
{
components = (
{
name = o;
}
);
layerId = "3D0525B3-6B2A-4787-8D58-1F6DD6CCA7DC";
paths = (
{
closed = 1;
nodes = (
"98 -13 LINE",
"592 469 LINE",
"531 535 LINE",
"34 53 LINE"
);
}
);
width = 621;
},
{
layerId = "950578AD-3C55-42C9-B412-F732192F54B4";
width = 600;
}
);
note = emptyset;
unicode = 2205;
},
{
glyphname = infinity;
lastChange = "2018-05-01 19:44:14 +0000";
layers = (
{
layerId = "3D0525B3-6B2A-4787-8D58-1F6DD6CCA7DC";
paths = (
{
closed = 1;
nodes = (
"284 47 OFFCURVE",
"324 76 OFFCURVE",
"371 125 CURVE SMOOTH",
"542 306 LINE SMOOTH",
"570 334 OFFCURVE",
"607 355 OFFCURVE",
"645 355 CURVE SMOOTH",
"691 355 OFFCURVE",
"739 320 OFFCURVE",
"739 242 CURVE SMOOTH",
"739 164 OFFCURVE",
"694 129 OFFCURVE",
"645 129 CURVE SMOOTH",
"609 129 OFFCURVE",
"578 145 OFFCURVE",
"547 177 CURVE SMOOTH",
"379 353 LINE SMOOTH",
"328 406 OFFCURVE",
"288 437 OFFCURVE",
"215 437 CURVE SMOOTH",
"128 437 OFFCURVE",
"45 375 OFFCURVE",
"45 242 CURVE SMOOTH",
"45 109 OFFCURVE",
"125 47 OFFCURVE",
"213 47 CURVE SMOOTH"
);
},
{
closed = 1;
nodes = (
"173 129 OFFCURVE",
"128 164 OFFCURVE",
"128 242 CURVE SMOOTH",
"128 320 OFFCURVE",
"175 355 OFFCURVE",
"221 355 CURVE SMOOTH",
"260 355 OFFCURVE",
"297 334 OFFCURVE",
"324 306 CURVE SMOOTH",
"496 125 LINE SMOOTH",
"542 77 OFFCURVE",
"583 47 OFFCURVE",
"654 47 CURVE SMOOTH",
"742 47 OFFCURVE",
"822 109 OFFCURVE",
"822 242 CURVE SMOOTH",
"822 375 OFFCURVE",
"739 437 OFFCURVE",
"652 437 CURVE SMOOTH",
"579 437 OFFCURVE",
"539 407 OFFCURVE",
"488 353 CURVE SMOOTH",
"320 177 LINE SMOOTH",
"290 145 OFFCURVE",
"258 129 OFFCURVE",
"222 129 CURVE SMOOTH"
);
}
);
width = 867;
},
{
layerId = "950578AD-3C55-42C9-B412-F732192F54B4";
width = 600;
}
);
unicode = 221E;
},
{
glyphname = integral;
lastChange = "2018-05-01 19:44:14 +0000";
layers = (
{
layerId = "3D0525B3-6B2A-4787-8D58-1F6DD6CCA7DC";
paths = (
{
closed = 1;
nodes = (
"204 -127 OFFCURVE",
"267 -67 OFFCURVE",
"290 71 CURVE SMOOTH",
"370 550 LINE SMOOTH",
"378 597 OFFCURVE",
"397 644 OFFCURVE",
"445 644 CURVE SMOOTH",
"465 644 OFFCURVE",
"499 636 OFFCURVE",
"532 615 CURVE",
"561 710 LINE",
"534 733 OFFCURVE",
"496 745 OFFCURVE",
"444 745 CURVE SMOOTH",
"353 745 OFFCURVE",
"292 685 OFFCURVE",
"268 547 CURVE SMOOTH",
"187 68 LINE SMOOTH",
"179 21 OFFCURVE",
"156 -21 OFFCURVE",
"113 -21 CURVE SMOOTH",
"94 -21 OFFCURVE",
"66 -15 OFFCURVE",
"47 0 CURVE",
"0 -81 LINE",
"34 -106 OFFCURVE",
"76 -127 OFFCURVE",
"111 -127 CURVE SMOOTH"
);
}
);
width = 553;
},
{
layerId = "950578AD-3C55-42C9-B412-F732192F54B4";
width = 600;
}
);
note = integral;
unicode = 222B;
},
{
glyphname = Ohm;
lastChange = "2018-05-01 19:44:14 +0000";
layers = (
{
layerId = "3D0525B3-6B2A-4787-8D58-1F6DD6CCA7DC";
paths = (
{
closed = 1;
nodes = (
"161 710 OFFCURVE",
"25 581 OFFCURVE",
"25 404 CURVE",
"25 267 OFFCURVE",
"110 141 OFFCURVE",
"185 65 CURVE",
"210 97 LINE",
"39 97 LINE",
"39 0 LINE",
"287 0 LINE",
"287 56 LINE",
"221 149 OFFCURVE",
"123 226 OFFCURVE",
"123 403 CURVE",
"123 524 OFFCURVE",
"215 613 OFFCURVE",
"338 613 CURVE",
"460 613 OFFCURVE",
"553 524 OFFCURVE",
"553 403 CURVE",
"553 247 OFFCURVE",
"482 175 OFFCURVE",
"386 56 CURVE",
"386 0 LINE",
"636 0 LINE",
"636 97 LINE",
"472 97 LINE",
"491 66 LINE",
"564 140 OFFCURVE",
"650 268 OFFCURVE",
"650 403 CURVE",
"650 582 OFFCURVE",
"514 710 OFFCURVE",
"338 710 CURVE"
);
}
);
width = 675;
},
{
layerId = "950578AD-3C55-42C9-B412-F732192F54B4";
width = 600;
}
);
note = Ohm;
unicode = 2126;
},
{
glyphname = increment;
lastChange = "2018-05-01 19:44:14 +0000";
layers = (
{
layerId = "3D0525B3-6B2A-4787-8D58-1F6DD6CCA7DC";
paths = (
{
closed = 1;
nodes = (
"340 748 LINE",
"364 736 LINE",
"1 -28 LINE",
"-18 0 LINE",
"724 0 LINE",
"719 -38 LINE"
);
},
{
closed = 1;
nodes = (
"363 530 LINE",
"347 530 LINE",
"579 61 LINE",
"598 83 LINE",
"122 83 LINE",
"132 64 LINE"
);
}
);
width = 711;
},
{
layerId = "950578AD-3C55-42C9-B412-F732192F54B4";
width = 600;
}
);
note = increment;
unicode = 2206;
},
{
glyphname = product;
lastChange = "2018-05-01 19:44:14 +0000";
layers = (
{
layerId = "3D0525B3-6B2A-4787-8D58-1F6DD6CCA7DC";
paths = (
{
closed = 1;
nodes = (
"231 -200 LINE",
"231 641 LINE",
"127 641 LINE",
"127 -200 LINE"
);
},
{
closed = 1;
nodes = (
"680 603 LINE",
"680 700 LINE",
"28 700 LINE",
"28 603 LINE"
);
},
{
closed = 1;
nodes = (
"581 -200 LINE",
"581 656 LINE",
"476 656 LINE",
"476 -200 LINE"
);
}
);
width = 708;
},
{
layerId = "950578AD-3C55-42C9-B412-F732192F54B4";
width = 600;
}
);
note = product;
unicode = 220F;
},
{
glyphname = summation;
lastChange = "2018-05-01 19:44:14 +0000";
layers = (
{
layerId = "3D0525B3-6B2A-4787-8D58-1F6DD6CCA7DC";
paths = (
{
closed = 1;
nodes = (
"480 0 LINE",
"480 81 LINE",
"143 81 LINE",
"146 70 LINE",
"363 331 LINE",
"363 346 LINE",
"147 607 LINE",
"137 594 LINE",
"480 594 LINE",
"480 676 LINE",
"105 676 LINE",
"61 576 LINE",
"291 308 LINE",
"288 367 LINE",
"61 100 LINE",
"105 0 LINE"
);
}
);
width = 523;
},
{
layerId = "950578AD-3C55-42C9-B412-F732192F54B4";
width = 600;
}
);
note = summation;
unicode = 2211;
},
{
glyphname = radical;
lastChange = "2018-05-01 19:44:14 +0000";
layers = (
{
layerId = "3D0525B3-6B2A-4787-8D58-1F6DD6CCA7DC";
paths = (
{
closed = 1;
nodes = (
"281 -130 LINE",
"554 620 LINE",
"492 603 LINE",
"664 603 LINE",
"664 700 LINE",
"473 700 LINE",
"204 -67 LINE",
"259 -88 LINE",
"124 309 LINE",
"15 309 LINE",
"191 -130 LINE"
);
}
);
width = 684;
},
{
layerId = "950578AD-3C55-42C9-B412-F732192F54B4";
width = 600;
}
);
note = radical;
unicode = 221A;
},
{
glyphname = partialdiff;
lastChange = "2018-05-01 19:44:14 +0000";
layers = (
{
layerId = "3D0525B3-6B2A-4787-8D58-1F6DD6CCA7DC";
paths = (
{
closed = 1;
nodes = (
"463 -7 OFFCURVE",
"550 142 OFFCURVE",
"550 280 CURVE",
"550 480 OFFCURVE",
"400 700 OFFCURVE",
"233 735 CURVE",
"202 656 LINE",
"323 613 OFFCURVE",
"450 488 OFFCURVE",
"459 345 CURVE",
"495 362 LINE",
"444 465 OFFCURVE",
"387 536 OFFCURVE",
"282 536 CURVE",
"160 536 OFFCURVE",
"40 417 OFFCURVE",
"40 265 CURVE",
"40 113 OFFCURVE",
"152 -7 OFFCURVE",
"294 -7 CURVE"
);
},
{
closed = 1;
nodes = (
"207 82 OFFCURVE",
"136 162 OFFCURVE",
"136 265 CURVE",
"136 368 OFFCURVE",
"207 446 OFFCURVE",
"297 446 CURVE",
"389 446 OFFCURVE",
"459 365 OFFCURVE",
"459 265 CURVE",
"459 162 OFFCURVE",
"388 82 OFFCURVE",
"297 82 CURVE"
);
}
);
width = 590;
},
{
layerId = "950578AD-3C55-42C9-B412-F732192F54B4";
width = 600;
}
);
leftMetricsKey = o;
note = partialdiff;
rightMetricsKey = o;
unicode = 2202;
},
{
glyphname = micro;
lastChange = "2018-05-01 19:44:14 +0000";
layers = (
{
layerId = "3D0525B3-6B2A-4787-8D58-1F6DD6CCA7DC";
paths = (
{
closed = 1;
nodes = (
"419 525 LINE",
"419 222 LINE SMOOTH",
"419 146 OFFCURVE",
"363 80 OFFCURVE",
"284 80 CURVE SMOOTH",
"202 80 OFFCURVE",
"177 143 OFFCURVE",
"177 222 CURVE SMOOTH",
"177 525 LINE",
"80 525 LINE",
"81 -157 LINE",
"177 -157 LINE",
"177 62 LINE",
"170 49 LINE",
"184 9 OFFCURVE",
"236 -10 OFFCURVE",
"269 -10 CURVE SMOOTH",
"354 -10 OFFCURVE",
"409 58 OFFCURVE",
"421 89 CURVE",
"419 97 LINE",
"419 0 LINE",
"516 0 LINE",
"516 525 LINE"
);
}
);
width = 586;
},
{
layerId = "950578AD-3C55-42C9-B412-F732192F54B4";
width = 600;
}
);
note = uni00B5;
unicode = 00B5;
},
{
glyphname = percent;
lastChange = "2018-05-02 18:09:34 +0000";
layers = (
{
components = (
{
name = fraction;
transform = "{1, 0, 0, 1, 109, 0}";
}
);
layerId = "3D0525B3-6B2A-4787-8D58-1F6DD6CCA7DC";
paths = (
{
closed = 1;
nodes = (
"284 329 OFFCURVE",
"347 414 OFFCURVE",
"347 518 CURVE",
"347 624 OFFCURVE",
"288 709 OFFCURVE",
"194 709 CURVE",
"99 709 OFFCURVE",
"40 624 OFFCURVE",
"40 518 CURVE",
"40 413 OFFCURVE",
"99 329 OFFCURVE",
"193 329 CURVE"
);
},
{
closed = 1;
nodes = (
"148 404 OFFCURVE",
"123 452 OFFCURVE",
"123 518 CURVE",
"123 583 OFFCURVE",
"147 633 OFFCURVE",
"193 633 CURVE",
"239 633 OFFCURVE",
"263 584 OFFCURVE",
"263 518 CURVE",
"263 453 OFFCURVE",
"240 404 OFFCURVE",
"194 404 CURVE"
);
},
{
closed = 1;
nodes = (
"726 -9 OFFCURVE",
"789 76 OFFCURVE",
"789 180 CURVE",
"789 286 OFFCURVE",
"730 371 OFFCURVE",
"636 371 CURVE",
"541 371 OFFCURVE",
"482 286 OFFCURVE",
"482 180 CURVE",
"482 75 OFFCURVE",
"545 -9 OFFCURVE",
"636 -9 CURVE"
);
},
{
closed = 1;
nodes = (
"590 65 OFFCURVE",
"565 114 OFFCURVE",
"565 180 CURVE",
"565 245 OFFCURVE",
"589 295 OFFCURVE",
"636 295 CURVE",
"681 295 OFFCURVE",
"706 246 OFFCURVE",
"706 180 CURVE",
"706 115 OFFCURVE",
"682 65 OFFCURVE",
"636 65 CURVE"
);
}
);
width = 839;
},
{
layerId = "950578AD-3C55-42C9-B412-F732192F54B4";
width = 600;
}
);
note = percent;
unicode = 0025;
},
{
glyphname = perthousand;
lastChange = "2018-05-02 18:09:45 +0000";
layers = (
{
components = (
{
name = fraction;
transform = "{1, 0, 0, 1, 118, 0}";
}
);
layerId = "3D0525B3-6B2A-4787-8D58-1F6DD6CCA7DC";
paths = (
{
closed = 1;
nodes = (
"284 329 OFFCURVE",
"347 414 OFFCURVE",
"347 518 CURVE",
"347 624 OFFCURVE",
"288 709 OFFCURVE",
"194 709 CURVE",
"99 709 OFFCURVE",
"40 624 OFFCURVE",
"40 518 CURVE",
"40 413 OFFCURVE",
"99 329 OFFCURVE",
"193 329 CURVE"
);
},
{
closed = 1;
nodes = (
"148 404 OFFCURVE",
"123 452 OFFCURVE",
"123 518 CURVE",
"123 583 OFFCURVE",
"147 633 OFFCURVE",
"193 633 CURVE",
"239 633 OFFCURVE",
"263 584 OFFCURVE",
"263 518 CURVE",
"263 453 OFFCURVE",
"240 404 OFFCURVE",
"194 404 CURVE"
);
},
{
closed = 1;
nodes = (
"726 -9 OFFCURVE",
"789 76 OFFCURVE",
"789 180 CURVE",
"789 286 OFFCURVE",
"730 371 OFFCURVE",
"636 371 CURVE",
"541 371 OFFCURVE",
"482 286 OFFCURVE",
"482 180 CURVE",
"482 75 OFFCURVE",
"545 -9 OFFCURVE",
"636 -9 CURVE"
);
},
{
closed = 1;
nodes = (
"590 65 OFFCURVE",
"565 114 OFFCURVE",
"565 180 CURVE",
"565 245 OFFCURVE",
"589 295 OFFCURVE",
"636 295 CURVE",
"681 295 OFFCURVE",
"706 246 OFFCURVE",
"706 180 CURVE",
"706 115 OFFCURVE",
"682 65 OFFCURVE",
"636 65 CURVE"
);
},
{
closed = 1;
nodes = (
"1077 -9 OFFCURVE",
"1140 76 OFFCURVE",
"1140 180 CURVE",
"1140 286 OFFCURVE",
"1082 371 OFFCURVE",
"987 371 CURVE",
"893 371 OFFCURVE",
"833 286 OFFCURVE",
"833 180 CURVE",
"833 75 OFFCURVE",
"896 -9 OFFCURVE",
"987 -9 CURVE"
);
},
{
closed = 1;
nodes = (
"941 65 OFFCURVE",
"916 114 OFFCURVE",
"916 180 CURVE",
"916 245 OFFCURVE",
"940 295 OFFCURVE",
"987 295 CURVE",
"1033 295 OFFCURVE",
"1057 246 OFFCURVE",
"1057 180 CURVE",
"1057 115 OFFCURVE",
"1034 65 OFFCURVE",
"987 65 CURVE"
);
}
);
width = 1190;
},
{
layerId = "950578AD-3C55-42C9-B412-F732192F54B4";
width = 600;
}
);
note = perthousand;
unicode = 2030;
},
{
glyphname = lozenge;
lastChange = "2018-05-01 19:44:14 +0000";
layers = (
{
layerId = "3D0525B3-6B2A-4787-8D58-1F6DD6CCA7DC";
paths = (
{
closed = 1;
nodes = (
"254 -106 LINE",
"596 379 LINE",
"592 284 LINE",
"268 728 LINE",
"316 716 LINE",
"4 282 LINE",
"-6 385 LINE",
"346 -106 LINE"
);
},
{
closed = 1;
nodes = (
"132 335 LINE",
"129 316 LINE",
"308 565 LINE",
"288 565 LINE",
"470 310 LINE",
"470 343 LINE",
"290 84 LINE",
"307 82 LINE"
);
}
);
width = 595;
},
{
layerId = "950578AD-3C55-42C9-B412-F732192F54B4";
width = 600;
}
);
note = lozenge;
unicode = 25CA;
},
{
glyphname = at;
lastChange = "2018-05-01 19:44:14 +0000";
layers = (
{
layerId = "3D0525B3-6B2A-4787-8D58-1F6DD6CCA7DC";
paths = (
{
closed = 1;
nodes = (
"825 55 OFFCURVE",
"925 233 OFFCURVE",
"925 396 CURVE",
"925 568 OFFCURVE",
"804 710 OFFCURVE",
"576 710 CURVE",
"278 710 OFFCURVE",
"40 518 OFFCURVE",
"40 206 CURVE",
"40 24 OFFCURVE",
"145 -162 OFFCURVE",
"414 -162 CURVE",
"526 -162 OFFCURVE",
"595 -127 OFFCURVE",
"669 -89 CURVE",
"632 -22 LINE",
"570 -55 OFFCURVE",
"527 -82 OFFCURVE",
"417 -82 CURVE",
"199 -82 OFFCURVE",
"124 59 OFFCURVE",
"124 209 CURVE",
"124 484 OFFCURVE",
"310 630 OFFCURVE",
"572 630 CURVE",
"743 630 OFFCURVE",
"842 538 OFFCURVE",
"842 391 CURVE",
"842 265 OFFCURVE",
"786 137 OFFCURVE",
"700 137 CURVE",
"675 137 OFFCURVE",
"651 156 OFFCURVE",
"658 201 CURVE",
"708 501 LINE",
"607 501 LINE",
"581 331 LINE",
"605 390 LINE",
"598 462 OFFCURVE",
"552 510 OFFCURVE",
"491 510 CURVE",
"337 510 OFFCURVE",
"252 345 OFFCURVE",
"252 237 CURVE",
"252 121 OFFCURVE",
"321 55 OFFCURVE",
"400 55 CURVE",
"467 55 OFFCURVE",
"539 93 OFFCURVE",
"574 202 CURVE",
"560 222 LINE",
"552 168 LINE",
"541 101 OFFCURVE",
"594 55 OFFCURVE",
"669 55 CURVE"
);
},
{
closed = 1;
nodes = (
"383 140 OFFCURVE",
"354 172 OFFCURVE",
"354 232 CURVE",
"354 312 OFFCURVE",
"408 425 OFFCURVE",
"495 425 CURVE",
"551 425 OFFCURVE",
"598 386 OFFCURVE",
"568 286 CURVE",
"559 223 OFFCURVE",
"496 140 OFFCURVE",
"423 140 CURVE"
);
}
);
width = 965;
},
{
layerId = "950578AD-3C55-42C9-B412-F732192F54B4";
width = 600;
}
);
note = at;
unicode = 0040;
},
{
glyphname = ampersand;
lastChange = "2018-05-02 18:13:54 +0000";
layers = (
{
layerId = "3D0525B3-6B2A-4787-8D58-1F6DD6CCA7DC";
paths = (
{
closed = 1;
nodes = (
"516 -10 OFFCURVE",
"623 161 OFFCURVE",
"646 329 CURVE",
"554 329 LINE",
"535 209 OFFCURVE",
"463 85 OFFCURVE",
"326 85 CURVE SMOOTH",
"208 85 OFFCURVE",
"159 156 OFFCURVE",
"159 227 CURVE SMOOTH",
"159 289 OFFCURVE",
"188 340 OFFCURVE",
"285 361 CURVE",
"221 438 LINE",
"104 394 OFFCURVE",
"50 312 OFFCURVE",
"50 212 CURVE SMOOTH",
"50 98 OFFCURVE",
"157 -10 OFFCURVE",
"306 -10 CURVE SMOOTH"
);
},
{
closed = 1;
nodes = (
"709 0 LINE",
"655 55 OFFCURVE",
"485 249 OFFCURVE",
"398 343 CURVE SMOOTH",
"352 393 OFFCURVE",
"280 474 OFFCURVE",
"280 535 CURVE SMOOTH",
"280 581 OFFCURVE",
"306 617 OFFCURVE",
"375 617 CURVE SMOOTH",
"428 617 OFFCURVE",
"464 591 OFFCURVE",
"490 529 CURVE",
"568 579 LINE",
"543 654 OFFCURVE",
"468 710 OFFCURVE",
"375 710 CURVE SMOOTH",
"246 710 OFFCURVE",
"168 628 OFFCURVE",
"168 532 CURVE SMOOTH",
"168 458 OFFCURVE",
"225 387 OFFCURVE",
"295 308 CURVE SMOOTH",
"388 204 OFFCURVE",
"466 113 OFFCURVE",
"575 0 CURVE"
);
}
);
width = 739;
},
{
layerId = "950578AD-3C55-42C9-B412-F732192F54B4";
width = 600;
}
);
note = ampersand;
unicode = 0026;
},
{
glyphname = paragraph;
lastChange = "2018-05-02 17:05:57 +0000";
layers = (
{
layerId = "3D0525B3-6B2A-4787-8D58-1F6DD6CCA7DC";
paths = (
{
closed = 1;
nodes = (
"614 0 LINE",
"614 700 LINE",
"273 700 LINE SMOOTH",
"142 700 OFFCURVE",
"48 620 OFFCURVE",
"48 486 CURVE SMOOTH",
"48 362 OFFCURVE",
"131 279 OFFCURVE",
"236 279 CURVE SMOOTH",
"270 279 LINE",
"246 314 LINE",
"246 0 LINE",
"354 0 LINE",
"354 652 LINE",
"310 596 LINE",
"522 596 LINE",
"506 660 LINE",
"506 0 LINE"
);
}
);
width = 712;
},
{
layerId = "950578AD-3C55-42C9-B412-F732192F54B4";
width = 600;
}
);
leftMetricsKey = O;
note = paragraph;
rightMetricsKey = H;
unicode = 00B6;
},
{
glyphname = section;
lastChange = "2018-05-01 19:44:14 +0000";
layers = (
{
layerId = "3D0525B3-6B2A-4787-8D58-1F6DD6CCA7DC";
paths = (
{
closed = 1;
nodes = (
"517 364 OFFCURVE",
"455 417 OFFCURVE",
"332 444 CURVE SMOOTH",
"282 455 OFFCURVE",
"192 479 OFFCURVE",
"192 541 CURVE SMOOTH",
"192 590 OFFCURVE",
"238 617 OFFCURVE",
"294 617 CURVE SMOOTH",
"343 617 OFFCURVE",
"386 596 OFFCURVE",
"419 562 CURVE",
"476 628 LINE",
"436 677 OFFCURVE",
"381 707 OFFCURVE",
"306 711 CURVE SMOOTH",
"218 716 OFFCURVE",
"94 661 OFFCURVE",
"94 526 CURVE SMOOTH",
"94 472 OFFCURVE",
"118 423 OFFCURVE",
"190 392 CURVE",
"201 437 LINE",
"71 426 OFFCURVE",
"47 327 OFFCURVE",
"47 284 CURVE SMOOTH",
"47 199 OFFCURVE",
"103 146 OFFCURVE",
"209 120 CURVE SMOOTH",
"306 96 OFFCURVE",
"380 71 OFFCURVE",
"380 23 CURVE SMOOTH",
"380 -35 OFFCURVE",
"320 -49 OFFCURVE",
"273 -49 CURVE SMOOTH",
"189 -49 OFFCURVE",
"148 -16 OFFCURVE",
"121 15 CURVE",
"56 -63 LINE",
"95 -106 OFFCURVE",
"191 -140 OFFCURVE",
"274 -140 CURVE SMOOTH",
"430 -140 OFFCURVE",
"478 -23 OFFCURVE",
"478 41 CURVE SMOOTH",
"478 111 OFFCURVE",
"443 145 OFFCURVE",
"373 185 CURVE",
"308 129 LINE",
"437 137 OFFCURVE",
"507 182 OFFCURVE",
"513 278 CURVE SMOOTH"
);
},
{
closed = 1;
nodes = (
"170 241 OFFCURVE",
"154 269 OFFCURVE",
"154 294 CURVE SMOOTH",
"154 342 OFFCURVE",
"199 368 OFFCURVE",
"240 359 CURVE",
"349 332 LINE",
"392 318 OFFCURVE",
"415 299 OFFCURVE",
"415 266 CURVE SMOOTH",
"415 226 OFFCURVE",
"380 195 OFFCURVE",
"330 197 CURVE",
"235 219 LINE"
);
}
);
width = 549;
},
{
layerId = "950578AD-3C55-42C9-B412-F732192F54B4";
width = 600;
}
);
note = section;
unicode = 00A7;
},
{
glyphname = copyright;
lastChange = "2018-05-02 18:16:02 +0000";
layers = (
{
layerId = "3D0525B3-6B2A-4787-8D58-1F6DD6CCA7DC";
paths = (
{
closed = 1;
nodes = (
"589 -7 OFFCURVE",
"750 150 OFFCURVE",
"750 350 CURVE SMOOTH",
"750 550 OFFCURVE",
"589 707 OFFCURVE",
"393 707 CURVE SMOOTH",
"196 707 OFFCURVE",
"36 550 OFFCURVE",
"36 350 CURVE SMOOTH",
"36 150 OFFCURVE",
"196 -7 OFFCURVE",
"393 -7 CURVE SMOOTH"
);
},
{
closed = 1;
nodes = (
"237 67 OFFCURVE",
"110 191 OFFCURVE",
"110 350 CURVE SMOOTH",
"110 510 OFFCURVE",
"237 633 OFFCURVE",
"393 633 CURVE SMOOTH",
"549 633 OFFCURVE",
"676 510 OFFCURVE",
"676 350 CURVE SMOOTH",
"676 191 OFFCURVE",
"549 67 OFFCURVE",
"393 67 CURVE SMOOTH"
);
},
{
closed = 1;
nodes = (
"457 142 OFFCURVE",
"503 156 OFFCURVE",
"544 185 CURVE",
"507 261 LINE",
"477 238 OFFCURVE",
"445 223 OFFCURVE",
"411 223 CURVE SMOOTH",
"341 223 OFFCURVE",
"283 272 OFFCURVE",
"283 350 CURVE SMOOTH",
"283 420 OFFCURVE",
"337 476 OFFCURVE",
"411 476 CURVE SMOOTH",
"446 476 OFFCURVE",
"476 457 OFFCURVE",
"503 437 CURVE",
"540 512 LINE",
"503 540 OFFCURVE",
"457 557 OFFCURVE",
"411 557 CURVE SMOOTH",
"290 557 OFFCURVE",
"197 463 OFFCURVE",
"197 350 CURVE SMOOTH",
"197 223 OFFCURVE",
"298 142 OFFCURVE",
"411 142 CURVE SMOOTH"
);
}
);
width = 786;
},
{
layerId = "950578AD-3C55-42C9-B412-F732192F54B4";
width = 600;
}
);
note = copyright;
unicode = 00A9;
},
{
glyphname = registered;
lastChange = "2018-05-02 18:17:02 +0000";
layers = (
{
layerId = "3D0525B3-6B2A-4787-8D58-1F6DD6CCA7DC";
paths = (
{
closed = 1;
nodes = (
"317 461 OFFCURVE",
"356 485 OFFCURVE",
"356 534 CURVE SMOOTH",
"356 578 OFFCURVE",
"324 606 OFFCURVE",
"282 606 CURVE SMOOTH",
"172 606 LINE",
"172 367 LINE",
"229 367 LINE",
"229 470 LINE",
"211 461 LINE",
"282 461 LINE"
);
},
{
closed = 1;
nodes = (
"213 502 LINE",
"229 495 LINE",
"229 564 LINE",
"210 556 LINE",
"264 556 LINE SMOOTH",
"286 556 OFFCURVE",
"301 548 OFFCURVE",
"301 529 CURVE SMOOTH",
"301 513 OFFCURVE",
"284 502 OFFCURVE",
"262 502 CURVE SMOOTH"
);
},
{
closed = 1;
nodes = (
"376 259 OFFCURVE",
"478 358 OFFCURVE",
"478 484 CURVE SMOOTH",
"478 609 OFFCURVE",
"376 709 OFFCURVE",
"253 709 CURVE SMOOTH",
"129 709 OFFCURVE",
"29 609 OFFCURVE",
"29 484 CURVE SMOOTH",
"29 358 OFFCURVE",
"129 259 OFFCURVE",
"253 259 CURVE SMOOTH"
);
},
{
closed = 1;
nodes = (
"164 322 OFFCURVE",
"91 393 OFFCURVE",
"91 484 CURVE SMOOTH",
"91 575 OFFCURVE",
"164 647 OFFCURVE",
"253 647 CURVE SMOOTH",
"342 647 OFFCURVE",
"415 575 OFFCURVE",
"415 484 CURVE SMOOTH",
"415 393 OFFCURVE",
"342 322 OFFCURVE",
"253 322 CURVE SMOOTH"
);
},
{
closed = 1;
nodes = (
"290 367 LINE",
"352 367 LINE",
"308 481 LINE",
"253 467 LINE"
);
}
);
width = 507;
},
{
layerId = "950578AD-3C55-42C9-B412-F732192F54B4";
width = 600;
}
);
note = registered;
unicode = 00AE;
},
{
glyphname = trademark;
lastChange = "2018-05-01 19:44:14 +0000";
layers = (
{
layerId = "3D0525B3-6B2A-4787-8D58-1F6DD6CCA7DC";
paths = (
{
closed = 1;
nodes = (
"304 626 LINE",
"304 700 LINE",
"29 700 LINE",
"29 626 LINE"
);
},
{
closed = 1;
nodes = (
"202 340 LINE",
"202 676 LINE",
"126 676 LINE",
"126 340 LINE"
);
},
{
closed = 1;
nodes = (
"355 700 LINE",
"355 340 LINE",
"436 340 LINE",
"436 643 LINE",
"379 643 LINE",
"509 418 LINE",
"575 418 LINE",
"699 635 LINE",
"654 635 LINE",
"654 340 LINE",
"737 340 LINE",
"737 700 LINE",
"662 700 LINE",
"515 452 LINE",
"571 452 LINE",
"424 700 LINE"
);
}
);
width = 794;
},
{
layerId = "950578AD-3C55-42C9-B412-F732192F54B4";
width = 600;
}
);
note = trademark;
unicode = 2122;
},
{
glyphname = degree;
lastChange = "2018-05-01 19:44:14 +0000";
layers = (
{
layerId = "3D0525B3-6B2A-4787-8D58-1F6DD6CCA7DC";
paths = (
{
closed = 1;
nodes = (
"276 399 OFFCURVE",
"341 470 OFFCURVE",
"341 554 CURVE",
"341 639 OFFCURVE",
"276 709 OFFCURVE",
"185 709 CURVE",
"94 709 OFFCURVE",
"29 639 OFFCURVE",
"29 553 CURVE",
"29 470 OFFCURVE",
"94 399 OFFCURVE",
"185 399 CURVE"
);
},
{
closed = 1;
nodes = (
"137 466 OFFCURVE",
"104 508 OFFCURVE",
"104 553 CURVE",
"104 601 OFFCURVE",
"137 641 OFFCURVE",
"185 641 CURVE",
"232 641 OFFCURVE",
"266 600 OFFCURVE",
"266 554 CURVE",
"266 508 OFFCURVE",
"232 466 OFFCURVE",
"185 466 CURVE"
);
}
);
width = 370;
},
{
layerId = "950578AD-3C55-42C9-B412-F732192F54B4";
width = 600;
}
);
note = degree;
unicode = 00B0;
},
{
glyphname = bar;
lastChange = "2018-05-01 19:44:14 +0000";
layers = (
{
layerId = "3D0525B3-6B2A-4787-8D58-1F6DD6CCA7DC";
paths = (
{
closed = 1;
nodes = (
"164 740 LINE",
"67 740 LINE",
"67 -193 LINE",
"164 -193 LINE"
);
}
);
width = 231;
},
{
layerId = "950578AD-3C55-42C9-B412-F732192F54B4";
width = 600;
}
);
note = bar;
unicode = 007C;
},
{
glyphname = brokenbar;
lastChange = "2018-05-01 19:44:14 +0000";
layers = (
{
layerId = "3D0525B3-6B2A-4787-8D58-1F6DD6CCA7DC";
paths = (
{
closed = 1;
nodes = (
"168 740 LINE",
"71 740 LINE",
"71 341 LINE",
"168 341 LINE"
);
},
{
closed = 1;
nodes = (
"168 198 LINE",
"71 198 LINE",
"71 -202 LINE",
"168 -202 LINE"
);
}
);
width = 239;
},
{
layerId = "950578AD-3C55-42C9-B412-F732192F54B4";
width = 600;
}
);
note = brokenbar;
unicode = 00A6;
},
{
glyphname = dagger;
lastChange = "2018-05-01 19:44:14 +0000";
layers = (
{
layerId = "3D0525B3-6B2A-4787-8D58-1F6DD6CCA7DC";
paths = (
{
closed = 1;
nodes = (
"171 216 LINE",
"268 216 LINE",
"268 721 LINE",
"171 721 LINE"
);
},
{
closed = 1;
nodes = (
"393 496 LINE",
"393 579 LINE",
"46 579 LINE",
"46 496 LINE"
);
}
);
width = 440;
},
{
layerId = "950578AD-3C55-42C9-B412-F732192F54B4";
width = 600;
}
);
note = dagger;
unicode = 2020;
},
{
glyphname = literSign;
lastChange = "2018-05-01 19:44:14 +0000";
layers = (
{
layerId = "3D0525B3-6B2A-4787-8D58-1F6DD6CCA7DC";
paths = (
{
closed = 1;
nodes = (
"381 88 OFFCURVE",
"342 62 OFFCURVE",
"314 62 CURVE SMOOTH",
"243 62 OFFCURVE",
"200 141 OFFCURVE",
"200 242 CURVE SMOOTH",
"200 355 OFFCURVE",
"270 666 OFFCURVE",
"387 674 CURVE",
"415 672 OFFCURVE",
"436 650 OFFCURVE",
"436 612 CURVE SMOOTH",
"436 484 OFFCURVE",
"306 261 OFFCURVE",
"25 124 CURVE",
"57 67 LINE",
"393 224 OFFCURVE",
"519 473 OFFCURVE",
"519 608 CURVE SMOOTH",
"519 690 OFFCURVE",
"469 746 OFFCURVE",
"388 748 CURVE",
"197 744 OFFCURVE",
"117 427 OFFCURVE",
"117 247 CURVE SMOOTH",
"117 99 OFFCURVE",
"184 -17 OFFCURVE",
"289 -17 CURVE SMOOTH",
"347 -17 OFFCURVE",
"400 9 OFFCURVE",
"442 47 CURVE",
"410 107 LINE"
);
}
);
width = 539;
},
{
layerId = "950578AD-3C55-42C9-B412-F732192F54B4";
width = 600;
}
);
note = uni2113;
unicode = 2113;
},
{
glyphname = daggerdbl;
lastChange = "2018-05-01 19:44:14 +0000";
layers = (
{
layerId = "3D0525B3-6B2A-4787-8D58-1F6DD6CCA7DC";
paths = (
{
closed = 1;
nodes = (
"156 194 LINE",
"253 194 LINE",
"253 724 LINE",
"156 724 LINE"
);
},
{
closed = 1;
nodes = (
"358 512 LINE",
"358 595 LINE",
"46 595 LINE",
"46 512 LINE"
);
},
{
closed = 1;
nodes = (
"358 369 LINE",
"358 452 LINE",
"46 452 LINE",
"46 369 LINE"
);
}
);
width = 404;
},
{
layerId = "950578AD-3C55-42C9-B412-F732192F54B4";
width = 600;
}
);
note = daggerdbl;
unicode = 2021;
},
{
glyphname = estimated;
lastChange = "2018-05-01 19:44:14 +0000";
layers = (
{
layerId = "3D0525B3-6B2A-4787-8D58-1F6DD6CCA7DC";
paths = (
{
closed = 1;
nodes = (
"425 -11 OFFCURVE",
"489 26 OFFCURVE",
"550 115 CURVE SMOOTH",
"553 119 OFFCURVE",
"556 125 OFFCURVE",
"556 130 CURVE SMOOTH",
"556 143 OFFCURVE",
"545 150 OFFCURVE",
"534 150 CURVE SMOOTH",
"527 150 OFFCURVE",
"521 146 OFFCURVE",
"517 139 CURVE",
"467 60 OFFCURVE",
"403 28 OFFCURVE",
"319 28 CURVE SMOOTH",
"258 28 OFFCURVE",
"202 50 OFFCURVE",
"160 92 CURVE SMOOTH",
"159 94 OFFCURVE",
"158 95 OFFCURVE",
"158 98 CURVE SMOOTH",
"158 292 LINE",
"153 285 LINE",
"573 285 LINE SMOOTH",
"588 285 OFFCURVE",
"596 297 OFFCURVE",
"595 309 CURVE SMOOTH",
"585 470 OFFCURVE",
"476 581 OFFCURVE",
"319 581 CURVE SMOOTH",
"151 581 OFFCURVE",
"43 451 OFFCURVE",
"43 285 CURVE SMOOTH",
"43 120 OFFCURVE",
"151 -11 OFFCURVE",
"319 -11 CURVE SMOOTH"
);
},
{
closed = 1;
nodes = (
"149 324 LINE",
"158 314 LINE",
"158 473 LINE SMOOTH",
"158 476 OFFCURVE",
"159 477 OFFCURVE",
"160 479 CURVE SMOOTH",
"201 522 OFFCURVE",
"258 543 OFFCURVE",
"318 543 CURVE SMOOTH",
"378 543 OFFCURVE",
"435 522 OFFCURVE",
"479 478 CURVE",
"481 477 OFFCURVE",
"482 475 OFFCURVE",
"482 473 CURVE SMOOTH",
"482 320 LINE",
"491 324 LINE"
);
}
);
width = 629;
},
{
layerId = "950578AD-3C55-42C9-B412-F732192F54B4";
width = 600;
}
);
note = estimated;
unicode = 212E;
},
{
glyphname = numero;
lastChange = "2018-05-01 19:44:14 +0000";
layers = (
{
components = (
{
name = N;
}
);
layerId = "3D0525B3-6B2A-4787-8D58-1F6DD6CCA7DC";
paths = (
{
closed = 1;
nodes = (
"1142 193 LINE",
"1142 282 LINE",
"796 282 LINE",
"796 193 LINE"
);
},
{
closed = 1;
nodes = (
"1133.2 631 OFFCURVE",
"1058.4 708 OFFCURVE",
"959.4 708 CURVE",
"860.4 708 OFFCURVE",
"787.8 631 OFFCURVE",
"787.8 530.9 CURVE",
"787.8 431.9 OFFCURVE",
"860.4 358.2 OFFCURVE",
"959.4 358.2 CURVE",
"1058.4 358.2 OFFCURVE",
"1133.2 431.9 OFFCURVE",
"1133.2 530.9 CURVE"
);
},
{
closed = 1;
nodes = (
"1042 480 OFFCURVE",
"1010 441 OFFCURVE",
"959 441 CURVE",
"909 441 OFFCURVE",
"878 480 OFFCURVE",
"878 531 CURVE",
"878 585 OFFCURVE",
"909 625 OFFCURVE",
"959 625 CURVE",
"1010 625 OFFCURVE",
"1042 585 OFFCURVE",
"1042 531 CURVE"
);
}
);
width = 1177;
},
{
layerId = "950578AD-3C55-42C9-B412-F732192F54B4";
width = 600;
}
);
unicode = 2116;
},
{
glyphname = firsttonechinese;
lastChange = "2018-05-01 19:44:14 +0000";
layers = (
{
layerId = "3D0525B3-6B2A-4787-8D58-1F6DD6CCA7DC";
paths = (
{
closed = 1;
nodes = (
"441 607 LINE",
"441 700 LINE",
"59 700 LINE",
"59 607 LINE"
);
}
);
width = 500;
},
{
layerId = "950578AD-3C55-42C9-B412-F732192F54B4";
width = 600;
}
);
unicode = 02C9;
},
{
glyphname = ringhalfleft;
lastChange = "2018-05-01 19:44:14 +0000";
layers = (
{
layerId = "3D0525B3-6B2A-4787-8D58-1F6DD6CCA7DC";
paths = (
{
closed = 1;
nodes = (
"142 591 LINE",
"114 591 OFFCURVE",
"94 609 OFFCURVE",
"94 635 CURVE",
"94 669 OFFCURVE",
"122 679 OFFCURVE",
"142 679 CURVE",
"140 741 LINE",
"83 740 OFFCURVE",
"32 693 OFFCURVE",
"32 635 CURVE",
"32 570 OFFCURVE",
"95 530 OFFCURVE",
"142 530 CURVE"
);
}
);
width = 221;
},
{
layerId = "950578AD-3C55-42C9-B412-F732192F54B4";
width = 600;
}
);
unicode = 02BF;
},
{
glyphname = ringhalfright;
lastChange = "2018-05-01 19:44:14 +0000";
layers = (
{
layerId = "3D0525B3-6B2A-4787-8D58-1F6DD6CCA7DC";
paths = (
{
closed = 1;
nodes = (
"62 530 LINE",
"119 530 OFFCURVE",
"171 578 OFFCURVE",
"171 635 CURVE",
"171 693 OFFCURVE",
"120 740 OFFCURVE",
"63 741 CURVE",
"62 679 LINE",
"87 679 OFFCURVE",
"109 664 OFFCURVE",
"109 635 CURVE",
"109 609 OFFCURVE",
"89 591 OFFCURVE",
"62 591 CURVE"
);
}
);
width = 221;
},
{
layerId = "950578AD-3C55-42C9-B412-F732192F54B4";
width = 600;
}
);
unicode = 02BE;
},
{
glyphname = verticallinelowmod;
lastChange = "2018-05-01 19:44:14 +0000";
layers = (
{
layerId = "3D0525B3-6B2A-4787-8D58-1F6DD6CCA7DC";
paths = (
{
closed = 1;
nodes = (
"164 197 LINE",
"67 197 LINE",
"67 -147 LINE",
"164 -147 LINE"
);
}
);
width = 231;
},
{
layerId = "950578AD-3C55-42C9-B412-F732192F54B4";
width = 600;
}
);
unicode = 02CC;
},
{
glyphname = verticallinemod;
lastChange = "2018-05-01 19:44:14 +0000";
layers = (
{
layerId = "3D0525B3-6B2A-4787-8D58-1F6DD6CCA7DC";
paths = (
{
closed = 1;
nodes = (
"164 712 LINE",
"67 712 LINE",
"67 368 LINE",
"164 368 LINE"
);
}
);
width = 231;
},
{
layerId = "950578AD-3C55-42C9-B412-F732192F54B4";
width = 600;
}
);
unicode = 02C8;
},
{
glyphname = dotaccentcomb;
lastChange = "2018-05-02 17:28:42 +0000";
layers = (
{
anchors = (
{
name = _top;
position = "{105, 511}";
},
{
name = top;
position = "{105, 751}";
}
);
layerId = "3D0525B3-6B2A-4787-8D58-1F6DD6CCA7DC";
paths = (
{
closed = 1;
nodes = (
"153 625 OFFCURVE",
"175 657 OFFCURVE",
"175 690 CURVE SMOOTH",
"175 729 OFFCURVE",
"153 755 OFFCURVE",
"106 755 CURVE SMOOTH",
"59 755 OFFCURVE",
"37 723 OFFCURVE",
"37 690 CURVE SMOOTH",
"37 651 OFFCURVE",
"59 625 OFFCURVE",
"106 625 CURVE SMOOTH"
);
}
);
width = 210;
},
{
anchors = (
{
name = _top;
position = "{118, 511}";
},
{
name = top;
position = "{118, 751}";
}
);
layerId = "950578AD-3C55-42C9-B412-F732192F54B4";
paths = (
{
closed = 1;
nodes = (
"166 625 OFFCURVE",
"188 657 OFFCURVE",
"188 690 CURVE SMOOTH",
"188 729 OFFCURVE",
"166 755 OFFCURVE",
"119 755 CURVE SMOOTH",
"72 755 OFFCURVE",
"50 723 OFFCURVE",
"50 690 CURVE SMOOTH",
"50 651 OFFCURVE",
"72 625 OFFCURVE",
"119 625 CURVE SMOOTH"
);
}
);
width = 238;
}
);
unicode = 0307;
},
{
glyphname = hungarumlautcomb;
lastChange = "2018-05-01 19:44:14 +0000";
layers = (
{
anchors = (
{
name = _top;
position = "{172, 512}";
},
{
name = top;
position = "{172, 740}";
}
);
layerId = "3D0525B3-6B2A-4787-8D58-1F6DD6CCA7DC";
paths = (
{
closed = 1;
nodes = (
"225 667 LINE",
"160 749 LINE",
"17 624 LINE",
"51 573 LINE"
);
},
{
closed = 1;
nodes = (
"424 667 LINE",
"359 749 LINE",
"216 624 LINE",
"250 573 LINE"
);
}
);
width = 412;
},
{
layerId = "950578AD-3C55-42C9-B412-F732192F54B4";
width = 600;
}
);
unicode = 030B;
},
{
glyphname = caroncomb;
lastChange = "2018-05-01 20:24:22 +0000";
layers = (
{
anchors = (
{
name = _top;
position = "{180, 510}";
},
{
name = top;
position = "{180, 765}";
}
);
layerId = "3D0525B3-6B2A-4787-8D58-1F6DD6CCA7DC";
paths = (
{
closed = 1;
nodes = (
"196 700 LINE",
"71 773 LINE",
"33 740 LINE",
"138 627 LINE",
"224 627 LINE",
"329 740 LINE",
"291 773 LINE",
"166 700 LINE"
);
}
);
width = 359;
},
{
layerId = "950578AD-3C55-42C9-B412-F732192F54B4";
width = 600;
}
);
unicode = 030C;
},
{
glyphname = ringcomb;
lastChange = "2018-05-01 19:44:14 +0000";
layers = (
{
anchors = (
{
name = _top;
position = "{158, 510}";
},
{
name = top;
position = "{158, 765}";
}
);
layerId = "3D0525B3-6B2A-4787-8D58-1F6DD6CCA7DC";
paths = (
{
closed = 1;
nodes = (
"217 564 OFFCURVE",
"269 612 OFFCURVE",
"269 669 CURVE",
"269 728 OFFCURVE",
"217 775 OFFCURVE",
"159 775 CURVE",
"102 775 OFFCURVE",
"50 728 OFFCURVE",
"50 669 CURVE",
"50 612 OFFCURVE",
"102 564 OFFCURVE",
"159 564 CURVE"
);
},
{
closed = 1;
nodes = (
"132 623 OFFCURVE",
"110 643 OFFCURVE",
"110 669 CURVE",
"110 697 OFFCURVE",
"132 716 OFFCURVE",
"159 716 CURVE",
"185 716 OFFCURVE",
"209 699 OFFCURVE",
"209 669 CURVE",
"209 643 OFFCURVE",
"187 623 OFFCURVE",
"159 623 CURVE"
);
}
);
width = 319;
},
{
layerId = "950578AD-3C55-42C9-B412-F732192F54B4";
width = 600;
}
);
unicode = 030A;
},
{
glyphname = tildecomb;
lastChange = "2018-05-01 20:26:37 +0000";
layers = (
{
anchors = (
{
name = _top;
position = "{203, 513}";
},
{
name = top;
position = "{215, 747}";
}
);
layerId = "3D0525B3-6B2A-4787-8D58-1F6DD6CCA7DC";
paths = (
{
closed = 1;
nodes = (
"113 617 LINE",
"113 658 OFFCURVE",
"127 675 OFFCURVE",
"148 675 CURVE SMOOTH",
"171 675 OFFCURVE",
"191 614 OFFCURVE",
"260 614 CURVE",
"324 614 OFFCURVE",
"358 671 OFFCURVE",
"361 720 CURVE",
"288 736 LINE",
"290 705 OFFCURVE",
"275 686 OFFCURVE",
"260 686 CURVE",
"229 686 OFFCURVE",
"212 748 OFFCURVE",
"150 748 CURVE SMOOTH",
"84 748 OFFCURVE",
"43 692 OFFCURVE",
"40 627 CURVE"
);
}
);
width = 401;
},
{
layerId = "950578AD-3C55-42C9-B412-F732192F54B4";
width = 600;
}
);
unicode = 0303;
},
{
color = 0;
glyphname = horncomb;
lastChange = "2018-05-01 19:44:14 +0000";
layers = (
{
anchors = (
{
name = _topright;
position = "{0, 510}";
},
{
name = topright;
position = "{0, 510}";
}
);
layerId = "3D0525B3-6B2A-4787-8D58-1F6DD6CCA7DC";
paths = (
{
closed = 1;
nodes = (
"190 420 OFFCURVE",
"244 506 OFFCURVE",
"244 616 CURVE",
"162 616 LINE",
"162 536 OFFCURVE",
"130 502 OFFCURVE",
"74 502 CURVE",
"74 420 LINE"
);
}
);
width = 244;
},
{
layerId = "950578AD-3C55-42C9-B412-F732192F54B4";
width = 600;
}
);
unicode = 031B;
},
{
glyphname = dotbelowcomb;
lastChange = "2018-05-01 19:44:14 +0000";
layers = (
{
anchors = (
{
name = _bottom;
position = "{105, -3}";
},
{
name = bottom;
position = "{105, -223}";
}
);
layerId = "3D0525B3-6B2A-4787-8D58-1F6DD6CCA7DC";
paths = (
{
closed = 1;
nodes = (
"148 -206 OFFCURVE",
"170 -174 OFFCURVE",
"170 -141 CURVE SMOOTH",
"170 -102 OFFCURVE",
"148 -76 OFFCURVE",
"101 -76 CURVE SMOOTH",
"54 -76 OFFCURVE",
"32 -108 OFFCURVE",
"32 -141 CURVE SMOOTH",
"32 -180 OFFCURVE",
"54 -206 OFFCURVE",
"101 -206 CURVE SMOOTH"
);
}
);
width = 210;
},
{
layerId = "950578AD-3C55-42C9-B412-F732192F54B4";
width = 600;
}
);
unicode = 0323;
},
{
glyphname = dieresisbelowcomb;
lastChange = "2018-05-01 19:44:14 +0000";
layers = (
{
anchors = (
{
name = _bottom;
position = "{198, 0}";
},
{
name = bottom;
position = "{198, -150}";
}
);
layerId = "3D0525B3-6B2A-4787-8D58-1F6DD6CCA7DC";
paths = (
{
closed = 1;
nodes = (
"329 -150 OFFCURVE",
"346 -139 OFFCURVE",
"346 -104 CURVE SMOOTH",
"346 -89 LINE SMOOTH",
"346 -57 OFFCURVE",
"329 -43 OFFCURVE",
"292 -43 CURVE",
"258 -43 OFFCURVE",
"239 -56 OFFCURVE",
"239 -89 CURVE SMOOTH",
"239 -104 LINE SMOOTH",
"239 -136 OFFCURVE",
"256 -150 OFFCURVE",
"291 -150 CURVE"
);
},
{
closed = 1;
nodes = (
"140 -150 OFFCURVE",
"157 -139 OFFCURVE",
"157 -104 CURVE SMOOTH",
"157 -89 LINE SMOOTH",
"157 -56 OFFCURVE",
"141 -43 OFFCURVE",
"102 -43 CURVE",
"69 -43 OFFCURVE",
"50 -57 OFFCURVE",
"50 -89 CURVE SMOOTH",
"50 -104 LINE SMOOTH",
"50 -136 OFFCURVE",
"67 -150 OFFCURVE",
"102 -150 CURVE"
);
}
);
width = 396;
},
{
layerId = "950578AD-3C55-42C9-B412-F732192F54B4";
width = 600;
}
);
unicode = 0324;
},
{
glyphname = ogonekcomb;
lastChange = "2018-05-01 19:44:14 +0000";
layers = (
{
layerId = "3D0525B3-6B2A-4787-8D58-1F6DD6CCA7DC";
paths = (
{
closed = 1;
nodes = (
"193 -201 OFFCURVE",
"237 -167 OFFCURVE",
"248 -139 CURVE",
"192 -99 LINE",
"184 -112 OFFCURVE",
"172 -124 OFFCURVE",
"155 -124 CURVE SMOOTH",
"134 -124 OFFCURVE",
"121 -109 OFFCURVE",
"121 -88 CURVE SMOOTH",
"121 -49 OFFCURVE",
"175 -13 OFFCURVE",
"229 -1 CURVE",
"229 43 LINE",
"185 50 LINE",
"117 31 OFFCURVE",
"30 -15 OFFCURVE",
"30 -98 CURVE SMOOTH",
"30 -157 OFFCURVE",
"84 -201 OFFCURVE",
"139 -201 CURVE SMOOTH"
);
}
);
width = 295;
},
{
layerId = "950578AD-3C55-42C9-B412-F732192F54B4";
width = 600;
}
);
unicode = 0328;
},
{
glyphname = macronbelowcomb;
lastChange = "2018-05-01 19:44:14 +0000";
layers = (
{
anchors = (
{
name = _bottom;
position = "{213, 0}";
},
{
name = bottom;
position = "{213, -164}";
}
);
layerId = "3D0525B3-6B2A-4787-8D58-1F6DD6CCA7DC";
paths = (
{
closed = 1;
nodes = (
"351 -158 LINE",
"351 -84 LINE",
"70 -84 LINE",
"70 -158 LINE"
);
}
);
width = 421;
},
{
layerId = "950578AD-3C55-42C9-B412-F732192F54B4";
width = 600;
}
);
unicode = 0331;
},
{
glyphname = strokeshortcomb;
lastChange = "2018-05-01 19:44:14 +0000";
layers = (
{
anchors = (
{
name = _center;
position = "{177, 294}";
}
);
layerId = "3D0525B3-6B2A-4787-8D58-1F6DD6CCA7DC";
paths = (
{
closed = 1;
nodes = (
"318 251 LINE",
"318 341 LINE",
"50 341 LINE",
"50 251 LINE"
);
}
);
width = 368;
},
{
layerId = "950578AD-3C55-42C9-B412-F732192F54B4";
width = 600;
}
);
unicode = 0335;
},
{
glyphname = acute;
lastChange = "2018-05-01 19:44:14 +0000";
layers = (
{
anchors = (
{
name = _top;
position = "{96, 569}";
}
);
layerId = "3D0525B3-6B2A-4787-8D58-1F6DD6CCA7DC";
paths = (
{
closed = 1;
nodes = (
"246 667 LINE",
"181 749 LINE",
"38 624 LINE",
"72 573 LINE"
);
}
);
width = 269;
},
{
layerId = "950578AD-3C55-42C9-B412-F732192F54B4";
width = 600;
}
);
unicode = 00B4;
},
{
glyphname = breve;
lastChange = "2018-05-02 18:23:20 +0000";
layers = (
{
anchors = (
{
name = _top;
position = "{207, 548}";
}
);
layerId = "3D0525B3-6B2A-4787-8D58-1F6DD6CCA7DC";
paths = (
{
closed = 1;
nodes = (
"284 570 OFFCURVE",
"345 632 OFFCURVE",
"363 724 CURVE",
"289 736 LINE",
"274 693 OFFCURVE",
"243 651 OFFCURVE",
"201 651 CURVE SMOOTH",
"159 651 OFFCURVE",
"128 693 OFFCURVE",
"113 736 CURVE",
"39 724 LINE",
"57 632 OFFCURVE",
"118 570 OFFCURVE",
"201 570 CURVE SMOOTH"
);
}
);
width = 402;
},
{
layerId = "950578AD-3C55-42C9-B412-F732192F54B4";
width = 600;
}
);
unicode = 02D8;
},
{
glyphname = caron;
lastChange = "2018-05-01 19:44:14 +0000";
layers = (
{
anchors = (
{
name = _top;
position = "{180, 515}";
}
);
layerId = "3D0525B3-6B2A-4787-8D58-1F6DD6CCA7DC";
paths = (
{
closed = 1;
nodes = (
"196 660 LINE",
"71 733 LINE",
"33 700 LINE",
"138 587 LINE",
"224 587 LINE",
"329 700 LINE",
"291 733 LINE",
"166 660 LINE"
);
}
);
width = 362;
},
{
layerId = "950578AD-3C55-42C9-B412-F732192F54B4";
width = 600;
}
);
unicode = 02C7;
},
{
glyphname = cedilla;
lastChange = "2018-05-01 19:44:14 +0000";
layers = (
{
anchors = (
{
name = _bottom;
position = "{141, 0}";
}
);
layerId = "3D0525B3-6B2A-4787-8D58-1F6DD6CCA7DC";
paths = (
{
closed = 1;
nodes = (
"100 -97 LINE",
"173 24 LINE",
"114 24 LINE",
"42 -90 LINE"
);
},
{
closed = 1;
nodes = (
"230 -72 OFFCURVE",
"162 -49 OFFCURVE",
"101 -41 CURVE",
"42 -90 LINE",
"43 -91 LINE",
"55 -110 LINE",
"114 -112 OFFCURVE",
"134 -133 OFFCURVE",
"134 -148 CURVE SMOOTH",
"134 -175 OFFCURVE",
"76 -188 OFFCURVE",
"33 -188 CURVE",
"40 -244 LINE",
"172 -249 OFFCURVE",
"230 -180 OFFCURVE",
"230 -139 CURVE SMOOTH"
);
}
);
width = 267;
},
{
layerId = "950578AD-3C55-42C9-B412-F732192F54B4";
width = 600;
}
);
unicode = 00B8;
},
{
glyphname = circumflex;
lastChange = "2018-05-02 18:20:57 +0000";
layers = (
{
anchors = (
{
name = _top;
position = "{188, 522}";
}
);
layerId = "3D0525B3-6B2A-4787-8D58-1F6DD6CCA7DC";
paths = (
{
closed = 1;
nodes = (
"301 587 LINE",
"339 620 LINE",
"224 733 LINE",
"138 733 LINE",
"23 620 LINE",
"61 587 LINE",
"196 660 LINE",
"166 660 LINE"
);
}
);
width = 368;
},
{
layerId = "950578AD-3C55-42C9-B412-F732192F54B4";
width = 600;
}
);
unicode = 02C6;
},
{
glyphname = dieresis;
lastChange = "2018-05-01 19:44:14 +0000";
layers = (
{
anchors = (
{
name = _top;
position = "{210, 515}";
}
);
layerId = "3D0525B3-6B2A-4787-8D58-1F6DD6CCA7DC";
paths = (
{
closed = 1;
nodes = (
"153 591 OFFCURVE",
"175 623 OFFCURVE",
"175 656 CURVE SMOOTH",
"175 695 OFFCURVE",
"153 721 OFFCURVE",
"106 721 CURVE SMOOTH",
"59 721 OFFCURVE",
"37 689 OFFCURVE",
"37 656 CURVE SMOOTH",
"37 617 OFFCURVE",
"59 591 OFFCURVE",
"106 591 CURVE SMOOTH"
);
},
{
closed = 1;
nodes = (
"353 591 OFFCURVE",
"375 623 OFFCURVE",
"375 656 CURVE SMOOTH",
"375 695 OFFCURVE",
"353 721 OFFCURVE",
"306 721 CURVE SMOOTH",
"259 721 OFFCURVE",
"237 689 OFFCURVE",
"237 656 CURVE SMOOTH",
"237 617 OFFCURVE",
"259 591 OFFCURVE",
"306 591 CURVE SMOOTH"
);
}
);
width = 413;
},
{
layerId = "950578AD-3C55-42C9-B412-F732192F54B4";
width = 600;
}
);
unicode = 00A8;
},
{
glyphname = dotaccent;
lastChange = "2018-05-01 19:44:14 +0000";
layers = (
{
layerId = "3D0525B3-6B2A-4787-8D58-1F6DD6CCA7DC";
paths = (
{
closed = 1;
nodes = (
"151 600 OFFCURVE",
"168 612 OFFCURVE",
"168 646 CURVE SMOOTH",
"168 662 LINE SMOOTH",
"168 695 OFFCURVE",
"153 708 OFFCURVE",
"112 708 CURVE",
"78 708 OFFCURVE",
"59 695 OFFCURVE",
"59 662 CURVE SMOOTH",
"59 646 LINE SMOOTH",
"59 614 OFFCURVE",
"75 600 OFFCURVE",
"112 600 CURVE"
);
}
);
width = 227;
},
{
layerId = "950578AD-3C55-42C9-B412-F732192F54B4";
width = 600;
}
);
unicode = 02D9;
},
{
glyphname = grave;
lastChange = "2018-05-01 19:44:14 +0000";
layers = (
{
anchors = (
{
name = _top;
position = "{155, 515}";
}
);
layerId = "3D0525B3-6B2A-4787-8D58-1F6DD6CCA7DC";
paths = (
{
closed = 1;
nodes = (
"214 624 LINE",
"71 749 LINE",
"6 667 LINE",
"180 573 LINE"
);
}
);
width = 246;
},
{
layerId = "950578AD-3C55-42C9-B412-F732192F54B4";
width = 600;
}
);
unicode = 0060;
},
{
glyphname = macron;
lastChange = "2018-05-02 18:04:43 +0000";
layers = (
{
anchors = (
{
name = _top;
position = "{199, 515}";
}
);
layerId = "3D0525B3-6B2A-4787-8D58-1F6DD6CCA7DC";
paths = (
{
closed = 1;
nodes = (
"354 590 LINE",
"354 665 LINE",
"70 665 LINE",
"70 590 LINE"
);
}
);
width = 424;
},
{
layerId = "950578AD-3C55-42C9-B412-F732192F54B4";
width = 600;
}
);
unicode = 00AF;
},
{
glyphname = ogonek;
lastChange = "2018-05-01 19:44:14 +0000";
layers = (
{
layerId = "3D0525B3-6B2A-4787-8D58-1F6DD6CCA7DC";
paths = (
{
closed = 1;
nodes = (
"193 -201 OFFCURVE",
"237 -167 OFFCURVE",
"248 -139 CURVE",
"192 -99 LINE",
"184 -112 OFFCURVE",
"172 -124 OFFCURVE",
"155 -124 CURVE SMOOTH",
"134 -124 OFFCURVE",
"121 -109 OFFCURVE",
"121 -88 CURVE SMOOTH",
"121 -49 OFFCURVE",
"175 -13 OFFCURVE",
"229 -1 CURVE",
"229 43 LINE",
"185 50 LINE",
"117 31 OFFCURVE",
"30 -15 OFFCURVE",
"30 -98 CURVE SMOOTH",
"30 -157 OFFCURVE",
"84 -201 OFFCURVE",
"139 -201 CURVE SMOOTH"
);
}
);
width = 295;
},
{
layerId = "950578AD-3C55-42C9-B412-F732192F54B4";
width = 600;
}
);
unicode = 02DB;
},
{
glyphname = ring;
lastChange = "2018-05-01 19:44:14 +0000";
layers = (
{
anchors = (
{
name = _top;
position = "{164, 515}";
}
);
layerId = "3D0525B3-6B2A-4787-8D58-1F6DD6CCA7DC";
paths = (
{
closed = 1;
nodes = (
"226 600 OFFCURVE",
"277 648 OFFCURVE",
"277 705 CURVE",
"277 764 OFFCURVE",
"226 811 OFFCURVE",
"168 811 CURVE",
"110 811 OFFCURVE",
"59 764 OFFCURVE",
"59 705 CURVE",
"59 648 OFFCURVE",
"110 600 OFFCURVE",
"168 600 CURVE"
);
},
{
closed = 1;
nodes = (
"140 659 OFFCURVE",
"119 679 OFFCURVE",
"119 705 CURVE",
"119 733 OFFCURVE",
"140 752 OFFCURVE",
"168 752 CURVE",
"193 752 OFFCURVE",
"217 734 OFFCURVE",
"217 705 CURVE",
"217 679 OFFCURVE",
"196 659 OFFCURVE",
"168 659 CURVE"
);
}
);
width = 336;
},
{
layerId = "950578AD-3C55-42C9-B412-F732192F54B4";
width = 600;
}
);
unicode = 02DA;
},
{
glyphname = tilde;
lastChange = "2018-05-01 19:44:14 +0000";
layers = (
{
anchors = (
{
name = _top;
position = "{224, 515}";
}
);
layerId = "3D0525B3-6B2A-4787-8D58-1F6DD6CCA7DC";
paths = (
{
closed = 1;
nodes = (
"375 594 OFFCURVE",
"405 644 OFFCURVE",
"405 683 CURVE SMOOTH",
"405 714 OFFCURVE",
"385 736 OFFCURVE",
"361 736 CURVE SMOOTH",
"341 736 OFFCURVE",
"324 720 OFFCURVE",
"331 696 CURVE SMOOTH",
"332 678 OFFCURVE",
"322 668 OFFCURVE",
"306 668 CURVE",
"271 668 OFFCURVE",
"215 728 OFFCURVE",
"163 728 CURVE SMOOTH",
"87 728 OFFCURVE",
"52 680 OFFCURVE",
"52 642 CURVE SMOOTH",
"52 608 OFFCURVE",
"72 587 OFFCURVE",
"96 587 CURVE SMOOTH",
"115 587 OFFCURVE",
"132 602 OFFCURVE",
"126 626 CURVE SMOOTH",
"126 644 OFFCURVE",
"137 653 OFFCURVE",
"153 653 CURVE SMOOTH",
"188 653 OFFCURVE",
"251 594 OFFCURVE",
"301 594 CURVE"
);
}
);
width = 455;
},
{
layerId = "950578AD-3C55-42C9-B412-F732192F54B4";
width = 600;
}
);
unicode = 02DC;
},
{
glyphname = dieresiscomb.case;
lastChange = "2018-05-02 18:23:36 +0000";
layers = (
{
anchors = (
{
name = _top;
position = "{200, 525}";
},
{
name = top;
position = "{210, 682}";
}
);
layerId = "3D0525B3-6B2A-4787-8D58-1F6DD6CCA7DC";
paths = (
{
closed = 1;
nodes = (
"146 574 OFFCURVE",
"168 606 OFFCURVE",
"168 639 CURVE SMOOTH",
"168 678 OFFCURVE",
"146 704 OFFCURVE",
"99 704 CURVE SMOOTH",
"52 704 OFFCURVE",
"30 672 OFFCURVE",
"30 639 CURVE SMOOTH",
"30 600 OFFCURVE",
"52 574 OFFCURVE",
"99 574 CURVE SMOOTH"
);
},
{
closed = 1;
nodes = (
"352 574 OFFCURVE",
"374 606 OFFCURVE",
"374 639 CURVE SMOOTH",
"374 678 OFFCURVE",
"352 704 OFFCURVE",
"305 704 CURVE SMOOTH",
"258 704 OFFCURVE",
"236 672 OFFCURVE",
"236 639 CURVE SMOOTH",
"236 600 OFFCURVE",
"258 574 OFFCURVE",
"305 574 CURVE SMOOTH"
);
}
);
width = 404;
},
{
layerId = "950578AD-3C55-42C9-B412-F732192F54B4";
width = 600;
}
);
},
{
glyphname = dotaccentcomb.case;
lastChange = "2018-05-01 19:44:14 +0000";
layers = (
{
anchors = (
{
name = _top;
position = "{105, 530}";
},
{
name = top;
position = "{105, 737}";
}
);
layerId = "3D0525B3-6B2A-4787-8D58-1F6DD6CCA7DC";
paths = (
{
closed = 1;
nodes = (
"153 589 OFFCURVE",
"175 621 OFFCURVE",
"175 654 CURVE SMOOTH",
"175 693 OFFCURVE",
"153 719 OFFCURVE",
"106 719 CURVE SMOOTH",
"59 719 OFFCURVE",
"37 687 OFFCURVE",
"37 654 CURVE SMOOTH",
"37 615 OFFCURVE",
"59 589 OFFCURVE",
"106 589 CURVE SMOOTH"
);
}
);
width = 210;
},
{
layerId = "950578AD-3C55-42C9-B412-F732192F54B4";
width = 600;
}
);
},
{
glyphname = gravecomb.case;
lastChange = "2018-05-02 18:17:32 +0000";
layers = (
{
anchors = (
{
name = _top;
position = "{167, 519}";
},
{
name = top;
position = "{125, 764}";
}
);
layerId = "3D0525B3-6B2A-4787-8D58-1F6DD6CCA7DC";
paths = (
{
closed = 1;
nodes = (
"235 624 LINE",
"92 749 LINE",
"27 667 LINE",
"201 573 LINE"
);
}
);
width = 250;
},
{
layerId = "950578AD-3C55-42C9-B412-F732192F54B4";
width = 600;
}
);
},
{
glyphname = acutecomb.case;
lastChange = "2018-05-02 18:17:29 +0000";
layers = (
{
anchors = (
{
name = _top;
position = "{77, 515}";
},
{
name = top;
position = "{125, 703}";
}
);
layerId = "3D0525B3-6B2A-4787-8D58-1F6DD6CCA7DC";
paths = (
{
closed = 1;
nodes = (
"225 659 LINE",
"160 741 LINE",
"17 616 LINE",
"51 565 LINE"
);
}
);
width = 252;
},
{
layerId = "950578AD-3C55-42C9-B412-F732192F54B4";
width = 600;
}
);
},
{
glyphname = circumflexcomb.case;
lastChange = "2018-05-02 18:20:39 +0000";
layers = (
{
anchors = (
{
name = _top;
position = "{181, 542}";
},
{
name = top;
position = "{181, 757}";
}
);
layerId = "3D0525B3-6B2A-4787-8D58-1F6DD6CCA7DC";
paths = (
{
closed = 1;
nodes = (
"299 590 LINE",
"336 625 LINE",
"217 736 LINE",
"144 736 LINE",
"25 625 LINE",
"62 590 LINE",
"195 665 LINE",
"166 665 LINE"
);
}
);
width = 363;
},
{
layerId = "950578AD-3C55-42C9-B412-F732192F54B4";
width = 600;
}
);
},
{
glyphname = ringcomb.case;
lastChange = "2018-05-01 19:44:14 +0000";
layers = (
{
anchors = (
{
name = _top;
position = "{159, 700}";
},
{
name = top;
position = "{159, 991}";
}
);
layerId = "3D0525B3-6B2A-4787-8D58-1F6DD6CCA7DC";
paths = (
{
closed = 1;
nodes = (
"217 747 OFFCURVE",
"269 795 OFFCURVE",
"269 852 CURVE",
"269 911 OFFCURVE",
"217 958 OFFCURVE",
"159 958 CURVE",
"102 958 OFFCURVE",
"50 911 OFFCURVE",
"50 852 CURVE",
"50 795 OFFCURVE",
"102 747 OFFCURVE",
"159 747 CURVE"
);
},
{
closed = 1;
nodes = (
"132 806 OFFCURVE",
"110 826 OFFCURVE",
"110 852 CURVE",
"110 880 OFFCURVE",
"132 899 OFFCURVE",
"159 899 CURVE",
"185 899 OFFCURVE",
"209 882 OFFCURVE",
"209 852 CURVE",
"209 826 OFFCURVE",
"187 806 OFFCURVE",
"159 806 CURVE"
);
}
);
width = 319;
},
{
layerId = "950578AD-3C55-42C9-B412-F732192F54B4";
width = 600;
}
);
},
{
glyphname = tildecomb.case;
lastChange = "2018-05-01 19:44:14 +0000";
layers = (
{
anchors = (
{
name = _top;
position = "{220, 525}";
},
{
name = top;
position = "{220, 733}";
}
);
layerId = "3D0525B3-6B2A-4787-8D58-1F6DD6CCA7DC";
paths = (
{
closed = 1;
nodes = (
"117 581 LINE",
"117 606 OFFCURVE",
"129 620 OFFCURVE",
"144 620 CURVE SMOOTH",
"176 620 OFFCURVE",
"235 580 OFFCURVE",
"291 580 CURVE",
"349 580 OFFCURVE",
"383 634 OFFCURVE",
"383 694 CURVE",
"307 694 LINE",
"309 669 OFFCURVE",
"298 654 OFFCURVE",
"282 654 CURVE",
"247 654 OFFCURVE",
"198 694 OFFCURVE",
"146 694 CURVE SMOOTH",
"84 694 OFFCURVE",
"40 654 OFFCURVE",
"40 581 CURVE"
);
}
);
width = 439;
},
{
layerId = "950578AD-3C55-42C9-B412-F732192F54B4";
width = 600;
}
);
},
{
glyphname = macroncomb.case;
lastChange = "2018-05-01 20:27:25 +0000";
layers = (
{
anchors = (
{
name = _top;
position = "{214, 536}";
},
{
name = top;
position = "{214, 709}";
}
);
layerId = "3D0525B3-6B2A-4787-8D58-1F6DD6CCA7DC";
paths = (
{
closed = 1;
nodes = (
"381 612 LINE",
"381 687 LINE",
"50 687 LINE",
"50 612 LINE"
);
}
);
width = 431;
},
{
layerId = "950578AD-3C55-42C9-B412-F732192F54B4";
width = 600;
}
);
},
{
color = 0;
glyphname = hookabovecomb.case;
lastChange = "2018-05-02 18:04:24 +0000";
layers = (
{
anchors = (
{
name = _top;
position = "{143, 512}";
},
{
name = top;
position = "{133, 760}";
}
);
layerId = "3D0525B3-6B2A-4787-8D58-1F6DD6CCA7DC";
paths = (
{
closed = 1;
nodes = (
"61 666 LINE",
"77 682 OFFCURVE",
"96 699 OFFCURVE",
"119 699 CURVE SMOOTH",
"148 699 OFFCURVE",
"154 688 OFFCURVE",
"154 671 CURVE SMOOTH",
"154 658 OFFCURVE",
"142 644 OFFCURVE",
"129 627 CURVE SMOOTH",
"118 612 OFFCURVE",
"113 593 OFFCURVE",
"113 578 CURVE",
"181 578 LINE",
"182 591 OFFCURVE",
"196 614 OFFCURVE",
"201 621 CURVE SMOOTH",
"215 641 OFFCURVE",
"225 655 OFFCURVE",
"225 678 CURVE SMOOTH",
"225 712 OFFCURVE",
"204 760 OFFCURVE",
"123 760 CURVE SMOOTH",
"81 760 OFFCURVE",
"54 740 OFFCURVE",
"28 714 CURVE"
);
}
);
width = 307;
},
{
layerId = "950578AD-3C55-42C9-B412-F732192F54B4";
width = 600;
}
);
},
{
glyphname = dblgravecomb.case;
lastChange = "2018-05-01 19:44:14 +0000";
layers = (
{
anchors = (
{
name = _top;
position = "{248, 490}";
},
{
name = top;
position = "{248, 709}";
}
);
layerId = "3D0525B3-6B2A-4787-8D58-1F6DD6CCA7DC";
paths = (
{
closed = 1;
nodes = (
"214 594 LINE",
"75 709 LINE",
"20 637 LINE",
"180 553 LINE"
);
},
{
closed = 1;
nodes = (
"404 594 LINE",
"265 709 LINE",
"210 637 LINE",
"370 553 LINE"
);
}
);
width = 415;
},
{
layerId = "950578AD-3C55-42C9-B412-F732192F54B4";
width = 600;
}
);
},
{
color = 0;
glyphname = horncomb.case;
lastChange = "2018-05-01 19:44:14 +0000";
layers = (
{
anchors = (
{
name = _topright;
position = "{0, 510}";
},
{
name = topright;
position = "{0, 510}";
}
);
layerId = "3D0525B3-6B2A-4787-8D58-1F6DD6CCA7DC";
paths = (
{
closed = 1;
nodes = (
"198 420 OFFCURVE",
"255 506 OFFCURVE",
"255 616 CURVE",
"163 616 LINE",
"163 536 OFFCURVE",
"131 502 OFFCURVE",
"74 502 CURVE",
"74 420 LINE"
);
}
);
width = 236;
},
{
layerId = "950578AD-3C55-42C9-B412-F732192F54B4";
width = 600;
}
);
},
{
glyphname = dotbelowcomb.case;
lastChange = "2018-05-01 19:44:14 +0000";
layers = (
{
anchors = (
{
name = _bottom;
position = "{105, 0}";
},
{
name = bottom;
position = "{105, -194}";
}
);
layerId = "3D0525B3-6B2A-4787-8D58-1F6DD6CCA7DC";
paths = (
{
closed = 1;
nodes = (
"153 -191 OFFCURVE",
"175 -159 OFFCURVE",
"175 -126 CURVE SMOOTH",
"175 -87 OFFCURVE",
"153 -61 OFFCURVE",
"106 -61 CURVE SMOOTH",
"59 -61 OFFCURVE",
"37 -93 OFFCURVE",
"37 -126 CURVE SMOOTH",
"37 -165 OFFCURVE",
"59 -191 OFFCURVE",
"106 -191 CURVE SMOOTH"
);
}
);
width = 210;
},
{
layerId = "950578AD-3C55-42C9-B412-F732192F54B4";
width = 600;
}
);
},
{
glyphname = commaaccentcomb.case;
lastChange = "2018-05-02 18:26:18 +0000";
layers = (
{
anchors = (
{
name = _bottom;
position = "{144, 0}";
},
{
name = bottom;
position = "{122, -289}";
}
);
layerId = "3D0525B3-6B2A-4787-8D58-1F6DD6CCA7DC";
paths = (
{
closed = 1;
nodes = (
"75 -201 CURVE",
"99 -243 LINE",
"134 -231 OFFCURVE",
"223 -192 OFFCURVE",
"223 -122 CURVE SMOOTH",
"223 -69 OFFCURVE",
"181 -45 OFFCURVE",
"145 -45 CURVE",
"109 -45 OFFCURVE",
"80 -62 OFFCURVE",
"80 -94 CURVE",
"80 -145 OFFCURVE",
"129 -121 OFFCURVE",
"129 -149 CURVE SMOOTH",
"129 -170 OFFCURVE",
"102 -195 OFFCURVE"
);
}
);
width = 244;
},
{
layerId = "950578AD-3C55-42C9-B412-F732192F54B4";
width = 600;
}
);
},
{
glyphname = macronbelowcomb.case;
lastChange = "2018-05-04 12:35:43 +0000";
layers = (
{
anchors = (
{
name = _bottom;
position = "{198, 0}";
},
{
name = bottom;
position = "{198, -230}";
}
);
layerId = "3D0525B3-6B2A-4787-8D58-1F6DD6CCA7DC";
paths = (
{
closed = 1;
nodes = (
"363 -157 LINE",
"363 -120 LINE",
"363 -83 LINE",
"50 -83 LINE",
"50 -120 LINE",
"50 -157 LINE"
);
}
);
width = 413;
},
{
layerId = "950578AD-3C55-42C9-B412-F732192F54B4";
width = 600;
}
);
},
{
glyphname = acute.case;
lastChange = "2018-05-01 19:44:14 +0000";
layers = (
{
layerId = "3D0525B3-6B2A-4787-8D58-1F6DD6CCA7DC";
paths = (
{
closed = 1;
nodes = (
"82 607 OFFCURVE",
"91 610 OFFCURVE",
"98 616 CURVE SMOOTH",
"191 676 LINE SMOOTH",
"209 686 OFFCURVE",
"220 702 OFFCURVE",
"220 719 CURVE SMOOTH",
"220 745 OFFCURVE",
"195 761 OFFCURVE",
"174 761 CURVE SMOOTH",
"158 761 OFFCURVE",
"143 751 OFFCURVE",
"132 740 CURVE SMOOTH",
"53 659 LINE SMOOTH",
"45 652 OFFCURVE",
"41 644 OFFCURVE",
"41 637 CURVE SMOOTH",
"41 619 OFFCURVE",
"55 607 OFFCURVE",
"75 607 CURVE SMOOTH"
);
}
);
width = 249;
},
{
layerId = "950578AD-3C55-42C9-B412-F732192F54B4";
width = 600;
}
);
},
{
glyphname = breve.case;
lastChange = "2018-05-01 19:44:14 +0000";
layers = (
{
layerId = "3D0525B3-6B2A-4787-8D58-1F6DD6CCA7DC";
paths = (
{
closed = 1;
nodes = (
"274 754 OFFCURVE",
"331 792 OFFCURVE",
"349 851 CURVE SMOOTH",
"358 876 OFFCURVE",
"344 894 OFFCURVE",
"322 894 CURVE SMOOTH",
"298 894 OFFCURVE",
"287 882 OFFCURVE",
"273 862 CURVE SMOOTH",
"261 839 OFFCURVE",
"236 826 OFFCURVE",
"201 826 CURVE SMOOTH",
"166 826 OFFCURVE",
"141 839 OFFCURVE",
"128 862 CURVE SMOOTH",
"115 882 OFFCURVE",
"103 894 OFFCURVE",
"80 894 CURVE SMOOTH",
"58 894 OFFCURVE",
"44 875 OFFCURVE",
"54 849 CURVE SMOOTH",
"71 791 OFFCURVE",
"128 754 OFFCURVE",
"201 754 CURVE SMOOTH"
);
}
);
width = 402;
},
{
layerId = "950578AD-3C55-42C9-B412-F732192F54B4";
width = 600;
}
);
},
{
glyphname = circumflex.case;
lastChange = "2018-05-01 19:44:14 +0000";
layers = (
{
anchors = (
{
name = _top;
position = "{187, 700}";
}
);
layerId = "3D0525B3-6B2A-4787-8D58-1F6DD6CCA7DC";
paths = (
{
closed = 1;
nodes = (
"162 863 LINE",
"248 790 LINE",
"263 777 OFFCURVE",
"269 770 OFFCURVE",
"289 770 CURVE SMOOTH",
"303 770 OFFCURVE",
"313 780 OFFCURVE",
"313 791 CURVE SMOOTH",
"313 800 OFFCURVE",
"312 805 OFFCURVE",
"303 816 CURVE",
"248 885 LINE SMOOTH",
"236 903 OFFCURVE",
"226 909 OFFCURVE",
"203 909 CURVE SMOOTH",
"175 909 LINE SMOOTH",
"152 909 OFFCURVE",
"137 901 OFFCURVE",
"124 885 CURVE SMOOTH",
"66 816 LINE SMOOTH",
"57 805 OFFCURVE",
"56 800 OFFCURVE",
"56 791 CURVE SMOOTH",
"56 780 OFFCURVE",
"66 769 OFFCURVE",
"81 769 CURVE SMOOTH",
"100 769 OFFCURVE",
"106 777 OFFCURVE",
"121 789 CURVE SMOOTH",
"202 857 LINE"
);
}
);
width = 380;
},
{
layerId = "950578AD-3C55-42C9-B412-F732192F54B4";
width = 600;
}
);
},
{
glyphname = dieresis.case;
lastChange = "2018-05-01 19:44:14 +0000";
layers = (
{
anchors = (
{
name = _top;
position = "{207, 700}";
}
);
layerId = "3D0525B3-6B2A-4787-8D58-1F6DD6CCA7DC";
paths = (
{
closed = 1;
nodes = (
"337 780 OFFCURVE",
"355 792 OFFCURVE",
"355 826 CURVE SMOOTH",
"355 841 LINE SMOOTH",
"355 874 OFFCURVE",
"338 887 OFFCURVE",
"301 887 CURVE",
"267 887 OFFCURVE",
"247 874 OFFCURVE",
"247 841 CURVE SMOOTH",
"247 826 LINE SMOOTH",
"247 794 OFFCURVE",
"264 780 OFFCURVE",
"300 780 CURVE"
);
},
{
closed = 1;
nodes = (
"149 780 OFFCURVE",
"166 791 OFFCURVE",
"166 826 CURVE SMOOTH",
"166 841 LINE SMOOTH",
"166 874 OFFCURVE",
"149 887 OFFCURVE",
"112 887 CURVE",
"77 887 OFFCURVE",
"59 874 OFFCURVE",
"59 841 CURVE SMOOTH",
"59 826 LINE SMOOTH",
"59 794 OFFCURVE",
"75 780 OFFCURVE",
"111 780 CURVE"
);
}
);
width = 413;
},
{
layerId = "950578AD-3C55-42C9-B412-F732192F54B4";
width = 600;
}
);
},
{
glyphname = dotaccent.case;
lastChange = "2018-05-01 19:44:14 +0000";
layers = (
{
anchors = (
{
name = _top;
position = "{115, 700}";
}
);
layerId = "3D0525B3-6B2A-4787-8D58-1F6DD6CCA7DC";
paths = (
{
closed = 1;
nodes = (
"151 780 OFFCURVE",
"168 792 OFFCURVE",
"168 826 CURVE SMOOTH",
"168 842 LINE SMOOTH",
"168 875 OFFCURVE",
"153 888 OFFCURVE",
"112 888 CURVE",
"78 888 OFFCURVE",
"59 875 OFFCURVE",
"59 842 CURVE SMOOTH",
"59 826 LINE SMOOTH",
"59 794 OFFCURVE",
"75 780 OFFCURVE",
"112 780 CURVE"
);
}
);
width = 227;
},
{
layerId = "950578AD-3C55-42C9-B412-F732192F54B4";
width = 600;
}
);
},
{
glyphname = grave.case;
lastChange = "2018-05-01 19:44:14 +0000";
layers = (
{
anchors = (
{
name = _top;
position = "{173, 700}";
}
);
layerId = "3D0525B3-6B2A-4787-8D58-1F6DD6CCA7DC";
paths = (
{
closed = 1;
nodes = (
"202 745 OFFCURVE",
"213 762 OFFCURVE",
"213 773 CURVE SMOOTH",
"213 778 OFFCURVE",
"211 784 OFFCURVE",
"207 791 CURVE SMOOTH",
"150 890 LINE SMOOTH",
"140 909 OFFCURVE",
"126 923 OFFCURVE",
"103 923 CURVE SMOOTH",
"82 923 OFFCURVE",
"59 911 OFFCURVE",
"59 883 CURVE SMOOTH",
"59 870 OFFCURVE",
"64 857 OFFCURVE",
"75 845 CURVE SMOOTH",
"151 763 LINE SMOOTH",
"158 755 OFFCURVE",
"172 745 OFFCURVE",
"185 745 CURVE SMOOTH"
);
}
);
width = 248;
},
{
layerId = "950578AD-3C55-42C9-B412-F732192F54B4";
width = 600;
}
);
},
{
glyphname = macron.case;
lastChange = "2018-05-01 19:44:14 +0000";
layers = (
{
anchors = (
{
name = _top;
position = "{230, 525}";
}
);
layerId = "3D0525B3-6B2A-4787-8D58-1F6DD6CCA7DC";
paths = (
{
closed = 1;
nodes = (
"391 581 LINE",
"391 660 LINE",
"56 660 LINE SMOOTH",
"55 660 OFFCURVE",
"55 581 OFFCURVE",
"56 581 CURVE SMOOTH"
);
}
);
width = 447;
},
{
layerId = "950578AD-3C55-42C9-B412-F732192F54B4";
width = 600;
}
);
},
